<svg width="14" height="14" viewBox="0 0 14 14" fill="none" xmlns="http://www.w3.org/2000/svg">
<path d="M6.99999 3.18302C3.98028 -0.522119 0.791951 2.11054 0.75 4.9485C0.75 9.17342 5.80507 12.6412 6.99999 12.6412C8.19491 12.6412 13.25 9.17342 13.25 4.9485C13.208 2.11054 10.0197 -0.522119 6.99999 3.18302Z" fill="#C5D1FF"/>
<path d="M0.75 4.9485L0 4.93741V4.9485H0.75ZM6.99999 3.18302L6.41862 3.65685C6.56105 3.83161 6.77454 3.93302 6.99999 3.93302C7.22544 3.93302 7.43893 3.83161 7.58136 3.65685L6.99999 3.18302ZM13.25 4.9485H14.0001L13.9999 4.93741L13.25 4.9485ZM1.49992 4.95958C1.51728 3.78522 2.19271 2.7031 3.07512 2.29191C3.49935 2.09423 3.98844 2.04012 4.52848 2.21154C5.07861 2.38616 5.72957 2.8114 6.41862 3.65685L7.58136 2.7092C6.76055 1.70208 5.88058 1.06697 4.9823 0.781834C4.07392 0.493493 3.1971 0.580206 2.44155 0.932285C0.964379 1.62063 0.0246733 3.27382 8.19564e-05 4.93741L1.49992 4.95958ZM6.99999 11.8912C7.00936 11.8912 6.9858 11.8919 6.91987 11.8749C6.85763 11.8589 6.77488 11.8316 6.67174 11.7896C6.46499 11.7052 6.20566 11.5733 5.90955 11.3929C5.31794 11.0324 4.61977 10.5029 3.95381 9.84547C2.60098 8.50994 1.5 6.76842 1.5 4.9485H0C0 7.3535 1.42655 9.45833 2.89999 10.9129C3.64716 11.6505 4.4368 12.2521 5.12909 12.6738C5.47493 12.8846 5.80657 13.0566 6.10499 13.1784C6.38445 13.2924 6.70294 13.3912 6.99999 13.3912V11.8912ZM13.9999 4.93741C13.9753 3.27382 13.0356 1.62063 11.5584 0.932284C10.8029 0.580206 9.92607 0.493493 9.01768 0.781834C8.1194 1.06697 7.23943 1.70208 6.41862 2.7092L7.58136 3.65685C8.27041 2.8114 8.92137 2.38616 9.47151 2.21154C10.0115 2.04012 10.5006 2.09423 10.9249 2.29191C11.8073 2.70311 12.4827 3.78522 12.5001 4.95958L13.9999 4.93741ZM6.99999 13.3912C7.29704 13.3912 7.61553 13.2924 7.89499 13.1784C8.19341 13.0566 8.52505 12.8846 8.87089 12.6738C9.56318 12.2521 10.3528 11.6505 11.1 10.9129C12.5734 9.45833 14 7.3535 14 4.9485H12.5C12.5 6.76841 11.399 8.50994 10.0462 9.84547C9.38022 10.5029 8.68204 11.0324 8.09043 11.3929C7.79432 11.5733 7.53499 11.7052 7.32824 11.7896C7.2251 11.8316 7.14235 11.8589 7.08011 11.8749C7.01418 11.8919 6.99062 11.8912 6.99999 11.8912V13.3912Z" fill="#5669FF"/>
</svg>
