<svg width="14" height="15" viewBox="0 0 14 15" fill="none" xmlns="http://www.w3.org/2000/svg">
<path d="M1.75252 2.67884C1.22113 5.65571 1.08175 9.90991 1.38576 12.668C1.43932 13.1539 1.85818 13.5062 2.34702 13.5062H11.6528C12.1416 13.5062 12.5605 13.1539 12.614 12.668C12.918 9.90991 12.7787 5.65571 12.2473 2.67884C12.1175 1.95171 11.5502 1.40132 10.8188 1.29778C9.78352 1.15121 8.31918 1.00616 6.99989 1.00616C5.6806 1.00616 4.21627 1.15121 3.18096 1.29778C2.44963 1.40132 1.88232 1.95171 1.75252 2.67884Z" fill="#C5D1FF" stroke="#5669FF" stroke-width="1.5" stroke-linecap="round" stroke-linejoin="round"/>
<path d="M8.5 7.75616H9.5" stroke="#5669FF" stroke-width="1.5" stroke-linecap="round" stroke-linejoin="round"/>
<path d="M5.5 11.7562V13.5062H8.5V11.7562C8.5 10.9277 7.82843 10.2562 7 10.2562C6.17157 10.2562 5.5 10.9277 5.5 11.7562Z" fill="white" stroke="#5669FF" stroke-width="1.5" stroke-linecap="round" stroke-linejoin="round"/>
<path d="M4.5 4.75616H5.5" stroke="#5669FF" stroke-width="1.5" stroke-linecap="round" stroke-linejoin="round"/>
<path d="M8.5 4.75616H9.5" stroke="#5669FF" stroke-width="1.5" stroke-linecap="round" stroke-linejoin="round"/>
<path d="M4.5 7.75616H5.5" stroke="#5669FF" stroke-width="1.5" stroke-linecap="round" stroke-linejoin="round"/>
</svg>
