<svg width="57" height="57" viewBox="0 0 57 57" fill="none" xmlns="http://www.w3.org/2000/svg">
<rect x="0.445312" y="0.445312" width="56.1094" height="56.1094" rx="14.0273" fill="url(#paint0_radial_487_531)" fill-opacity="0.7" stroke="white" stroke-width="0.890625"/>
<rect width="57" height="57" rx="14.4727" fill="url(#paint1_linear_487_531)"/>
<rect x="1.27612" y="1.27612" width="54.4478" height="54.4478" rx="13.1965" stroke="white" stroke-opacity="0.3" stroke-width="2.55224"/>
<rect x="30.9492" y="30.6152" width="4.78711" height="4.23047" rx="2.00391" fill="#FFA100"/>
<g filter="url(#filter0_d_487_531)">
<path d="M16.3911 24.9816C16.6596 24.9816 16.8983 25.0189 17.1072 25.0935C17.331 25.1531 17.4503 25.183 17.4652 25.183L17.5995 25.0711L17.51 22.6319C17.4801 22.2142 17.3906 21.8561 17.2414 21.5577C17.0923 21.2594 16.958 21.0654 16.8386 20.9759L16.6372 20.864C16.5477 20.8044 16.503 20.7372 16.503 20.6626C16.503 20.4389 16.8461 20.1778 17.5324 19.8794C18.2335 19.581 18.7781 19.4318 19.1659 19.4318C19.5538 19.4318 19.7627 19.5139 19.7925 19.678C19.8671 20.1852 19.9044 21.1549 19.9044 22.5871C19.9044 24.0044 19.8671 25.3993 19.7925 26.7718C19.7329 28.1443 19.703 29.7033 19.703 31.4488C19.703 33.1794 19.8149 34.2684 20.0387 34.716C20.0984 34.8204 20.1282 34.9174 20.1282 35.0069C20.1282 35.2307 19.8074 35.3426 19.1659 35.3426C17.9426 35.3426 17.331 35.0517 17.331 34.4698C17.3011 34.2311 17.2862 33.8656 17.2862 33.3733C17.2862 32.8661 17.331 31.9337 17.4205 30.5761C17.5249 29.2036 17.5771 28.1518 17.5771 27.4208C17.5771 26.6748 17.2041 26.3019 16.4582 26.3019C15.7272 26.3019 15.1677 26.7345 14.7799 27.5998C14.392 28.4651 14.198 29.3304 14.198 30.1957C14.198 32.0306 14.6605 32.9481 15.5855 32.9481C15.7197 32.9481 15.8465 32.9258 15.9659 32.881C16.1002 32.8213 16.1822 32.7915 16.2121 32.7915C16.3314 32.7915 16.4209 32.8661 16.4806 33.0153C16.5552 33.1645 16.5925 33.3137 16.5925 33.4628C16.5925 33.9701 16.3911 34.4027 15.9883 34.7608C15.5855 35.1039 15.0932 35.2755 14.5113 35.2755C13.6162 35.2755 12.9374 34.8876 12.4749 34.1118C12.0274 33.3211 11.8036 32.3439 11.8036 31.1803C11.8036 29.7033 12.1542 28.3308 12.8554 27.0627C13.2134 26.4362 13.6983 25.9364 14.3099 25.5634C14.9216 25.1755 15.6153 24.9816 16.3911 24.9816ZM27.9629 29.032L28.0525 29.8152C28.0525 30.0987 27.7839 30.2404 27.2468 30.2404C26.1578 30.2404 25.6133 29.8301 25.6133 29.0096C25.6133 28.8157 25.6655 28.5471 25.7699 28.204C25.8743 27.8609 25.9265 27.5625 25.9265 27.3089C25.9265 27.0553 25.852 26.839 25.7028 26.6599C25.5536 26.466 25.3373 26.369 25.0538 26.369C24.7703 26.369 24.5242 26.4734 24.3153 26.6823C24.1214 26.8763 24.002 27.0777 23.9573 27.2865L23.8678 27.5998C23.7783 28.0623 23.7335 28.8381 23.7335 29.9271C23.7335 31.0013 23.7484 31.8516 23.7783 32.4782C23.8081 33.0899 23.8379 33.5151 23.8678 33.7538C23.8976 33.9775 23.9125 34.1118 23.9125 34.1566C23.9125 34.5295 23.6813 34.8279 23.2188 35.0517C22.7563 35.2904 22.2939 35.4097 21.8314 35.4097C21.3689 35.4097 21.1377 35.3128 21.1377 35.1188L21.2495 34.4251C21.4584 33.1272 21.5628 31.4339 21.5628 29.3453C21.5628 27.2567 21.4882 25.8394 21.3391 25.0935C21.3391 24.9144 21.4957 24.8249 21.809 24.8249C22.6146 24.8249 23.1517 25.1009 23.4202 25.6529C23.4351 25.7126 23.4575 25.7424 23.4873 25.7424C23.5321 25.7424 23.6365 25.6753 23.8006 25.541C24.293 25.1382 24.8748 24.9368 25.5461 24.9368C25.9638 24.9368 26.3816 25.0189 26.7993 25.183C27.6496 25.5261 28.0748 26.2422 28.0748 27.3313L27.9629 29.032Z" fill="white"/>
<g filter="url(#filter1_d_487_531)">
<path d="M32.3269 25.2227C32.1797 25.2234 32.0474 25.314 31.9919 25.4507C31.6334 26.3462 30.7643 27.5234 29.974 28.7075C29.184 29.8916 28.4458 31.0812 28.4458 32.2217C28.4458 34.359 30.189 36.0993 32.3291 36.0993C34.4696 36.0993 36.2153 34.3586 36.2153 32.2217C36.2153 31.0812 35.4779 29.8916 34.6871 28.7075C33.8968 27.5234 33.0256 26.3459 32.6674 25.4511C32.6112 25.3126 32.4763 25.2216 32.3269 25.2227ZM34.3163 31.8309C34.313 31.6319 34.4725 31.4676 34.6716 31.4644C34.8724 31.4608 35.0374 31.6203 35.041 31.8258C35.041 33.3214 33.8221 34.537 32.3295 34.537C32.1293 34.5417 31.9633 34.3826 31.9593 34.1824C31.9542 33.9819 32.1137 33.8163 32.3219 33.8119C33.4305 33.8112 34.3163 32.928 34.3163 31.8309Z" fill="white"/>
</g>
<path d="M37.2994 31.6055C37.3293 30.0987 37.3442 28.8604 37.3442 27.8907C37.3442 26.921 37.277 25.996 37.1428 25.1158C37.1428 24.9666 37.292 24.892 37.5903 24.892C37.8887 24.892 38.1423 24.9293 38.3512 25.0039C38.575 25.0785 38.7316 25.1606 38.8211 25.2501C39.0598 25.4888 39.1941 25.6081 39.2239 25.6081C39.2687 25.6081 39.388 25.541 39.582 25.4067C40.1638 25.0338 40.8053 24.8473 41.5065 24.8473C42.2226 24.8473 42.8417 25.0263 43.3639 25.3844C43.9009 25.7424 44.2814 26.2123 44.5052 26.7942C44.908 27.7937 45.1094 28.853 45.1094 29.9719C45.1094 31.0758 44.908 32.1798 44.5052 33.2838C44.2814 33.8806 43.9532 34.3729 43.5205 34.7608C43.0879 35.1337 42.5806 35.3202 41.9988 35.3202C40.8501 35.3202 40.2757 34.6563 40.2757 33.3286C40.2757 32.9705 40.3503 32.7915 40.4995 32.7915C40.5293 32.7915 40.6114 32.8288 40.7456 32.9034C40.8948 32.9631 41.0366 32.9929 41.1708 32.9929C42.2301 32.9929 42.7597 31.874 42.7597 29.6362C42.7597 27.3835 42.1928 26.2571 41.0589 26.2571C40.7456 26.2571 40.4771 26.3317 40.2533 26.4809C40.0445 26.6151 39.9102 26.7494 39.8505 26.8837L39.761 27.1075C39.5521 28.4501 39.4477 31.0385 39.4477 34.8727C39.4477 36.6032 39.4776 37.8415 39.5372 38.5874C39.6118 39.3483 39.6491 39.8033 39.6491 39.9525C39.6491 40.1017 39.6044 40.2359 39.5148 40.3553C39.2165 40.7432 38.8137 41.0863 38.3064 41.3847C37.7992 41.698 37.3516 41.8546 36.9637 41.8546C36.8146 41.8546 36.74 41.7576 36.74 41.5637C36.9787 40.0569 37.1652 36.7375 37.2994 31.6055Z" fill="white"/>
</g>
<defs>
<filter id="filter0_d_487_531" x="11.3584" y="19.4319" width="34.1963" height="23.3134" filterUnits="userSpaceOnUse" color-interpolation-filters="sRGB">
<feFlood flood-opacity="0" result="BackgroundImageFix"/>
<feColorMatrix in="SourceAlpha" type="matrix" values="0 0 0 0 0 0 0 0 0 0 0 0 0 0 0 0 0 0 127 0" result="hardAlpha"/>
<feOffset dy="0.445312"/>
<feGaussianBlur stdDeviation="0.222656"/>
<feComposite in2="hardAlpha" operator="out"/>
<feColorMatrix type="matrix" values="0 0 0 0 0 0 0 0 0 0 0 0 0 0 0 0 0 0 0.25 0"/>
<feBlend mode="normal" in2="BackgroundImageFix" result="effect1_dropShadow_487_531"/>
<feBlend mode="normal" in="SourceGraphic" in2="effect1_dropShadow_487_531" result="shape"/>
</filter>
<filter id="filter1_d_487_531" x="28.0315" y="25.2227" width="8.59822" height="11.7053" filterUnits="userSpaceOnUse" color-interpolation-filters="sRGB">
<feFlood flood-opacity="0" result="BackgroundImageFix"/>
<feColorMatrix in="SourceAlpha" type="matrix" values="0 0 0 0 0 0 0 0 0 0 0 0 0 0 0 0 0 0 127 0" result="hardAlpha"/>
<feOffset dy="0.414346"/>
<feGaussianBlur stdDeviation="0.207173"/>
<feComposite in2="hardAlpha" operator="out"/>
<feColorMatrix type="matrix" values="0 0 0 0 0 0 0 0 0 0 0 0 0 0 0 0 0 0 0.15 0"/>
<feBlend mode="normal" in2="BackgroundImageFix" result="effect1_dropShadow_487_531"/>
<feBlend mode="normal" in="SourceGraphic" in2="effect1_dropShadow_487_531" result="shape"/>
</filter>
<radialGradient id="paint0_radial_487_531" cx="0" cy="0" r="1" gradientUnits="userSpaceOnUse" gradientTransform="translate(28.5 28.5) rotate(90) scale(28.5)">
<stop stop-color="white"/>
<stop offset="1" stop-color="white"/>
</radialGradient>
<linearGradient id="paint1_linear_487_531" x1="28.5" y1="0" x2="28.5" y2="57" gradientUnits="userSpaceOnUse">
<stop offset="0.0001" stop-color="#7483FF"/>
<stop offset="1" stop-color="#5567FF"/>
</linearGradient>
</defs>
</svg>
