<svg width="98" height="98" viewBox="0 0 98 98" fill="none" xmlns="http://www.w3.org/2000/svg">
<rect x="0.765625" y="0.765625" width="96.4688" height="96.4688" rx="24.1172" fill="url(#paint0_radial_403_508)" fill-opacity="0.7" stroke="white" stroke-width="1.53125"/>
<rect width="98" height="98" rx="24.8828" fill="url(#paint1_linear_403_508)"/>
<rect x="2.19403" y="2.19403" width="93.6119" height="93.6119" rx="22.6888" stroke="white" stroke-opacity="0.3" stroke-width="4.38806"/>
<rect x="53.2109" y="52.6367" width="8.23047" height="7.27344" rx="3.44531" fill="#FFA100"/>
<g filter="url(#filter0_d_403_508)">
<path d="M28.1811 42.5648C28.6428 42.5648 29.0532 42.6289 29.4123 42.7572C29.7971 42.8598 30.0023 42.9111 30.0279 42.9111L30.2588 42.7187L30.1049 38.525C30.0536 37.8068 29.8997 37.1912 29.6432 36.6782C29.3867 36.1652 29.1558 35.8318 28.9506 35.6779L28.6044 35.4855C28.4505 35.3829 28.3735 35.2675 28.3735 35.1393C28.3735 34.7545 28.9635 34.3056 30.1433 33.7927C31.3489 33.2797 32.2851 33.0232 32.952 33.0232C33.6189 33.0232 33.978 33.1642 34.0293 33.4464C34.1575 34.3185 34.2216 35.9857 34.2216 38.4481C34.2216 40.8848 34.1575 43.283 34.0293 45.6428C33.9267 48.0025 33.8754 50.6829 33.8754 53.6839C33.8754 56.6593 34.0677 58.5317 34.4525 59.3012C34.5551 59.4807 34.6064 59.6475 34.6064 59.8014C34.6064 60.1861 34.0549 60.3785 32.952 60.3785C30.8487 60.3785 29.7971 59.8783 29.7971 58.878C29.7458 58.4676 29.7201 57.8392 29.7201 56.9927C29.7201 56.1206 29.7971 54.5175 29.951 52.1834C30.1305 49.8237 30.2203 48.0154 30.2203 46.7585C30.2203 45.4761 29.5791 44.8348 28.2966 44.8348C27.0397 44.8348 26.0779 45.5787 25.411 47.0663C24.7441 48.554 24.4107 50.0417 24.4107 51.5294C24.4107 54.6843 25.2058 56.2617 26.7961 56.2617C27.0269 56.2617 27.2449 56.2232 27.4501 56.1463C27.681 56.0437 27.8221 55.9924 27.8734 55.9924C28.0786 55.9924 28.2324 56.1206 28.335 56.3771C28.4633 56.6336 28.5274 56.8901 28.5274 57.1466C28.5274 58.0187 28.1811 58.7626 27.4886 59.3782C26.7961 59.9681 25.9496 60.2631 24.9493 60.2631C23.4103 60.2631 22.2433 59.5962 21.4481 58.2624C20.6786 56.903 20.2939 55.2229 20.2939 53.2222C20.2939 50.6829 20.8967 48.3232 22.1022 46.1429C22.7178 45.0657 23.5514 44.2064 24.603 43.5652C25.6547 42.8983 26.8474 42.5648 28.1811 42.5648ZM48.0766 49.5287L48.2305 50.8753C48.2305 51.3626 47.7688 51.6063 46.8455 51.6063C44.973 51.6063 44.0368 50.901 44.0368 49.4902C44.0368 49.1568 44.1266 48.6951 44.3061 48.1051C44.4857 47.5152 44.5755 47.0022 44.5755 46.5662C44.5755 46.1301 44.4472 45.7582 44.1907 45.4504C43.9342 45.117 43.5623 44.9502 43.075 44.9502C42.5876 44.9502 42.1644 45.1298 41.8053 45.4889C41.4719 45.8223 41.2667 46.1686 41.1897 46.5277L41.0358 47.0663C40.8819 47.8615 40.805 49.1953 40.805 51.0677C40.805 52.9144 40.8306 54.3765 40.8819 55.4538C40.9332 56.5054 40.9845 57.2364 41.0358 57.6468C41.0871 58.0315 41.1128 58.2624 41.1128 58.3393C41.1128 58.9806 40.7152 59.4936 39.9201 59.8783C39.1249 60.2887 38.3298 60.4939 37.5346 60.4939C36.7395 60.4939 36.3419 60.3272 36.3419 59.9937L36.5343 58.801C36.8934 56.5695 37.073 53.6583 37.073 50.0673C37.073 46.4764 36.9447 44.0397 36.6882 42.7572C36.6882 42.4494 36.9575 42.2955 37.4962 42.2955C38.8812 42.2955 39.8046 42.77 40.2663 43.7191C40.292 43.8217 40.3305 43.873 40.3818 43.873C40.4587 43.873 40.6382 43.7575 40.9204 43.5267C41.7668 42.8341 42.7672 42.4879 43.9214 42.4879C44.6396 42.4879 45.3578 42.6289 46.076 42.9111C47.538 43.501 48.269 44.7322 48.269 46.6046L48.0766 49.5287Z" fill="white"/>
<path d="M55.5802 43.3652C55.3271 43.3665 55.0996 43.5223 55.0042 43.7573C54.3877 45.2969 52.8936 47.3209 51.5347 49.3567C50.1765 51.3925 48.9073 53.4377 48.9073 55.3987C48.9073 59.0733 51.9044 62.0653 55.5839 62.0653C59.2641 62.0653 62.2655 59.0727 62.2655 55.3987C62.2655 53.4377 60.9976 51.3925 59.6381 49.3567C58.2792 47.3209 56.7813 45.2963 56.1655 43.7579C56.0689 43.5198 55.837 43.3634 55.5802 43.3652ZM59.0004 54.7268C58.9948 54.3846 59.2691 54.1022 59.6113 54.0966C59.9566 54.0903 60.2402 54.3646 60.2465 54.718C60.2465 57.2893 58.1508 59.3794 55.5845 59.3794C55.2404 59.3875 54.955 59.1138 54.9481 58.7697C54.9394 58.425 55.2136 58.1402 55.5714 58.1327C57.4776 58.1314 59.0004 56.613 59.0004 54.7268Z" fill="white"/>
<path d="M64.1288 53.9532C64.1801 51.3626 64.2058 49.2337 64.2058 47.5665C64.2058 45.8992 64.0904 44.3089 63.8595 42.7956C63.8595 42.5391 64.116 42.4109 64.629 42.4109C65.142 42.4109 65.578 42.475 65.9371 42.6032C66.3219 42.7315 66.5912 42.8726 66.7451 43.0265C67.1555 43.4369 67.3863 43.642 67.4376 43.642C67.5146 43.642 67.7198 43.5266 68.0532 43.2958C69.0536 42.6545 70.1565 42.3339 71.362 42.3339C72.5932 42.3339 73.6577 42.6417 74.5554 43.2573C75.4788 43.8729 76.1329 44.6809 76.5176 45.6812C77.2102 47.3997 77.5565 49.2209 77.5565 51.1446C77.5565 53.0427 77.2102 54.9407 76.5176 56.8388C76.1329 57.8648 75.5686 58.7113 74.8248 59.3781C74.0809 60.0194 73.2088 60.34 72.2085 60.34C70.2335 60.34 69.2459 59.1986 69.2459 56.9158C69.2459 56.3002 69.3742 55.9924 69.6307 55.9924C69.682 55.9924 69.8231 56.0565 70.0539 56.1848C70.3104 56.2874 70.5541 56.3387 70.7849 56.3387C72.6061 56.3387 73.5166 54.4149 73.5166 50.5675C73.5166 46.6944 72.5419 44.7578 70.5926 44.7578C70.0539 44.7578 69.5922 44.8861 69.2075 45.1426C68.8484 45.3734 68.6175 45.6043 68.5149 45.8351L68.361 46.2198C68.0019 48.5283 67.8224 52.9785 67.8224 59.5705C67.8224 62.5459 67.8737 64.6748 67.9763 65.9573C68.1045 67.2654 68.1687 68.0478 68.1687 68.3042C68.1687 68.5607 68.0917 68.7916 67.9378 68.9968C67.4248 69.6637 66.7323 70.2536 65.8602 70.7666C64.9881 71.3053 64.2186 71.5746 63.5517 71.5746C63.2952 71.5746 63.167 71.4079 63.167 71.0744C63.5774 68.4838 63.898 62.7767 64.1288 53.9532Z" fill="white"/>
</g>
<defs>
<filter id="filter0_d_403_508" x="19.5283" y="33.0232" width="58.7938" height="40.0827" filterUnits="userSpaceOnUse" color-interpolation-filters="sRGB">
<feFlood flood-opacity="0" result="BackgroundImageFix"/>
<feColorMatrix in="SourceAlpha" type="matrix" values="0 0 0 0 0 0 0 0 0 0 0 0 0 0 0 0 0 0 127 0" result="hardAlpha"/>
<feOffset dy="0.765625"/>
<feGaussianBlur stdDeviation="0.382812"/>
<feComposite in2="hardAlpha" operator="out"/>
<feColorMatrix type="matrix" values="0 0 0 0 0 0 0 0 0 0 0 0 0 0 0 0 0 0 0.25 0"/>
<feBlend mode="normal" in2="BackgroundImageFix" result="effect1_dropShadow_403_508"/>
<feBlend mode="normal" in="SourceGraphic" in2="effect1_dropShadow_403_508" result="shape"/>
</filter>
<radialGradient id="paint0_radial_403_508" cx="0" cy="0" r="1" gradientUnits="userSpaceOnUse" gradientTransform="translate(49 49) rotate(90) scale(49)">
<stop stop-color="white"/>
<stop offset="1" stop-color="white"/>
</radialGradient>
<linearGradient id="paint1_linear_403_508" x1="49" y1="0" x2="49" y2="98" gradientUnits="userSpaceOnUse">
<stop stop-color="#70F2DB"/>
<stop offset="0.0001" stop-color="#7483FF"/>
<stop offset="1" stop-color="#5567FF"/>
</linearGradient>
</defs>
</svg>
