<svg width="118" height="175" viewBox="0 0 118 175" fill="none" xmlns="http://www.w3.org/2000/svg">
<path d="M9 9.5C4.85786 9.5 1.5 12.8579 1.5 17V166C1.5 170.142 4.85786 173.5 9 173.5H109C113.142 173.5 116.5 170.142 116.5 166V17C116.5 12.8579 113.142 9.5 109 9.5H9Z" fill="white" stroke="#5669FF" stroke-width="3"/>
<path d="M34.7969 61.6602V62.6914H31.2227V61.6602H34.7969ZM32.2539 60.1074H33.666V66.248C33.666 66.4434 33.6934 66.5938 33.748 66.6992C33.8066 66.8008 33.8867 66.8691 33.9883 66.9043C34.0898 66.9395 34.209 66.957 34.3457 66.957C34.4434 66.957 34.5371 66.9512 34.627 66.9395C34.7168 66.9277 34.7891 66.916 34.8438 66.9043L34.8496 67.9824C34.7324 68.0176 34.5957 68.0488 34.4395 68.0762C34.2871 68.1035 34.1113 68.1172 33.9121 68.1172C33.5879 68.1172 33.3008 68.0605 33.0508 67.9473C32.8008 67.8301 32.6055 67.6406 32.4648 67.3789C32.3242 67.1172 32.2539 66.7695 32.2539 66.3359V60.1074ZM35.4766 64.9004V64.7656C35.4766 64.3086 35.543 63.8848 35.6758 63.4941C35.8086 63.0996 36 62.7578 36.25 62.4688C36.5039 62.1758 36.8125 61.9492 37.1758 61.7891C37.543 61.625 37.957 61.543 38.418 61.543C38.8828 61.543 39.2969 61.625 39.6602 61.7891C40.0273 61.9492 40.3379 62.1758 40.5918 62.4688C40.8457 62.7578 41.0391 63.0996 41.1719 63.4941C41.3047 63.8848 41.3711 64.3086 41.3711 64.7656V64.9004C41.3711 65.3574 41.3047 65.7812 41.1719 66.1719C41.0391 66.5625 40.8457 66.9043 40.5918 67.1973C40.3379 67.4863 40.0293 67.7129 39.666 67.877C39.3027 68.0371 38.8906 68.1172 38.4297 68.1172C37.9648 68.1172 37.5488 68.0371 37.1816 67.877C36.8184 67.7129 36.5098 67.4863 36.2559 67.1973C36.002 66.9043 35.8086 66.5625 35.6758 66.1719C35.543 65.7812 35.4766 65.3574 35.4766 64.9004ZM36.8887 64.7656V64.9004C36.8887 65.1855 36.918 65.4551 36.9766 65.709C37.0352 65.9629 37.127 66.1855 37.252 66.377C37.377 66.5684 37.5371 66.7188 37.7324 66.8281C37.9277 66.9375 38.1602 66.9922 38.4297 66.9922C38.6914 66.9922 38.918 66.9375 39.1094 66.8281C39.3047 66.7188 39.4648 66.5684 39.5898 66.377C39.7148 66.1855 39.8066 65.9629 39.8652 65.709C39.9277 65.4551 39.959 65.1855 39.959 64.9004V64.7656C39.959 64.4844 39.9277 64.2188 39.8652 63.9688C39.8066 63.7148 39.7129 63.4902 39.584 63.2949C39.459 63.0996 39.2988 62.9473 39.1035 62.8379C38.9121 62.7246 38.6836 62.668 38.418 62.668C38.1523 62.668 37.9219 62.7246 37.7266 62.8379C37.5352 62.9473 37.377 63.0996 37.252 63.2949C37.127 63.4902 37.0352 63.7148 36.9766 63.9688C36.918 64.2188 36.8887 64.4844 36.8887 64.7656ZM45.4609 61.6602V62.6914H41.8867V61.6602H45.4609ZM42.918 60.1074H44.3301V66.248C44.3301 66.4434 44.3574 66.5938 44.4121 66.6992C44.4707 66.8008 44.5508 66.8691 44.6523 66.9043C44.7539 66.9395 44.873 66.957 45.0098 66.957C45.1074 66.957 45.2012 66.9512 45.291 66.9395C45.3809 66.9277 45.4531 66.916 45.5078 66.9043L45.5137 67.9824C45.3965 68.0176 45.2598 68.0488 45.1035 68.0762C44.9512 68.1035 44.7754 68.1172 44.5762 68.1172C44.252 68.1172 43.9648 68.0605 43.7148 67.9473C43.4648 67.8301 43.2695 67.6406 43.1289 67.3789C42.9883 67.1172 42.918 66.7695 42.918 66.3359V60.1074ZM50.125 66.7285V63.7051C50.125 63.4785 50.084 63.2832 50.002 63.1191C49.9199 62.9551 49.7949 62.8281 49.627 62.7383C49.4629 62.6484 49.2559 62.6035 49.0059 62.6035C48.7754 62.6035 48.5762 62.6426 48.4082 62.7207C48.2402 62.7988 48.1094 62.9043 48.0156 63.0371C47.9219 63.1699 47.875 63.3203 47.875 63.4883H46.4688C46.4688 63.2383 46.5293 62.9961 46.6504 62.7617C46.7715 62.5273 46.9473 62.3184 47.1777 62.1348C47.4082 61.9512 47.6836 61.8066 48.0039 61.7012C48.3242 61.5957 48.6836 61.543 49.082 61.543C49.5586 61.543 49.9805 61.623 50.3477 61.7832C50.7188 61.9434 51.0098 62.1855 51.2207 62.5098C51.4355 62.8301 51.543 63.2324 51.543 63.7168V66.5352C51.543 66.8242 51.5625 67.084 51.6016 67.3145C51.6445 67.541 51.7051 67.7383 51.7832 67.9062V68H50.3359C50.2695 67.8477 50.2168 67.6543 50.1777 67.4199C50.1426 67.1816 50.125 66.9512 50.125 66.7285ZM50.3301 64.1445L50.3418 65.0176H49.3281C49.0664 65.0176 48.8359 65.043 48.6367 65.0938C48.4375 65.1406 48.2715 65.2109 48.1387 65.3047C48.0059 65.3984 47.9062 65.5117 47.8398 65.6445C47.7734 65.7773 47.7402 65.9277 47.7402 66.0957C47.7402 66.2637 47.7793 66.418 47.8574 66.5586C47.9355 66.6953 48.0488 66.8027 48.1973 66.8809C48.3496 66.959 48.5332 66.998 48.748 66.998C49.0371 66.998 49.2891 66.9395 49.5039 66.8223C49.7227 66.7012 49.8945 66.5547 50.0195 66.3828C50.1445 66.207 50.2109 66.041 50.2188 65.8848L50.6758 66.5117C50.6289 66.6719 50.5488 66.8438 50.4355 67.0273C50.3223 67.2109 50.1738 67.3867 49.9902 67.5547C49.8105 67.7188 49.5938 67.8535 49.3398 67.959C49.0898 68.0645 48.8008 68.1172 48.4727 68.1172C48.0586 68.1172 47.6895 68.0352 47.3652 67.8711C47.041 67.7031 46.7871 67.4785 46.6035 67.1973C46.4199 66.9121 46.3281 66.5898 46.3281 66.2305C46.3281 65.8945 46.3906 65.5977 46.5156 65.3398C46.6445 65.0781 46.832 64.8594 47.0781 64.6836C47.3281 64.5078 47.6328 64.375 47.9922 64.2852C48.3516 64.1914 48.7617 64.1445 49.2227 64.1445H50.3301ZM54.5312 59V68H53.1133V59H54.5312ZM61.6562 66.9922C61.8867 66.9922 62.0938 66.9473 62.2773 66.8574C62.4648 66.7637 62.6152 66.6348 62.7285 66.4707C62.8457 66.3066 62.9102 66.1172 62.9219 65.9023H64.252C64.2441 66.3125 64.123 66.6855 63.8887 67.0215C63.6543 67.3574 63.3438 67.625 62.957 67.8242C62.5703 68.0195 62.1426 68.1172 61.6738 68.1172C61.1895 68.1172 60.7676 68.0352 60.4082 67.8711C60.0488 67.7031 59.75 67.4727 59.5117 67.1797C59.2734 66.8867 59.0938 66.5488 58.9727 66.166C58.8555 65.7832 58.7969 65.373 58.7969 64.9355V64.7305C58.7969 64.293 58.8555 63.8828 58.9727 63.5C59.0938 63.1133 59.2734 62.7734 59.5117 62.4805C59.75 62.1875 60.0488 61.959 60.4082 61.7949C60.7676 61.627 61.1875 61.543 61.668 61.543C62.1758 61.543 62.6211 61.6445 63.0039 61.8477C63.3867 62.0469 63.6875 62.3262 63.9062 62.6855C64.1289 63.041 64.2441 63.4551 64.252 63.9277H62.9219C62.9102 63.6934 62.8516 63.4824 62.7461 63.2949C62.6445 63.1035 62.5 62.9512 62.3125 62.8379C62.1289 62.7246 61.9082 62.668 61.6504 62.668C61.3652 62.668 61.1289 62.7266 60.9414 62.8438C60.7539 62.957 60.6074 63.1133 60.502 63.3125C60.3965 63.5078 60.3203 63.7285 60.2734 63.9746C60.2305 64.2168 60.209 64.4688 60.209 64.7305V64.9355C60.209 65.1973 60.2305 65.4512 60.2734 65.6973C60.3164 65.9434 60.3906 66.1641 60.4961 66.3594C60.6055 66.5508 60.7539 66.7051 60.9414 66.8223C61.1289 66.9355 61.3672 66.9922 61.6562 66.9922ZM66.8477 59V68H65.4297V59H66.8477ZM69.9062 61.6602V68H68.4883V61.6602H69.9062ZM68.3945 59.9961C68.3945 59.7812 68.4648 59.6035 68.6055 59.4629C68.75 59.3184 68.9492 59.2461 69.2031 59.2461C69.4531 59.2461 69.6504 59.3184 69.7949 59.4629C69.9395 59.6035 70.0117 59.7812 70.0117 59.9961C70.0117 60.207 69.9395 60.3828 69.7949 60.5234C69.6504 60.6641 69.4531 60.7344 69.2031 60.7344C68.9492 60.7344 68.75 60.6641 68.6055 60.5234C68.4648 60.3828 68.3945 60.207 68.3945 59.9961ZM74.248 68.1172C73.7793 68.1172 73.3555 68.041 72.9766 67.8887C72.6016 67.7324 72.2812 67.5156 72.0156 67.2383C71.7539 66.9609 71.5527 66.6348 71.4121 66.2598C71.2715 65.8848 71.2012 65.4805 71.2012 65.0469V64.8125C71.2012 64.3164 71.2734 63.8672 71.418 63.4648C71.5625 63.0625 71.7637 62.7188 72.0215 62.4336C72.2793 62.1445 72.584 61.9238 72.9355 61.7715C73.2871 61.6191 73.668 61.543 74.0781 61.543C74.5312 61.543 74.9277 61.6191 75.2676 61.7715C75.6074 61.9238 75.8887 62.1387 76.1113 62.416C76.3379 62.6895 76.5059 63.0156 76.6152 63.3945C76.7285 63.7734 76.7852 64.1914 76.7852 64.6484V65.252H71.8867V64.2383H75.3906V64.127C75.3828 63.873 75.332 63.6348 75.2383 63.4121C75.1484 63.1895 75.0098 63.0098 74.8223 62.873C74.6348 62.7363 74.3848 62.668 74.0723 62.668C73.8379 62.668 73.6289 62.7188 73.4453 62.8203C73.2656 62.918 73.1152 63.0605 72.9941 63.248C72.873 63.4355 72.7793 63.6621 72.7129 63.9277C72.6504 64.1895 72.6191 64.4844 72.6191 64.8125V65.0469C72.6191 65.3242 72.6562 65.582 72.7305 65.8203C72.8086 66.0547 72.9219 66.2598 73.0703 66.4355C73.2188 66.6113 73.3984 66.75 73.6094 66.8516C73.8203 66.9492 74.0605 66.998 74.3301 66.998C74.6699 66.998 74.9727 66.9297 75.2383 66.793C75.5039 66.6562 75.7344 66.4629 75.9297 66.2129L76.6738 66.9336C76.5371 67.1328 76.3594 67.3242 76.1406 67.5078C75.9219 67.6875 75.6543 67.834 75.3379 67.9473C75.0254 68.0605 74.6621 68.1172 74.248 68.1172ZM79.2871 63.0137V68H77.875V61.6602H79.2051L79.2871 63.0137ZM79.0352 64.5957L78.5781 64.5898C78.582 64.1406 78.6445 63.7285 78.7656 63.3535C78.8906 62.9785 79.0625 62.6562 79.2812 62.3867C79.5039 62.1172 79.7695 61.9102 80.0781 61.7656C80.3867 61.6172 80.7305 61.543 81.1094 61.543C81.4141 61.543 81.6895 61.5859 81.9355 61.6719C82.1855 61.7539 82.3984 61.8887 82.5742 62.0762C82.7539 62.2637 82.8906 62.5078 82.9844 62.8086C83.0781 63.1055 83.125 63.4707 83.125 63.9043V68H81.707V63.8984C81.707 63.5938 81.6621 63.3535 81.5723 63.1777C81.4863 62.998 81.3594 62.8711 81.1914 62.7969C81.0273 62.7188 80.8223 62.6797 80.5762 62.6797C80.334 62.6797 80.1172 62.7305 79.9258 62.832C79.7344 62.9336 79.5723 63.0723 79.4395 63.248C79.3105 63.4238 79.2109 63.627 79.1406 63.8574C79.0703 64.0879 79.0352 64.334 79.0352 64.5957ZM87.4727 61.6602V62.6914H83.8984V61.6602H87.4727ZM84.9297 60.1074H86.3418V66.248C86.3418 66.4434 86.3691 66.5938 86.4238 66.6992C86.4824 66.8008 86.5625 66.8691 86.6641 66.9043C86.7656 66.9395 86.8848 66.957 87.0215 66.957C87.1191 66.957 87.2129 66.9512 87.3027 66.9395C87.3926 66.9277 87.4648 66.916 87.5195 66.9043L87.5254 67.9824C87.4082 68.0176 87.2715 68.0488 87.1152 68.0762C86.9629 68.1035 86.7871 68.1172 86.5879 68.1172C86.2637 68.1172 85.9766 68.0605 85.7266 67.9473C85.4766 67.8301 85.2812 67.6406 85.1406 67.3789C85 67.1172 84.9297 66.7695 84.9297 66.3359V60.1074Z" fill="#747688"/>
<path d="M49.3047 47.3359H50.5078C50.8932 47.3359 51.2109 47.2708 51.4609 47.1406C51.7109 47.0052 51.8958 46.8177 52.0156 46.5781C52.1406 46.3333 52.2031 46.0495 52.2031 45.7266C52.2031 45.4349 52.1458 45.1771 52.0312 44.9531C51.9219 44.724 51.7526 44.5469 51.5234 44.4219C51.2943 44.2917 51.0052 44.2266 50.6562 44.2266C50.3802 44.2266 50.125 44.2812 49.8906 44.3906C49.6562 44.5 49.4688 44.6536 49.3281 44.8516C49.1875 45.0495 49.1172 45.2891 49.1172 45.5703H46.8594C46.8594 44.9453 47.026 44.401 47.3594 43.9375C47.6979 43.474 48.151 43.112 48.7188 42.8516C49.2865 42.5911 49.9115 42.4609 50.5938 42.4609C51.3646 42.4609 52.0391 42.5859 52.6172 42.8359C53.1953 43.0807 53.6458 43.4427 53.9688 43.9219C54.2917 44.401 54.4531 44.9948 54.4531 45.7031C54.4531 46.0625 54.3698 46.4115 54.2031 46.75C54.0365 47.0833 53.7969 47.3854 53.4844 47.6562C53.1771 47.9219 52.8021 48.1354 52.3594 48.2969C51.9167 48.4531 51.4193 48.5312 50.8672 48.5312H49.3047V47.3359ZM49.3047 49.0469V47.8828H50.8672C51.487 47.8828 52.0312 47.9531 52.5 48.0938C52.9688 48.2344 53.362 48.4375 53.6797 48.7031C53.9974 48.9635 54.237 49.2734 54.3984 49.6328C54.5599 49.987 54.6406 50.3802 54.6406 50.8125C54.6406 51.3438 54.5391 51.8177 54.3359 52.2344C54.1328 52.6458 53.8464 52.9948 53.4766 53.2812C53.112 53.5677 52.6849 53.7865 52.1953 53.9375C51.7057 54.0833 51.1719 54.1562 50.5938 54.1562C50.1146 54.1562 49.6432 54.0911 49.1797 53.9609C48.7214 53.8255 48.3047 53.625 47.9297 53.3594C47.5599 53.0885 47.263 52.75 47.0391 52.3438C46.8203 51.9323 46.7109 51.4453 46.7109 50.8828H48.9688C48.9688 51.1745 49.0417 51.4349 49.1875 51.6641C49.3333 51.8932 49.5339 52.0729 49.7891 52.2031C50.0495 52.3333 50.3385 52.3984 50.6562 52.3984C51.0156 52.3984 51.3229 52.3333 51.5781 52.2031C51.8385 52.0677 52.0365 51.8802 52.1719 51.6406C52.3125 51.3958 52.3828 51.112 52.3828 50.7891C52.3828 50.3724 52.3073 50.0391 52.1562 49.7891C52.0052 49.5339 51.7891 49.3464 51.5078 49.2266C51.2266 49.1068 50.8932 49.0469 50.5078 49.0469H49.3047ZM63.8438 47.3125V49.2812C63.8438 50.1354 63.7526 50.8724 63.5703 51.4922C63.388 52.1068 63.125 52.612 62.7812 53.0078C62.4427 53.3984 62.0391 53.6875 61.5703 53.875C61.1016 54.0625 60.5807 54.1562 60.0078 54.1562C59.5495 54.1562 59.1224 54.099 58.7266 53.9844C58.3307 53.8646 57.974 53.6797 57.6562 53.4297C57.3438 53.1797 57.0729 52.8646 56.8438 52.4844C56.6198 52.099 56.4479 51.6406 56.3281 51.1094C56.2083 50.5781 56.1484 49.9688 56.1484 49.2812V47.3125C56.1484 46.4583 56.2396 45.7266 56.4219 45.1172C56.6094 44.5026 56.8724 44 57.2109 43.6094C57.5547 43.2188 57.9609 42.9323 58.4297 42.75C58.8984 42.5625 59.4193 42.4688 59.9922 42.4688C60.4505 42.4688 60.875 42.5286 61.2656 42.6484C61.6615 42.763 62.0182 42.9427 62.3359 43.1875C62.6536 43.4323 62.9245 43.7474 63.1484 44.1328C63.3724 44.513 63.5443 44.9688 63.6641 45.5C63.7839 46.026 63.8438 46.6302 63.8438 47.3125ZM61.5859 49.5781V47.0078C61.5859 46.5964 61.5625 46.237 61.5156 45.9297C61.474 45.6224 61.4089 45.362 61.3203 45.1484C61.2318 44.9297 61.1224 44.7526 60.9922 44.6172C60.862 44.4818 60.7135 44.3828 60.5469 44.3203C60.3802 44.2578 60.1953 44.2266 59.9922 44.2266C59.737 44.2266 59.5104 44.276 59.3125 44.375C59.1198 44.474 58.9557 44.6328 58.8203 44.8516C58.6849 45.0651 58.5807 45.3516 58.5078 45.7109C58.4401 46.0651 58.4062 46.4974 58.4062 47.0078V49.5781C58.4062 49.9896 58.4271 50.3516 58.4688 50.6641C58.5156 50.9766 58.5833 51.2448 58.6719 51.4688C58.7656 51.6875 58.875 51.8672 59 52.0078C59.1302 52.1432 59.2786 52.2422 59.4453 52.3047C59.6172 52.3672 59.8047 52.3984 60.0078 52.3984C60.2578 52.3984 60.4792 52.349 60.6719 52.25C60.8698 52.1458 61.0365 51.9844 61.1719 51.7656C61.3125 51.5417 61.4167 51.25 61.4844 50.8906C61.5521 50.5312 61.5859 50.0938 61.5859 49.5781ZM73.0312 47.3125V49.2812C73.0312 50.1354 72.9401 50.8724 72.7578 51.4922C72.5755 52.1068 72.3125 52.612 71.9688 53.0078C71.6302 53.3984 71.2266 53.6875 70.7578 53.875C70.2891 54.0625 69.7682 54.1562 69.1953 54.1562C68.737 54.1562 68.3099 54.099 67.9141 53.9844C67.5182 53.8646 67.1615 53.6797 66.8438 53.4297C66.5312 53.1797 66.2604 52.8646 66.0312 52.4844C65.8073 52.099 65.6354 51.6406 65.5156 51.1094C65.3958 50.5781 65.3359 49.9688 65.3359 49.2812V47.3125C65.3359 46.4583 65.4271 45.7266 65.6094 45.1172C65.7969 44.5026 66.0599 44 66.3984 43.6094C66.7422 43.2188 67.1484 42.9323 67.6172 42.75C68.0859 42.5625 68.6068 42.4688 69.1797 42.4688C69.638 42.4688 70.0625 42.5286 70.4531 42.6484C70.849 42.763 71.2057 42.9427 71.5234 43.1875C71.8411 43.4323 72.112 43.7474 72.3359 44.1328C72.5599 44.513 72.7318 44.9688 72.8516 45.5C72.9714 46.026 73.0312 46.6302 73.0312 47.3125ZM70.7734 49.5781V47.0078C70.7734 46.5964 70.75 46.237 70.7031 45.9297C70.6615 45.6224 70.5964 45.362 70.5078 45.1484C70.4193 44.9297 70.3099 44.7526 70.1797 44.6172C70.0495 44.4818 69.901 44.3828 69.7344 44.3203C69.5677 44.2578 69.3828 44.2266 69.1797 44.2266C68.9245 44.2266 68.6979 44.276 68.5 44.375C68.3073 44.474 68.1432 44.6328 68.0078 44.8516C67.8724 45.0651 67.7682 45.3516 67.6953 45.7109C67.6276 46.0651 67.5938 46.4974 67.5938 47.0078V49.5781C67.5938 49.9896 67.6146 50.3516 67.6562 50.6641C67.7031 50.9766 67.7708 51.2448 67.8594 51.4688C67.9531 51.6875 68.0625 51.8672 68.1875 52.0078C68.3177 52.1432 68.4661 52.2422 68.6328 52.3047C68.8047 52.3672 68.9922 52.3984 69.1953 52.3984C69.4453 52.3984 69.6667 52.349 69.8594 52.25C70.0573 52.1458 70.224 51.9844 70.3594 51.7656C70.5 51.5417 70.6042 51.25 70.6719 50.8906C70.7396 50.5312 70.7734 50.0938 70.7734 49.5781Z" fill="#EB7100"/>
<path d="M23.5664 121.283C23.5664 121.143 23.5312 121.016 23.4609 120.902C23.3906 120.785 23.2559 120.68 23.0566 120.586C22.8613 120.492 22.5723 120.406 22.1895 120.328C21.8535 120.254 21.5449 120.166 21.2637 120.064C20.9863 119.959 20.748 119.832 20.5488 119.684C20.3496 119.535 20.1953 119.359 20.0859 119.156C19.9766 118.953 19.9219 118.719 19.9219 118.453C19.9219 118.195 19.9785 117.951 20.0918 117.721C20.2051 117.49 20.3672 117.287 20.5781 117.111C20.7891 116.936 21.0449 116.797 21.3457 116.695C21.6504 116.594 21.9902 116.543 22.3652 116.543C22.8965 116.543 23.3516 116.633 23.7305 116.812C24.1133 116.988 24.4062 117.229 24.6094 117.533C24.8125 117.834 24.9141 118.174 24.9141 118.553H23.502C23.502 118.385 23.459 118.229 23.373 118.084C23.291 117.936 23.166 117.816 22.998 117.727C22.8301 117.633 22.6191 117.586 22.3652 117.586C22.123 117.586 21.9219 117.625 21.7617 117.703C21.6055 117.777 21.4883 117.875 21.4102 117.996C21.3359 118.117 21.2988 118.25 21.2988 118.395C21.2988 118.5 21.3184 118.596 21.3574 118.682C21.4004 118.764 21.4707 118.84 21.5684 118.91C21.666 118.977 21.7988 119.039 21.9668 119.098C22.1387 119.156 22.3535 119.213 22.6113 119.268C23.0957 119.369 23.5117 119.5 23.8594 119.66C24.2109 119.816 24.4805 120.02 24.668 120.27C24.8555 120.516 24.9492 120.828 24.9492 121.207C24.9492 121.488 24.8887 121.746 24.7676 121.98C24.6504 122.211 24.4785 122.412 24.252 122.584C24.0254 122.752 23.7539 122.883 23.4375 122.977C23.125 123.07 22.7734 123.117 22.3828 123.117C21.8086 123.117 21.3223 123.016 20.9238 122.812C20.5254 122.605 20.2227 122.342 20.0156 122.021C19.8125 121.697 19.7109 121.361 19.7109 121.014H21.0762C21.0918 121.275 21.1641 121.484 21.293 121.641C21.4258 121.793 21.5898 121.904 21.7852 121.975C21.9844 122.041 22.1895 122.074 22.4004 122.074C22.6543 122.074 22.8672 122.041 23.0391 121.975C23.2109 121.904 23.3418 121.811 23.4316 121.693C23.5215 121.572 23.5664 121.436 23.5664 121.283ZM28.9805 123.117C28.5117 123.117 28.0879 123.041 27.709 122.889C27.334 122.732 27.0137 122.516 26.748 122.238C26.4863 121.961 26.2852 121.635 26.1445 121.26C26.0039 120.885 25.9336 120.48 25.9336 120.047V119.812C25.9336 119.316 26.0059 118.867 26.1504 118.465C26.2949 118.062 26.4961 117.719 26.7539 117.434C27.0117 117.145 27.3164 116.924 27.668 116.771C28.0195 116.619 28.4004 116.543 28.8105 116.543C29.2637 116.543 29.6602 116.619 30 116.771C30.3398 116.924 30.6211 117.139 30.8438 117.416C31.0703 117.689 31.2383 118.016 31.3477 118.395C31.4609 118.773 31.5176 119.191 31.5176 119.648V120.252H26.6191V119.238H30.123V119.127C30.1152 118.873 30.0645 118.635 29.9707 118.412C29.8809 118.189 29.7422 118.01 29.5547 117.873C29.3672 117.736 29.1172 117.668 28.8047 117.668C28.5703 117.668 28.3613 117.719 28.1777 117.82C27.998 117.918 27.8477 118.061 27.7266 118.248C27.6055 118.436 27.5117 118.662 27.4453 118.928C27.3828 119.189 27.3516 119.484 27.3516 119.812V120.047C27.3516 120.324 27.3887 120.582 27.4629 120.82C27.541 121.055 27.6543 121.26 27.8027 121.436C27.9512 121.611 28.1309 121.75 28.3418 121.852C28.5527 121.949 28.793 121.998 29.0625 121.998C29.4023 121.998 29.7051 121.93 29.9707 121.793C30.2363 121.656 30.4668 121.463 30.6621 121.213L31.4062 121.934C31.2695 122.133 31.0918 122.324 30.873 122.508C30.6543 122.688 30.3867 122.834 30.0703 122.947C29.7578 123.061 29.3945 123.117 28.9805 123.117ZM34.0371 117.867V123H32.625V116.66H33.9727L34.0371 117.867ZM35.9766 116.619L35.9648 117.932C35.8789 117.916 35.7852 117.904 35.6836 117.896C35.5859 117.889 35.4883 117.885 35.3906 117.885C35.1484 117.885 34.9355 117.92 34.752 117.99C34.5684 118.057 34.4141 118.154 34.2891 118.283C34.168 118.408 34.0742 118.561 34.0078 118.74C33.9414 118.92 33.9023 119.121 33.8906 119.344L33.5684 119.367C33.5684 118.969 33.6074 118.6 33.6855 118.26C33.7637 117.92 33.8809 117.621 34.0371 117.363C34.1973 117.105 34.3965 116.904 34.6348 116.76C34.877 116.615 35.1562 116.543 35.4727 116.543C35.5586 116.543 35.6504 116.551 35.748 116.566C35.8496 116.582 35.9258 116.6 35.9766 116.619ZM39.0293 121.881L40.582 116.66H42.0469L39.8438 123H38.9297L39.0293 121.881ZM37.8398 116.66L39.4219 121.904L39.498 123H38.584L36.3691 116.66H37.8398ZM44.4316 116.66V123H43.0137V116.66H44.4316ZM42.9199 114.996C42.9199 114.781 42.9902 114.604 43.1309 114.463C43.2754 114.318 43.4746 114.246 43.7285 114.246C43.9785 114.246 44.1758 114.318 44.3203 114.463C44.4648 114.604 44.5371 114.781 44.5371 114.996C44.5371 115.207 44.4648 115.383 44.3203 115.523C44.1758 115.664 43.9785 115.734 43.7285 115.734C43.4746 115.734 43.2754 115.664 43.1309 115.523C42.9902 115.383 42.9199 115.207 42.9199 114.996ZM48.5684 121.992C48.7988 121.992 49.0059 121.947 49.1895 121.857C49.377 121.764 49.5273 121.635 49.6406 121.471C49.7578 121.307 49.8223 121.117 49.834 120.902H51.1641C51.1562 121.312 51.0352 121.686 50.8008 122.021C50.5664 122.357 50.2559 122.625 49.8691 122.824C49.4824 123.02 49.0547 123.117 48.5859 123.117C48.1016 123.117 47.6797 123.035 47.3203 122.871C46.9609 122.703 46.6621 122.473 46.4238 122.18C46.1855 121.887 46.0059 121.549 45.8848 121.166C45.7676 120.783 45.709 120.373 45.709 119.936V119.73C45.709 119.293 45.7676 118.883 45.8848 118.5C46.0059 118.113 46.1855 117.773 46.4238 117.48C46.6621 117.188 46.9609 116.959 47.3203 116.795C47.6797 116.627 48.0996 116.543 48.5801 116.543C49.0879 116.543 49.5332 116.645 49.916 116.848C50.2988 117.047 50.5996 117.326 50.8184 117.686C51.041 118.041 51.1562 118.455 51.1641 118.928H49.834C49.8223 118.693 49.7637 118.482 49.6582 118.295C49.5566 118.104 49.4121 117.951 49.2246 117.838C49.041 117.725 48.8203 117.668 48.5625 117.668C48.2773 117.668 48.041 117.727 47.8535 117.844C47.666 117.957 47.5195 118.113 47.4141 118.312C47.3086 118.508 47.2324 118.729 47.1855 118.975C47.1426 119.217 47.1211 119.469 47.1211 119.73V119.936C47.1211 120.197 47.1426 120.451 47.1855 120.697C47.2285 120.943 47.3027 121.164 47.4082 121.359C47.5176 121.551 47.666 121.705 47.8535 121.822C48.041 121.936 48.2793 121.992 48.5684 121.992ZM55.043 123.117C54.5742 123.117 54.1504 123.041 53.7715 122.889C53.3965 122.732 53.0762 122.516 52.8105 122.238C52.5488 121.961 52.3477 121.635 52.207 121.26C52.0664 120.885 51.9961 120.48 51.9961 120.047V119.812C51.9961 119.316 52.0684 118.867 52.2129 118.465C52.3574 118.062 52.5586 117.719 52.8164 117.434C53.0742 117.145 53.3789 116.924 53.7305 116.771C54.082 116.619 54.4629 116.543 54.873 116.543C55.3262 116.543 55.7227 116.619 56.0625 116.771C56.4023 116.924 56.6836 117.139 56.9062 117.416C57.1328 117.689 57.3008 118.016 57.4102 118.395C57.5234 118.773 57.5801 119.191 57.5801 119.648V120.252H52.6816V119.238H56.1855V119.127C56.1777 118.873 56.127 118.635 56.0332 118.412C55.9434 118.189 55.8047 118.01 55.6172 117.873C55.4297 117.736 55.1797 117.668 54.8672 117.668C54.6328 117.668 54.4238 117.719 54.2402 117.82C54.0605 117.918 53.9102 118.061 53.7891 118.248C53.668 118.436 53.5742 118.662 53.5078 118.928C53.4453 119.189 53.4141 119.484 53.4141 119.812V120.047C53.4141 120.324 53.4512 120.582 53.5254 120.82C53.6035 121.055 53.7168 121.26 53.8652 121.436C54.0137 121.611 54.1934 121.75 54.4043 121.852C54.6152 121.949 54.8555 121.998 55.125 121.998C55.4648 121.998 55.7676 121.93 56.0332 121.793C56.2988 121.656 56.5293 121.463 56.7246 121.213L57.4688 121.934C57.332 122.133 57.1543 122.324 56.9355 122.508C56.7168 122.688 56.4492 122.834 56.1328 122.947C55.8203 123.061 55.457 123.117 55.043 123.117ZM64.2598 121.992C64.4902 121.992 64.6973 121.947 64.8809 121.857C65.0684 121.764 65.2188 121.635 65.332 121.471C65.4492 121.307 65.5137 121.117 65.5254 120.902H66.8555C66.8477 121.312 66.7266 121.686 66.4922 122.021C66.2578 122.357 65.9473 122.625 65.5605 122.824C65.1738 123.02 64.7461 123.117 64.2773 123.117C63.793 123.117 63.3711 123.035 63.0117 122.871C62.6523 122.703 62.3535 122.473 62.1152 122.18C61.877 121.887 61.6973 121.549 61.5762 121.166C61.459 120.783 61.4004 120.373 61.4004 119.936V119.73C61.4004 119.293 61.459 118.883 61.5762 118.5C61.6973 118.113 61.877 117.773 62.1152 117.48C62.3535 117.188 62.6523 116.959 63.0117 116.795C63.3711 116.627 63.791 116.543 64.2715 116.543C64.7793 116.543 65.2246 116.645 65.6074 116.848C65.9902 117.047 66.291 117.326 66.5098 117.686C66.7324 118.041 66.8477 118.455 66.8555 118.928H65.5254C65.5137 118.693 65.4551 118.482 65.3496 118.295C65.248 118.104 65.1035 117.951 64.916 117.838C64.7324 117.725 64.5117 117.668 64.2539 117.668C63.9688 117.668 63.7324 117.727 63.5449 117.844C63.3574 117.957 63.2109 118.113 63.1055 118.312C63 118.508 62.9238 118.729 62.877 118.975C62.834 119.217 62.8125 119.469 62.8125 119.73V119.936C62.8125 120.197 62.834 120.451 62.877 120.697C62.9199 120.943 62.9941 121.164 63.0996 121.359C63.209 121.551 63.3574 121.705 63.5449 121.822C63.7324 121.936 63.9707 121.992 64.2598 121.992ZM69.334 114V123H67.9277V114H69.334ZM69.0879 119.596L68.6309 119.59C68.6348 119.152 68.6953 118.748 68.8125 118.377C68.9336 118.006 69.1016 117.684 69.3164 117.41C69.5352 117.133 69.7969 116.92 70.1016 116.771C70.4062 116.619 70.7441 116.543 71.1152 116.543C71.4277 116.543 71.709 116.586 71.959 116.672C72.2129 116.758 72.4316 116.896 72.6152 117.088C72.7988 117.275 72.9375 117.521 73.0312 117.826C73.1289 118.127 73.1777 118.494 73.1777 118.928V123H71.7598V118.916C71.7598 118.611 71.7148 118.369 71.625 118.189C71.5391 118.01 71.4121 117.881 71.2441 117.803C71.0762 117.721 70.8711 117.68 70.6289 117.68C70.375 117.68 70.1504 117.73 69.9551 117.832C69.7637 117.934 69.6035 118.072 69.4746 118.248C69.3457 118.424 69.248 118.627 69.1816 118.857C69.1191 119.088 69.0879 119.334 69.0879 119.596ZM78.1816 121.729V118.705C78.1816 118.479 78.1406 118.283 78.0586 118.119C77.9766 117.955 77.8516 117.828 77.6836 117.738C77.5195 117.648 77.3125 117.604 77.0625 117.604C76.832 117.604 76.6328 117.643 76.4648 117.721C76.2969 117.799 76.166 117.904 76.0723 118.037C75.9785 118.17 75.9316 118.32 75.9316 118.488H74.5254C74.5254 118.238 74.5859 117.996 74.707 117.762C74.8281 117.527 75.0039 117.318 75.2344 117.135C75.4648 116.951 75.7402 116.807 76.0605 116.701C76.3809 116.596 76.7402 116.543 77.1387 116.543C77.6152 116.543 78.0371 116.623 78.4043 116.783C78.7754 116.943 79.0664 117.186 79.2773 117.51C79.4922 117.83 79.5996 118.232 79.5996 118.717V121.535C79.5996 121.824 79.6191 122.084 79.6582 122.314C79.7012 122.541 79.7617 122.738 79.8398 122.906V123H78.3926C78.3262 122.848 78.2734 122.654 78.2344 122.42C78.1992 122.182 78.1816 121.951 78.1816 121.729ZM78.3867 119.145L78.3984 120.018H77.3848C77.123 120.018 76.8926 120.043 76.6934 120.094C76.4941 120.141 76.3281 120.211 76.1953 120.305C76.0625 120.398 75.9629 120.512 75.8965 120.645C75.8301 120.777 75.7969 120.928 75.7969 121.096C75.7969 121.264 75.8359 121.418 75.9141 121.559C75.9922 121.695 76.1055 121.803 76.2539 121.881C76.4062 121.959 76.5898 121.998 76.8047 121.998C77.0938 121.998 77.3457 121.939 77.5605 121.822C77.7793 121.701 77.9512 121.555 78.0762 121.383C78.2012 121.207 78.2676 121.041 78.2754 120.885L78.7324 121.512C78.6855 121.672 78.6055 121.844 78.4922 122.027C78.3789 122.211 78.2305 122.387 78.0469 122.555C77.8672 122.719 77.6504 122.854 77.3965 122.959C77.1465 123.064 76.8574 123.117 76.5293 123.117C76.1152 123.117 75.7461 123.035 75.4219 122.871C75.0977 122.703 74.8438 122.479 74.6602 122.197C74.4766 121.912 74.3848 121.59 74.3848 121.23C74.3848 120.895 74.4473 120.598 74.5723 120.34C74.7012 120.078 74.8887 119.859 75.1348 119.684C75.3848 119.508 75.6895 119.375 76.0488 119.285C76.4082 119.191 76.8184 119.145 77.2793 119.145H78.3867ZM82.4941 117.867V123H81.082V116.66H82.4297L82.4941 117.867ZM84.4336 116.619L84.4219 117.932C84.3359 117.916 84.2422 117.904 84.1406 117.896C84.043 117.889 83.9453 117.885 83.8477 117.885C83.6055 117.885 83.3926 117.92 83.209 117.99C83.0254 118.057 82.8711 118.154 82.7461 118.283C82.625 118.408 82.5312 118.561 82.4648 118.74C82.3984 118.92 82.3594 119.121 82.3477 119.344L82.0254 119.367C82.0254 118.969 82.0645 118.6 82.1426 118.26C82.2207 117.92 82.3379 117.621 82.4941 117.363C82.6543 117.105 82.8535 116.904 83.0918 116.76C83.334 116.615 83.6133 116.543 83.9297 116.543C84.0156 116.543 84.1074 116.551 84.2051 116.566C84.3066 116.582 84.3828 116.6 84.4336 116.619ZM89.2617 116.66H90.5449V122.824C90.5449 123.395 90.4238 123.879 90.1816 124.277C89.9395 124.676 89.6016 124.979 89.168 125.186C88.7344 125.396 88.2324 125.502 87.6621 125.502C87.4199 125.502 87.1504 125.467 86.8535 125.396C86.5605 125.326 86.2754 125.213 85.998 125.057C85.7246 124.904 85.4961 124.703 85.3125 124.453L85.9746 123.621C86.2012 123.891 86.4512 124.088 86.7246 124.213C86.998 124.338 87.2852 124.4 87.5859 124.4C87.9102 124.4 88.1855 124.34 88.4121 124.219C88.6426 124.102 88.8203 123.928 88.9453 123.697C89.0703 123.467 89.1328 123.186 89.1328 122.854V118.096L89.2617 116.66ZM84.9551 119.9V119.777C84.9551 119.297 85.0137 118.859 85.1309 118.465C85.248 118.066 85.416 117.725 85.6348 117.439C85.8535 117.15 86.1191 116.93 86.4316 116.777C86.7441 116.621 87.0977 116.543 87.4922 116.543C87.9023 116.543 88.252 116.617 88.541 116.766C88.834 116.914 89.0781 117.127 89.2734 117.404C89.4688 117.678 89.6211 118.006 89.7305 118.389C89.8438 118.768 89.9277 119.189 89.9824 119.654V120.047C89.9316 120.5 89.8457 120.914 89.7246 121.289C89.6035 121.664 89.4434 121.988 89.2441 122.262C89.0449 122.535 88.7988 122.746 88.5059 122.895C88.2168 123.043 87.875 123.117 87.4805 123.117C87.0938 123.117 86.7441 123.037 86.4316 122.877C86.123 122.717 85.8574 122.492 85.6348 122.203C85.416 121.914 85.248 121.574 85.1309 121.184C85.0137 120.789 84.9551 120.361 84.9551 119.9ZM86.3672 119.777V119.9C86.3672 120.189 86.3945 120.459 86.4492 120.709C86.5078 120.959 86.5957 121.18 86.7129 121.371C86.834 121.559 86.9863 121.707 87.1699 121.816C87.3574 121.922 87.5781 121.975 87.832 121.975C88.1641 121.975 88.4355 121.904 88.6465 121.764C88.8613 121.623 89.0254 121.434 89.1387 121.195C89.2559 120.953 89.3379 120.684 89.3848 120.387V119.326C89.3613 119.096 89.3125 118.881 89.2383 118.682C89.168 118.482 89.0723 118.309 88.9512 118.16C88.8301 118.008 88.6777 117.891 88.4941 117.809C88.3105 117.723 88.0938 117.68 87.8438 117.68C87.5898 117.68 87.3691 117.734 87.1816 117.844C86.9941 117.953 86.8398 118.104 86.7188 118.295C86.6016 118.486 86.5137 118.709 86.4551 118.963C86.3965 119.217 86.3672 119.488 86.3672 119.777ZM94.8047 123.117C94.3359 123.117 93.9121 123.041 93.5332 122.889C93.1582 122.732 92.8379 122.516 92.5723 122.238C92.3105 121.961 92.1094 121.635 91.9688 121.26C91.8281 120.885 91.7578 120.48 91.7578 120.047V119.812C91.7578 119.316 91.8301 118.867 91.9746 118.465C92.1191 118.062 92.3203 117.719 92.5781 117.434C92.8359 117.145 93.1406 116.924 93.4922 116.771C93.8438 116.619 94.2246 116.543 94.6348 116.543C95.0879 116.543 95.4844 116.619 95.8242 116.771C96.1641 116.924 96.4453 117.139 96.668 117.416C96.8945 117.689 97.0625 118.016 97.1719 118.395C97.2852 118.773 97.3418 119.191 97.3418 119.648V120.252H92.4434V119.238H95.9473V119.127C95.9395 118.873 95.8887 118.635 95.7949 118.412C95.7051 118.189 95.5664 118.01 95.3789 117.873C95.1914 117.736 94.9414 117.668 94.6289 117.668C94.3945 117.668 94.1855 117.719 94.002 117.82C93.8223 117.918 93.6719 118.061 93.5508 118.248C93.4297 118.436 93.3359 118.662 93.2695 118.928C93.207 119.189 93.1758 119.484 93.1758 119.812V120.047C93.1758 120.324 93.2129 120.582 93.2871 120.82C93.3652 121.055 93.4785 121.26 93.627 121.436C93.7754 121.611 93.9551 121.75 94.166 121.852C94.377 121.949 94.6172 121.998 94.8867 121.998C95.2266 121.998 95.5293 121.93 95.7949 121.793C96.0605 121.656 96.291 121.463 96.4863 121.213L97.2305 121.934C97.0938 122.133 96.916 122.324 96.6973 122.508C96.4785 122.688 96.2109 122.834 95.8945 122.947C95.582 123.061 95.2188 123.117 94.8047 123.117Z" fill="#747688"/>
<path d="M51.7422 107.242V109H43.9609V107.5L47.6406 103.555C48.0104 103.143 48.3021 102.781 48.5156 102.469C48.7292 102.151 48.8828 101.867 48.9766 101.617C49.0755 101.362 49.125 101.12 49.125 100.891C49.125 100.547 49.0677 100.253 48.9531 100.008C48.8385 99.7578 48.6693 99.5651 48.4453 99.4297C48.2266 99.2943 47.9557 99.2266 47.6328 99.2266C47.2891 99.2266 46.9922 99.3099 46.7422 99.4766C46.4974 99.6432 46.3099 99.875 46.1797 100.172C46.0547 100.469 45.9922 100.805 45.9922 101.18H43.7344C43.7344 100.503 43.8958 99.8828 44.2188 99.3203C44.5417 98.7526 44.9974 98.3021 45.5859 97.9688C46.1745 97.6302 46.8724 97.4609 47.6797 97.4609C48.4766 97.4609 49.1484 97.5911 49.6953 97.8516C50.2474 98.1068 50.6641 98.4766 50.9453 98.9609C51.2318 99.4401 51.375 100.013 51.375 100.68C51.375 101.055 51.3151 101.422 51.1953 101.781C51.0755 102.135 50.9036 102.49 50.6797 102.844C50.4609 103.193 50.1953 103.547 49.8828 103.906C49.5703 104.266 49.224 104.638 48.8438 105.023L46.8672 107.242H51.7422ZM57.3672 97.625H61.6094C62.4792 97.625 63.2266 97.7552 63.8516 98.0156C64.4818 98.276 64.9661 98.6615 65.3047 99.1719C65.6432 99.6823 65.8125 100.31 65.8125 101.055C65.8125 101.664 65.7083 102.188 65.5 102.625C65.2969 103.057 65.0078 103.419 64.6328 103.711C64.263 103.997 63.8281 104.227 63.3281 104.398L62.5859 104.789H58.8984L58.8828 102.961H61.625C62.0365 102.961 62.3776 102.888 62.6484 102.742C62.9193 102.596 63.1224 102.393 63.2578 102.133C63.3984 101.872 63.4688 101.57 63.4688 101.227C63.4688 100.862 63.401 100.547 63.2656 100.281C63.1302 100.016 62.9245 99.8125 62.6484 99.6719C62.3724 99.5312 62.026 99.4609 61.6094 99.4609H59.7109V109H57.3672V97.625ZM63.7266 109L61.1328 103.93L63.6094 103.914L66.2344 108.891V109H63.7266ZM72.0469 106.664C72.0469 106.503 72 106.357 71.9062 106.227C71.8125 106.096 71.638 105.977 71.3828 105.867C71.1328 105.753 70.7708 105.648 70.2969 105.555C69.8698 105.461 69.4714 105.344 69.1016 105.203C68.737 105.057 68.4193 104.883 68.1484 104.68C67.8828 104.477 67.6745 104.237 67.5234 103.961C67.3724 103.68 67.2969 103.359 67.2969 103C67.2969 102.646 67.3724 102.312 67.5234 102C67.6797 101.688 67.901 101.411 68.1875 101.172C68.4792 100.927 68.8333 100.737 69.25 100.602C69.6719 100.461 70.1458 100.391 70.6719 100.391C71.4062 100.391 72.0365 100.508 72.5625 100.742C73.0938 100.977 73.5 101.299 73.7812 101.711C74.0677 102.117 74.2109 102.581 74.2109 103.102H71.9609C71.9609 102.883 71.9141 102.688 71.8203 102.516C71.7318 102.339 71.5911 102.201 71.3984 102.102C71.2109 101.997 70.9661 101.945 70.6641 101.945C70.4141 101.945 70.1979 101.99 70.0156 102.078C69.8333 102.161 69.6927 102.276 69.5938 102.422C69.5 102.562 69.4531 102.719 69.4531 102.891C69.4531 103.021 69.4792 103.138 69.5312 103.242C69.5885 103.341 69.6797 103.432 69.8047 103.516C69.9297 103.599 70.0911 103.677 70.2891 103.75C70.4922 103.818 70.7422 103.88 71.0391 103.938C71.6484 104.062 72.1927 104.227 72.6719 104.43C73.151 104.628 73.5312 104.898 73.8125 105.242C74.0938 105.581 74.2344 106.026 74.2344 106.578C74.2344 106.953 74.151 107.297 73.9844 107.609C73.8177 107.922 73.5781 108.195 73.2656 108.43C72.9531 108.659 72.5781 108.839 72.1406 108.969C71.7083 109.094 71.2214 109.156 70.6797 109.156C69.8932 109.156 69.2266 109.016 68.6797 108.734C68.138 108.453 67.7266 108.096 67.4453 107.664C67.1693 107.227 67.0312 106.779 67.0312 106.32H69.1641C69.1745 106.628 69.2526 106.875 69.3984 107.062C69.5495 107.25 69.7396 107.385 69.9688 107.469C70.2031 107.552 70.4557 107.594 70.7266 107.594C71.0182 107.594 71.2604 107.555 71.4531 107.477C71.6458 107.393 71.7917 107.284 71.8906 107.148C71.9948 107.008 72.0469 106.846 72.0469 106.664Z" fill="#EB7100"/>
<path d="M64.8281 81.3525V83.877H54.1074V81.3525H64.8281ZM60.832 77.0449V88.4316H58.1143V77.0449H60.832Z" fill="black"/>
<rect x="16" width="85" height="29" rx="14.5" fill="#5669FF"/>
<path d="M39.881 17.125C39.838 17.5039 39.6408 17.8887 39.2892 18.2793C38.7423 18.9004 37.9767 19.2109 36.9923 19.2109C36.1798 19.2109 35.463 18.9492 34.842 18.4258C34.2209 17.9023 33.9103 17.0508 33.9103 15.8711C33.9103 14.7656 34.1896 13.918 34.7482 13.3281C35.3107 12.7383 36.0392 12.4434 36.9338 12.4434C37.465 12.4434 37.9435 12.543 38.3693 12.7422C38.7951 12.9414 39.1466 13.2559 39.424 13.6855C39.674 14.0645 39.8361 14.5039 39.9103 15.0039C39.9533 15.2969 39.9709 15.7188 39.963 16.2695H35.592C35.6154 16.9102 35.8166 17.3594 36.1955 17.6172C36.4259 17.7773 36.7033 17.8574 37.0275 17.8574C37.3713 17.8574 37.6505 17.7598 37.8654 17.5645C37.9826 17.459 38.0861 17.3125 38.1759 17.125H39.881ZM38.2287 15.168C38.2013 14.7266 38.0666 14.3926 37.8244 14.166C37.5861 13.9355 37.2892 13.8203 36.9338 13.8203C36.547 13.8203 36.2463 13.9414 36.0314 14.1836C35.8205 14.4258 35.6877 14.7539 35.633 15.168H38.2287ZM46.5434 19H44.4633L43.3617 17.084L42.2543 19H40.227L42.4066 15.7656L40.3207 12.625H42.3656L43.432 14.4766L44.475 12.625H46.4613L44.3637 15.7363L46.5434 19ZM47.5338 13.3047C47.9752 12.7422 48.733 12.4609 49.8073 12.4609C50.5065 12.4609 51.1276 12.5996 51.6705 12.877C52.2135 13.1543 52.485 13.6777 52.485 14.4473V17.377C52.485 17.5801 52.4889 17.8262 52.4967 18.1152C52.5084 18.334 52.5416 18.4824 52.5963 18.5605C52.651 18.6387 52.733 18.7031 52.8424 18.7539V19H51.026C50.9752 18.8711 50.9401 18.75 50.9205 18.6367C50.901 18.5234 50.8854 18.3945 50.8737 18.25C50.6432 18.5 50.3776 18.7129 50.0768 18.8887C49.7174 19.0957 49.3112 19.1992 48.858 19.1992C48.2799 19.1992 47.8014 19.0352 47.4225 18.707C47.0475 18.375 46.86 17.9062 46.86 17.3008C46.86 16.5156 47.1627 15.9473 47.7682 15.5957C48.1002 15.4043 48.5885 15.2676 49.233 15.1855L49.8014 15.1152C50.11 15.0762 50.3307 15.0273 50.4635 14.9688C50.7018 14.8672 50.8209 14.709 50.8209 14.4941C50.8209 14.2324 50.7291 14.0527 50.5455 13.9551C50.3659 13.8535 50.1002 13.8027 49.7487 13.8027C49.3541 13.8027 49.0748 13.9004 48.9108 14.0957C48.7936 14.2402 48.7155 14.4355 48.6764 14.6816H47.0651C47.1002 14.123 47.2565 13.6641 47.5338 13.3047ZM48.776 17.793C48.9323 17.9219 49.1237 17.9863 49.3502 17.9863C49.7096 17.9863 50.0397 17.8809 50.3405 17.6699C50.6452 17.459 50.8034 17.0742 50.8151 16.5156V15.8945C50.7096 15.9609 50.6022 16.0156 50.4928 16.0586C50.3873 16.0977 50.2409 16.1348 50.0534 16.1699L49.6784 16.2402C49.3268 16.3027 49.0748 16.3789 48.9225 16.4688C48.6647 16.6211 48.5358 16.8574 48.5358 17.1777C48.5358 17.4629 48.6159 17.668 48.776 17.793ZM57.3192 14.3711C57.1786 14.0625 56.9032 13.9082 56.493 13.9082C56.0165 13.9082 55.6962 14.0625 55.5321 14.3711C55.4423 14.5469 55.3973 14.8086 55.3973 15.1562V19H53.704V12.625H55.327V13.5566C55.5341 13.2246 55.7294 12.9883 55.913 12.8477C56.2372 12.5977 56.6571 12.4727 57.1727 12.4727C57.661 12.4727 58.0555 12.5801 58.3563 12.7949C58.5985 12.9941 58.7821 13.25 58.9071 13.5625C59.1259 13.1875 59.3973 12.9121 59.7216 12.7363C60.0653 12.5605 60.4481 12.4727 60.87 12.4727C61.1513 12.4727 61.4286 12.5273 61.702 12.6367C61.9755 12.7461 62.2235 12.9375 62.4462 13.2109C62.6259 13.4336 62.747 13.707 62.8095 14.0312C62.8485 14.2461 62.868 14.5605 62.868 14.9746L62.8563 19H61.1454V14.9336C61.1454 14.6914 61.1063 14.4922 61.0282 14.3359C60.8798 14.0391 60.6063 13.8906 60.2079 13.8906C59.747 13.8906 59.4286 14.082 59.2528 14.4648C59.163 14.668 59.118 14.9121 59.118 15.1973V19H57.4364V15.1973C57.4364 14.8184 57.3973 14.543 57.3192 14.3711ZM69.5187 13.2988C70.0343 13.8496 70.2921 14.6582 70.2921 15.7246C70.2921 16.8496 70.0382 17.707 69.5304 18.2969C69.0265 18.8867 68.3761 19.1816 67.5792 19.1816C67.0714 19.1816 66.6495 19.0547 66.3136 18.8008C66.13 18.6602 65.9503 18.4551 65.7745 18.1855V21.5137H64.1222V12.6133H65.7218V13.5566C65.9015 13.2793 66.0929 13.0605 66.296 12.9004C66.6671 12.6152 67.1085 12.4727 67.6202 12.4727C68.3663 12.4727 68.9991 12.748 69.5187 13.2988ZM68.5695 15.8066C68.5695 15.3145 68.4562 14.8789 68.2296 14.5C68.007 14.1211 67.6437 13.9316 67.1398 13.9316C66.5343 13.9316 66.1183 14.2188 65.8917 14.793C65.7745 15.0977 65.7159 15.4844 65.7159 15.9531C65.7159 16.6953 65.9132 17.2168 66.3077 17.5176C66.5421 17.6934 66.8195 17.7812 67.1398 17.7812C67.6046 17.7812 67.9581 17.6016 68.2003 17.2422C68.4464 16.8828 68.5695 16.4043 68.5695 15.8066ZM71.3002 10.3633H72.9701V19H71.3002V10.3633ZM79.8316 17.125C79.7887 17.5039 79.5914 17.8887 79.2398 18.2793C78.693 18.9004 77.9273 19.2109 76.943 19.2109C76.1305 19.2109 75.4137 18.9492 74.7926 18.4258C74.1715 17.9023 73.8609 17.0508 73.8609 15.8711C73.8609 14.7656 74.1402 13.918 74.6988 13.3281C75.2613 12.7383 75.9898 12.4434 76.8844 12.4434C77.4156 12.4434 77.8941 12.543 78.3199 12.7422C78.7457 12.9414 79.0973 13.2559 79.3746 13.6855C79.6246 14.0645 79.7867 14.5039 79.8609 15.0039C79.9039 15.2969 79.9215 15.7188 79.9137 16.2695H75.5426C75.566 16.9102 75.7672 17.3594 76.1461 17.6172C76.3766 17.7773 76.6539 17.8574 76.9781 17.8574C77.3219 17.8574 77.6012 17.7598 77.816 17.5645C77.9332 17.459 78.0367 17.3125 78.1266 17.125H79.8316ZM78.1793 15.168C78.152 14.7266 78.0172 14.3926 77.775 14.166C77.5367 13.9355 77.2398 13.8203 76.8844 13.8203C76.4977 13.8203 76.1969 13.9414 75.982 14.1836C75.7711 14.4258 75.6383 14.7539 75.5836 15.168H78.1793ZM80.7752 17.2539H82.5506V19H80.7752V17.2539Z" fill="white"/>
<path d="M2 140H116V169C116 171.209 114.209 173 112 173H6C3.79086 173 2 171.209 2 169V140Z" fill="#5669FF"/>
<path d="M31.2266 162.855C31.2266 162.762 31.2031 162.677 31.1562 162.602C31.1094 162.523 31.0195 162.453 30.8867 162.391C30.7565 162.328 30.5638 162.271 30.3086 162.219C30.0846 162.169 29.8789 162.111 29.6914 162.043C29.5065 161.973 29.3477 161.888 29.2148 161.789C29.082 161.69 28.9792 161.573 28.9062 161.438C28.8333 161.302 28.7969 161.146 28.7969 160.969C28.7969 160.797 28.8346 160.634 28.9102 160.48C28.9857 160.327 29.0938 160.191 29.2344 160.074C29.375 159.957 29.5456 159.865 29.7461 159.797C29.9492 159.729 30.1758 159.695 30.4258 159.695C30.7799 159.695 31.0833 159.755 31.3359 159.875C31.5911 159.992 31.7865 160.152 31.9219 160.355C32.0573 160.556 32.125 160.783 32.125 161.035H31.1836C31.1836 160.923 31.1549 160.819 31.0977 160.723C31.043 160.624 30.9596 160.544 30.8477 160.484C30.7357 160.422 30.5951 160.391 30.4258 160.391C30.2643 160.391 30.1302 160.417 30.0234 160.469C29.9193 160.518 29.8411 160.583 29.7891 160.664C29.7396 160.745 29.7148 160.833 29.7148 160.93C29.7148 161 29.7279 161.064 29.7539 161.121C29.7826 161.176 29.8294 161.227 29.8945 161.273C29.9596 161.318 30.0482 161.359 30.1602 161.398C30.2747 161.438 30.418 161.475 30.5898 161.512C30.9128 161.579 31.1901 161.667 31.4219 161.773C31.6562 161.878 31.8359 162.013 31.9609 162.18C32.0859 162.344 32.1484 162.552 32.1484 162.805C32.1484 162.992 32.1081 163.164 32.0273 163.32C31.9492 163.474 31.8346 163.608 31.6836 163.723C31.5326 163.835 31.3516 163.922 31.1406 163.984C30.9323 164.047 30.6979 164.078 30.4375 164.078C30.0547 164.078 29.7305 164.01 29.4648 163.875C29.1992 163.737 28.9974 163.561 28.8594 163.348C28.724 163.132 28.6562 162.908 28.6562 162.676H29.5664C29.5768 162.85 29.625 162.99 29.7109 163.094C29.7995 163.195 29.9089 163.27 30.0391 163.316C30.1719 163.361 30.3086 163.383 30.4492 163.383C30.6185 163.383 30.7604 163.361 30.875 163.316C30.9896 163.27 31.0768 163.207 31.1367 163.129C31.1966 163.048 31.2266 162.957 31.2266 162.855ZM35.5156 163.004V159.773H36.4609V164H35.5703L35.5156 163.004ZM35.6484 162.125L35.9648 162.117C35.9648 162.401 35.9336 162.663 35.8711 162.902C35.8086 163.139 35.7122 163.346 35.582 163.523C35.4518 163.698 35.2852 163.835 35.082 163.934C34.8789 164.03 34.6354 164.078 34.3516 164.078C34.1458 164.078 33.957 164.048 33.7852 163.988C33.6133 163.928 33.4648 163.836 33.3398 163.711C33.2174 163.586 33.1224 163.423 33.0547 163.223C32.987 163.022 32.9531 162.783 32.9531 162.504V159.773H33.8945V162.512C33.8945 162.665 33.9128 162.794 33.9492 162.898C33.9857 163 34.0352 163.082 34.0977 163.145C34.1602 163.207 34.2331 163.251 34.3164 163.277C34.3997 163.303 34.4883 163.316 34.582 163.316C34.8503 163.316 35.0612 163.264 35.2148 163.16C35.3711 163.053 35.4818 162.91 35.5469 162.73C35.6146 162.551 35.6484 162.349 35.6484 162.125ZM37.4297 158H38.3711V163.098L38.2812 164H37.4297V158ZM41.1289 161.848V161.93C41.1289 162.242 41.0938 162.53 41.0234 162.793C40.9557 163.053 40.8516 163.28 40.7109 163.473C40.5729 163.665 40.401 163.815 40.1953 163.922C39.9922 164.026 39.7565 164.078 39.4883 164.078C39.2253 164.078 38.9961 164.029 38.8008 163.93C38.6055 163.831 38.4414 163.69 38.3086 163.508C38.1784 163.326 38.0729 163.108 37.9922 162.855C37.9115 162.603 37.8542 162.324 37.8203 162.02V161.758C37.8542 161.451 37.9115 161.172 37.9922 160.922C38.0729 160.669 38.1784 160.452 38.3086 160.27C38.4414 160.085 38.6042 159.943 38.7969 159.844C38.9922 159.745 39.2201 159.695 39.4805 159.695C39.7513 159.695 39.9896 159.747 40.1953 159.852C40.4036 159.956 40.5768 160.104 40.7148 160.297C40.8529 160.487 40.9557 160.714 41.0234 160.977C41.0938 161.24 41.1289 161.53 41.1289 161.848ZM40.1875 161.93V161.848C40.1875 161.658 40.1719 161.479 40.1406 161.312C40.1094 161.143 40.0573 160.995 39.9844 160.867C39.9141 160.74 39.8177 160.639 39.6953 160.566C39.5755 160.491 39.4258 160.453 39.2461 160.453C39.0794 160.453 38.9362 160.482 38.8164 160.539C38.6966 160.596 38.5964 160.674 38.5156 160.773C38.4349 160.872 38.3711 160.987 38.3242 161.117C38.2799 161.247 38.25 161.388 38.2344 161.539V162.246C38.2578 162.441 38.3073 162.621 38.3828 162.785C38.4609 162.947 38.5703 163.077 38.7109 163.176C38.8516 163.272 39.0326 163.32 39.2539 163.32C39.4284 163.32 39.5755 163.285 39.6953 163.215C39.8151 163.145 39.9102 163.047 39.9805 162.922C40.0534 162.794 40.1055 162.646 40.1367 162.477C40.1706 162.307 40.1875 162.125 40.1875 161.93ZM44.2969 162.855C44.2969 162.762 44.2734 162.677 44.2266 162.602C44.1797 162.523 44.0898 162.453 43.957 162.391C43.8268 162.328 43.6341 162.271 43.3789 162.219C43.1549 162.169 42.9492 162.111 42.7617 162.043C42.5768 161.973 42.418 161.888 42.2852 161.789C42.1523 161.69 42.0495 161.573 41.9766 161.438C41.9036 161.302 41.8672 161.146 41.8672 160.969C41.8672 160.797 41.9049 160.634 41.9805 160.48C42.056 160.327 42.1641 160.191 42.3047 160.074C42.4453 159.957 42.6159 159.865 42.8164 159.797C43.0195 159.729 43.2461 159.695 43.4961 159.695C43.8503 159.695 44.1536 159.755 44.4062 159.875C44.6615 159.992 44.8568 160.152 44.9922 160.355C45.1276 160.556 45.1953 160.783 45.1953 161.035H44.2539C44.2539 160.923 44.2253 160.819 44.168 160.723C44.1133 160.624 44.0299 160.544 43.918 160.484C43.806 160.422 43.6654 160.391 43.4961 160.391C43.3346 160.391 43.2005 160.417 43.0938 160.469C42.9896 160.518 42.9115 160.583 42.8594 160.664C42.8099 160.745 42.7852 160.833 42.7852 160.93C42.7852 161 42.7982 161.064 42.8242 161.121C42.8529 161.176 42.8997 161.227 42.9648 161.273C43.0299 161.318 43.1185 161.359 43.2305 161.398C43.3451 161.438 43.4883 161.475 43.6602 161.512C43.9831 161.579 44.2604 161.667 44.4922 161.773C44.7266 161.878 44.9062 162.013 45.0312 162.18C45.1562 162.344 45.2188 162.552 45.2188 162.805C45.2188 162.992 45.1784 163.164 45.0977 163.32C45.0195 163.474 44.9049 163.608 44.7539 163.723C44.6029 163.835 44.4219 163.922 44.2109 163.984C44.0026 164.047 43.7682 164.078 43.5078 164.078C43.125 164.078 42.8008 164.01 42.5352 163.875C42.2695 163.737 42.0677 163.561 41.9297 163.348C41.7943 163.132 41.7266 162.908 41.7266 162.676H42.6367C42.6471 162.85 42.6953 162.99 42.7812 163.094C42.8698 163.195 42.9792 163.27 43.1094 163.316C43.2422 163.361 43.3789 163.383 43.5195 163.383C43.6888 163.383 43.8307 163.361 43.9453 163.316C44.0599 163.27 44.1471 163.207 44.207 163.129C44.2669 163.048 44.2969 162.957 44.2969 162.855ZM47.7695 163.328C47.9232 163.328 48.0612 163.298 48.1836 163.238C48.3086 163.176 48.4089 163.09 48.4844 162.98C48.5625 162.871 48.6055 162.745 48.6133 162.602H49.5C49.4948 162.875 49.4141 163.124 49.2578 163.348C49.1016 163.572 48.8945 163.75 48.6367 163.883C48.3789 164.013 48.0938 164.078 47.7812 164.078C47.4583 164.078 47.1771 164.023 46.9375 163.914C46.6979 163.802 46.4987 163.648 46.3398 163.453C46.181 163.258 46.0612 163.033 45.9805 162.777C45.9023 162.522 45.8633 162.249 45.8633 161.957V161.82C45.8633 161.529 45.9023 161.255 45.9805 161C46.0612 160.742 46.181 160.516 46.3398 160.32C46.4987 160.125 46.6979 159.973 46.9375 159.863C47.1771 159.751 47.457 159.695 47.7773 159.695C48.1159 159.695 48.4128 159.763 48.668 159.898C48.9232 160.031 49.1237 160.217 49.2695 160.457C49.418 160.694 49.4948 160.97 49.5 161.285H48.6133C48.6055 161.129 48.5664 160.988 48.4961 160.863C48.4284 160.736 48.332 160.634 48.207 160.559C48.0846 160.483 47.9375 160.445 47.7656 160.445C47.5755 160.445 47.418 160.484 47.293 160.562C47.168 160.638 47.0703 160.742 47 160.875C46.9297 161.005 46.8789 161.152 46.8477 161.316C46.819 161.478 46.8047 161.646 46.8047 161.82V161.957C46.8047 162.132 46.819 162.301 46.8477 162.465C46.8763 162.629 46.9258 162.776 46.9961 162.906C47.069 163.034 47.168 163.137 47.293 163.215C47.418 163.29 47.5768 163.328 47.7695 163.328ZM51.168 160.578V164H50.2266V159.773H51.125L51.168 160.578ZM52.4609 159.746L52.4531 160.621C52.3958 160.611 52.3333 160.603 52.2656 160.598C52.2005 160.592 52.1354 160.59 52.0703 160.59C51.9089 160.59 51.7669 160.613 51.6445 160.66C51.5221 160.704 51.4193 160.77 51.3359 160.855C51.2552 160.939 51.1927 161.04 51.1484 161.16C51.1042 161.28 51.0781 161.414 51.0703 161.562L50.8555 161.578C50.8555 161.312 50.8815 161.066 50.9336 160.84C50.9857 160.613 51.0638 160.414 51.168 160.242C51.2747 160.07 51.4076 159.936 51.5664 159.84C51.7279 159.743 51.9141 159.695 52.125 159.695C52.1823 159.695 52.2435 159.701 52.3086 159.711C52.3763 159.721 52.4271 159.733 52.4609 159.746ZM54.0586 159.773V164H53.1133V159.773H54.0586ZM53.0508 158.664C53.0508 158.521 53.0977 158.402 53.1914 158.309C53.2878 158.212 53.4206 158.164 53.5898 158.164C53.7565 158.164 53.888 158.212 53.9844 158.309C54.0807 158.402 54.1289 158.521 54.1289 158.664C54.1289 158.805 54.0807 158.922 53.9844 159.016C53.888 159.109 53.7565 159.156 53.5898 159.156C53.4206 159.156 53.2878 159.109 53.1914 159.016C53.0977 158.922 53.0508 158.805 53.0508 158.664ZM56.0352 160.586V165.625H55.0938V159.773H55.9609L56.0352 160.586ZM58.7891 161.848V161.93C58.7891 162.237 58.7526 162.522 58.6797 162.785C58.6094 163.046 58.5039 163.273 58.3633 163.469C58.2253 163.661 58.0547 163.811 57.8516 163.918C57.6484 164.025 57.4141 164.078 57.1484 164.078C56.8854 164.078 56.6549 164.03 56.457 163.934C56.2617 163.835 56.0964 163.695 55.9609 163.516C55.8255 163.336 55.7161 163.125 55.6328 162.883C55.5521 162.638 55.4948 162.37 55.4609 162.078V161.762C55.4948 161.452 55.5521 161.171 55.6328 160.918C55.7161 160.665 55.8255 160.448 55.9609 160.266C56.0964 160.083 56.2617 159.943 56.457 159.844C56.6523 159.745 56.8802 159.695 57.1406 159.695C57.4062 159.695 57.6419 159.747 57.8477 159.852C58.0534 159.953 58.2266 160.099 58.3672 160.289C58.5078 160.477 58.6133 160.703 58.6836 160.969C58.7539 161.232 58.7891 161.525 58.7891 161.848ZM57.8477 161.93V161.848C57.8477 161.652 57.8294 161.471 57.793 161.305C57.7565 161.135 57.6992 160.987 57.6211 160.859C57.543 160.732 57.4427 160.633 57.3203 160.562C57.2005 160.49 57.056 160.453 56.8867 160.453C56.7201 160.453 56.5768 160.482 56.457 160.539C56.3372 160.594 56.237 160.671 56.1562 160.77C56.0755 160.868 56.013 160.984 55.9688 161.117C55.9245 161.247 55.8932 161.389 55.875 161.543V162.301C55.9062 162.488 55.9596 162.66 56.0352 162.816C56.1107 162.973 56.2174 163.098 56.3555 163.191C56.4961 163.283 56.6758 163.328 56.8945 163.328C57.0638 163.328 57.2083 163.292 57.3281 163.219C57.4479 163.146 57.5456 163.046 57.6211 162.918C57.6992 162.788 57.7565 162.638 57.793 162.469C57.8294 162.299 57.8477 162.12 57.8477 161.93ZM61.5273 159.773V160.461H59.1445V159.773H61.5273ZM59.832 158.738H60.7734V162.832C60.7734 162.962 60.7917 163.062 60.8281 163.133C60.8672 163.201 60.9206 163.246 60.9883 163.27C61.056 163.293 61.1354 163.305 61.2266 163.305C61.2917 163.305 61.3542 163.301 61.4141 163.293C61.474 163.285 61.5221 163.277 61.5586 163.27L61.5625 163.988C61.4844 164.012 61.3932 164.033 61.2891 164.051C61.1875 164.069 61.0703 164.078 60.9375 164.078C60.7214 164.078 60.5299 164.04 60.3633 163.965C60.1966 163.887 60.0664 163.76 59.9727 163.586C59.8789 163.411 59.832 163.18 59.832 162.891V158.738ZM63.2617 159.773V164H62.3164V159.773H63.2617ZM62.2539 158.664C62.2539 158.521 62.3008 158.402 62.3945 158.309C62.4909 158.212 62.6237 158.164 62.793 158.164C62.9596 158.164 63.0911 158.212 63.1875 158.309C63.2839 158.402 63.332 158.521 63.332 158.664C63.332 158.805 63.2839 158.922 63.1875 159.016C63.0911 159.109 62.9596 159.156 62.793 159.156C62.6237 159.156 62.4909 159.109 62.3945 159.016C62.3008 158.922 62.2539 158.805 62.2539 158.664ZM64.1133 161.934V161.844C64.1133 161.539 64.1576 161.257 64.2461 160.996C64.3346 160.733 64.4622 160.505 64.6289 160.312C64.7982 160.117 65.0039 159.966 65.2461 159.859C65.4909 159.75 65.7669 159.695 66.0742 159.695C66.3841 159.695 66.6602 159.75 66.9023 159.859C67.1471 159.966 67.3542 160.117 67.5234 160.312C67.6927 160.505 67.8216 160.733 67.9102 160.996C67.9987 161.257 68.043 161.539 68.043 161.844V161.934C68.043 162.238 67.9987 162.521 67.9102 162.781C67.8216 163.042 67.6927 163.27 67.5234 163.465C67.3542 163.658 67.1484 163.809 66.9062 163.918C66.6641 164.025 66.3893 164.078 66.082 164.078C65.7721 164.078 65.4948 164.025 65.25 163.918C65.0078 163.809 64.8021 163.658 64.6328 163.465C64.4635 163.27 64.3346 163.042 64.2461 162.781C64.1576 162.521 64.1133 162.238 64.1133 161.934ZM65.0547 161.844V161.934C65.0547 162.124 65.0742 162.303 65.1133 162.473C65.1523 162.642 65.2135 162.79 65.2969 162.918C65.3802 163.046 65.487 163.146 65.6172 163.219C65.7474 163.292 65.9023 163.328 66.082 163.328C66.2565 163.328 66.4076 163.292 66.5352 163.219C66.6654 163.146 66.7721 163.046 66.8555 162.918C66.9388 162.79 67 162.642 67.0391 162.473C67.0807 162.303 67.1016 162.124 67.1016 161.934V161.844C67.1016 161.656 67.0807 161.479 67.0391 161.312C67 161.143 66.9375 160.993 66.8516 160.863C66.7682 160.733 66.6615 160.632 66.5312 160.559C66.4036 160.483 66.2513 160.445 66.0742 160.445C65.8971 160.445 65.7435 160.483 65.6133 160.559C65.4857 160.632 65.3802 160.733 65.2969 160.863C65.2135 160.993 65.1523 161.143 65.1133 161.312C65.0742 161.479 65.0547 161.656 65.0547 161.844ZM69.7656 160.676V164H68.8242V159.773H69.7109L69.7656 160.676ZM69.5977 161.73L69.293 161.727C69.2956 161.427 69.3372 161.152 69.418 160.902C69.5013 160.652 69.6159 160.438 69.7617 160.258C69.9102 160.078 70.0872 159.94 70.293 159.844C70.4987 159.745 70.7279 159.695 70.9805 159.695C71.1836 159.695 71.3672 159.724 71.5312 159.781C71.6979 159.836 71.8398 159.926 71.957 160.051C72.0768 160.176 72.168 160.339 72.2305 160.539C72.293 160.737 72.3242 160.98 72.3242 161.27V164H71.3789V161.266C71.3789 161.062 71.349 160.902 71.2891 160.785C71.2318 160.665 71.1471 160.581 71.0352 160.531C70.9258 160.479 70.7891 160.453 70.625 160.453C70.4635 160.453 70.319 160.487 70.1914 160.555C70.0638 160.622 69.9557 160.715 69.8672 160.832C69.7812 160.949 69.7148 161.085 69.668 161.238C69.6211 161.392 69.5977 161.556 69.5977 161.73ZM76.2227 160.586V165.625H75.2812V159.773H76.1484L76.2227 160.586ZM78.9766 161.848V161.93C78.9766 162.237 78.9401 162.522 78.8672 162.785C78.7969 163.046 78.6914 163.273 78.5508 163.469C78.4128 163.661 78.2422 163.811 78.0391 163.918C77.8359 164.025 77.6016 164.078 77.3359 164.078C77.0729 164.078 76.8424 164.03 76.6445 163.934C76.4492 163.835 76.2839 163.695 76.1484 163.516C76.013 163.336 75.9036 163.125 75.8203 162.883C75.7396 162.638 75.6823 162.37 75.6484 162.078V161.762C75.6823 161.452 75.7396 161.171 75.8203 160.918C75.9036 160.665 76.013 160.448 76.1484 160.266C76.2839 160.083 76.4492 159.943 76.6445 159.844C76.8398 159.745 77.0677 159.695 77.3281 159.695C77.5938 159.695 77.8294 159.747 78.0352 159.852C78.2409 159.953 78.4141 160.099 78.5547 160.289C78.6953 160.477 78.8008 160.703 78.8711 160.969C78.9414 161.232 78.9766 161.525 78.9766 161.848ZM78.0352 161.93V161.848C78.0352 161.652 78.0169 161.471 77.9805 161.305C77.944 161.135 77.8867 160.987 77.8086 160.859C77.7305 160.732 77.6302 160.633 77.5078 160.562C77.388 160.49 77.2435 160.453 77.0742 160.453C76.9076 160.453 76.7643 160.482 76.6445 160.539C76.5247 160.594 76.4245 160.671 76.3438 160.77C76.263 160.868 76.2005 160.984 76.1562 161.117C76.112 161.247 76.0807 161.389 76.0625 161.543V162.301C76.0938 162.488 76.1471 162.66 76.2227 162.816C76.2982 162.973 76.4049 163.098 76.543 163.191C76.6836 163.283 76.8633 163.328 77.082 163.328C77.2513 163.328 77.3958 163.292 77.5156 163.219C77.6354 163.146 77.7331 163.046 77.8086 162.918C77.8867 162.788 77.944 162.638 77.9805 162.469C78.0169 162.299 78.0352 162.12 78.0352 161.93ZM80.7227 160.578V164H79.7812V159.773H80.6797L80.7227 160.578ZM82.0156 159.746L82.0078 160.621C81.9505 160.611 81.888 160.603 81.8203 160.598C81.7552 160.592 81.6901 160.59 81.625 160.59C81.4635 160.59 81.3216 160.613 81.1992 160.66C81.0768 160.704 80.974 160.77 80.8906 160.855C80.8099 160.939 80.7474 161.04 80.7031 161.16C80.6589 161.28 80.6328 161.414 80.625 161.562L80.4102 161.578C80.4102 161.312 80.4362 161.066 80.4883 160.84C80.5404 160.613 80.6185 160.414 80.7227 160.242C80.8294 160.07 80.9622 159.936 81.1211 159.84C81.2826 159.743 81.4688 159.695 81.6797 159.695C81.737 159.695 81.7982 159.701 81.8633 159.711C81.931 159.721 81.9818 159.733 82.0156 159.746ZM83.6133 159.773V164H82.668V159.773H83.6133ZM82.6055 158.664C82.6055 158.521 82.6523 158.402 82.7461 158.309C82.8424 158.212 82.9753 158.164 83.1445 158.164C83.3112 158.164 83.4427 158.212 83.5391 158.309C83.6354 158.402 83.6836 158.521 83.6836 158.664C83.6836 158.805 83.6354 158.922 83.5391 159.016C83.4427 159.109 83.3112 159.156 83.1445 159.156C82.9753 159.156 82.8424 159.109 82.7461 159.016C82.6523 158.922 82.6055 158.805 82.6055 158.664ZM86.3711 163.328C86.5247 163.328 86.6628 163.298 86.7852 163.238C86.9102 163.176 87.0104 163.09 87.0859 162.98C87.1641 162.871 87.207 162.745 87.2148 162.602H88.1016C88.0964 162.875 88.0156 163.124 87.8594 163.348C87.7031 163.572 87.4961 163.75 87.2383 163.883C86.9805 164.013 86.6953 164.078 86.3828 164.078C86.0599 164.078 85.7786 164.023 85.5391 163.914C85.2995 163.802 85.1003 163.648 84.9414 163.453C84.7826 163.258 84.6628 163.033 84.582 162.777C84.5039 162.522 84.4648 162.249 84.4648 161.957V161.82C84.4648 161.529 84.5039 161.255 84.582 161C84.6628 160.742 84.7826 160.516 84.9414 160.32C85.1003 160.125 85.2995 159.973 85.5391 159.863C85.7786 159.751 86.0586 159.695 86.3789 159.695C86.7174 159.695 87.0143 159.763 87.2695 159.898C87.5247 160.031 87.7253 160.217 87.8711 160.457C88.0195 160.694 88.0964 160.97 88.1016 161.285H87.2148C87.207 161.129 87.168 160.988 87.0977 160.863C87.0299 160.736 86.9336 160.634 86.8086 160.559C86.6862 160.483 86.5391 160.445 86.3672 160.445C86.1771 160.445 86.0195 160.484 85.8945 160.562C85.7695 160.638 85.6719 160.742 85.6016 160.875C85.5312 161.005 85.4805 161.152 85.4492 161.316C85.4206 161.478 85.4062 161.646 85.4062 161.82V161.957C85.4062 162.132 85.4206 162.301 85.4492 162.465C85.4779 162.629 85.5273 162.776 85.5977 162.906C85.6706 163.034 85.7695 163.137 85.8945 163.215C86.0195 163.29 86.1784 163.328 86.3711 163.328ZM90.6875 164.078C90.375 164.078 90.0924 164.027 89.8398 163.926C89.5898 163.822 89.3763 163.677 89.1992 163.492C89.0247 163.307 88.8906 163.09 88.7969 162.84C88.7031 162.59 88.6562 162.32 88.6562 162.031V161.875C88.6562 161.544 88.7044 161.245 88.8008 160.977C88.8971 160.708 89.0312 160.479 89.2031 160.289C89.375 160.096 89.5781 159.949 89.8125 159.848C90.0469 159.746 90.3008 159.695 90.5742 159.695C90.8763 159.695 91.1406 159.746 91.3672 159.848C91.5938 159.949 91.7812 160.092 91.9297 160.277C92.0807 160.46 92.1927 160.677 92.2656 160.93C92.3411 161.182 92.3789 161.461 92.3789 161.766V162.168H89.1133V161.492H91.4492V161.418C91.444 161.249 91.4102 161.09 91.3477 160.941C91.2878 160.793 91.1953 160.673 91.0703 160.582C90.9453 160.491 90.7786 160.445 90.5703 160.445C90.4141 160.445 90.2747 160.479 90.1523 160.547C90.0326 160.612 89.9323 160.707 89.8516 160.832C89.7708 160.957 89.7083 161.108 89.6641 161.285C89.6224 161.46 89.6016 161.656 89.6016 161.875V162.031C89.6016 162.216 89.6263 162.388 89.6758 162.547C89.7279 162.703 89.8034 162.84 89.9023 162.957C90.0013 163.074 90.1211 163.167 90.2617 163.234C90.4023 163.299 90.5625 163.332 90.7422 163.332C90.9688 163.332 91.1706 163.286 91.3477 163.195C91.5247 163.104 91.6784 162.975 91.8086 162.809L92.3047 163.289C92.2135 163.422 92.0951 163.549 91.9492 163.672C91.8034 163.792 91.625 163.889 91.4141 163.965C91.2057 164.04 90.9635 164.078 90.6875 164.078Z" fill="white"/>
<path d="M50.1416 150.169H51.1943C51.5316 150.169 51.8096 150.112 52.0283 149.998C52.2471 149.88 52.4089 149.715 52.5137 149.506C52.623 149.292 52.6777 149.043 52.6777 148.761C52.6777 148.506 52.6276 148.28 52.5273 148.084C52.4316 147.883 52.2835 147.729 52.083 147.619C51.8825 147.505 51.6296 147.448 51.3242 147.448C51.0827 147.448 50.8594 147.496 50.6543 147.592C50.4492 147.688 50.2852 147.822 50.1621 147.995C50.0391 148.168 49.9775 148.378 49.9775 148.624H48.002C48.002 148.077 48.1478 147.601 48.4395 147.195C48.7357 146.79 49.1322 146.473 49.6289 146.245C50.1257 146.017 50.6725 145.903 51.2695 145.903C51.944 145.903 52.5342 146.013 53.04 146.231C53.5459 146.446 53.9401 146.762 54.2227 147.182C54.5052 147.601 54.6465 148.12 54.6465 148.74C54.6465 149.055 54.5736 149.36 54.4277 149.656C54.2819 149.948 54.0723 150.212 53.7988 150.449C53.5299 150.682 53.2018 150.868 52.8145 151.01C52.4271 151.146 51.9919 151.215 51.5088 151.215H50.1416V150.169ZM50.1416 151.666V150.647H51.5088C52.0511 150.647 52.5273 150.709 52.9375 150.832C53.3477 150.955 53.6917 151.133 53.9697 151.365C54.2477 151.593 54.4574 151.864 54.5986 152.179C54.7399 152.489 54.8105 152.833 54.8105 153.211C54.8105 153.676 54.7217 154.09 54.5439 154.455C54.3662 154.815 54.1156 155.12 53.792 155.371C53.473 155.622 53.0993 155.813 52.6709 155.945C52.2425 156.073 51.7754 156.137 51.2695 156.137C50.8503 156.137 50.4378 156.08 50.0322 155.966C49.6312 155.847 49.2666 155.672 48.9385 155.439C48.6149 155.202 48.3551 154.906 48.1592 154.551C47.9678 154.191 47.8721 153.765 47.8721 153.272H49.8477C49.8477 153.528 49.9115 153.756 50.0391 153.956C50.1667 154.157 50.3421 154.314 50.5654 154.428C50.7933 154.542 51.0462 154.599 51.3242 154.599C51.6387 154.599 51.9076 154.542 52.1309 154.428C52.3587 154.309 52.5319 154.145 52.6504 153.936C52.7734 153.721 52.835 153.473 52.835 153.19C52.835 152.826 52.7689 152.534 52.6367 152.315C52.5046 152.092 52.3154 151.928 52.0693 151.823C51.8232 151.718 51.5316 151.666 51.1943 151.666H50.1416ZM62.8633 150.148V151.871C62.8633 152.618 62.7835 153.263 62.624 153.806C62.4645 154.343 62.2344 154.785 61.9336 155.132C61.6374 155.474 61.2842 155.727 60.874 155.891C60.4639 156.055 60.0081 156.137 59.5068 156.137C59.1058 156.137 58.7321 156.087 58.3857 155.986C58.0394 155.882 57.7272 155.72 57.4492 155.501C57.1758 155.282 56.9388 155.007 56.7383 154.674C56.5423 154.337 56.3919 153.936 56.2871 153.471C56.1823 153.006 56.1299 152.473 56.1299 151.871V150.148C56.1299 149.401 56.2096 148.761 56.3691 148.228C56.5332 147.69 56.7633 147.25 57.0596 146.908C57.3604 146.566 57.7158 146.316 58.126 146.156C58.5361 145.992 58.9919 145.91 59.4932 145.91C59.8942 145.91 60.2656 145.963 60.6074 146.067C60.9538 146.168 61.266 146.325 61.5439 146.539C61.8219 146.753 62.0589 147.029 62.2549 147.366C62.4508 147.699 62.6012 148.098 62.7061 148.562C62.8109 149.023 62.8633 149.551 62.8633 150.148ZM60.8877 152.131V149.882C60.8877 149.522 60.8672 149.207 60.8262 148.938C60.7897 148.67 60.7327 148.442 60.6553 148.255C60.5778 148.063 60.4821 147.909 60.3682 147.79C60.2542 147.672 60.1243 147.585 59.9785 147.53C59.8327 147.476 59.6709 147.448 59.4932 147.448C59.2699 147.448 59.0716 147.492 58.8984 147.578C58.7298 147.665 58.5863 147.804 58.4678 147.995C58.3493 148.182 58.2581 148.433 58.1943 148.747C58.1351 149.057 58.1055 149.435 58.1055 149.882V152.131C58.1055 152.491 58.1237 152.808 58.1602 153.081C58.2012 153.354 58.2604 153.589 58.3379 153.785C58.4199 153.977 58.5156 154.134 58.625 154.257C58.7389 154.375 58.8688 154.462 59.0146 154.517C59.165 154.571 59.3291 154.599 59.5068 154.599C59.7256 154.599 59.9193 154.555 60.0879 154.469C60.2611 154.378 60.4069 154.236 60.5254 154.045C60.6484 153.849 60.7396 153.594 60.7988 153.279C60.8581 152.965 60.8877 152.582 60.8877 152.131ZM71.0117 154.462V156H64.2031V154.688L67.4229 151.235C67.7464 150.875 68.0016 150.559 68.1885 150.285C68.3753 150.007 68.5098 149.759 68.5918 149.54C68.6784 149.317 68.7217 149.105 68.7217 148.904C68.7217 148.604 68.6715 148.346 68.5713 148.132C68.471 147.913 68.3229 147.744 68.127 147.626C67.9355 147.507 67.6986 147.448 67.416 147.448C67.1152 147.448 66.8555 147.521 66.6367 147.667C66.4225 147.813 66.2585 148.016 66.1445 148.275C66.0352 148.535 65.9805 148.829 65.9805 149.157H64.0049C64.0049 148.565 64.1462 148.022 64.4287 147.53C64.7113 147.034 65.11 146.639 65.625 146.348C66.14 146.051 66.7507 145.903 67.457 145.903C68.1543 145.903 68.7422 146.017 69.2207 146.245C69.7038 146.468 70.0684 146.792 70.3145 147.216C70.5651 147.635 70.6904 148.136 70.6904 148.72C70.6904 149.048 70.638 149.369 70.5332 149.684C70.4284 149.993 70.278 150.303 70.082 150.613C69.8906 150.919 69.6582 151.229 69.3848 151.543C69.1113 151.857 68.8083 152.183 68.4756 152.521L66.7461 154.462H71.0117Z" fill="white"/>
</svg>
