<svg width="12" height="14" viewBox="0 0 12 14" fill="none" xmlns="http://www.w3.org/2000/svg">
<path d="M6.41379 12.9159C7.5782 11.9347 10.7967 8.91758 10.7967 5.54703C10.7967 2.89771 8.649 0.75 5.99967 0.75C3.35034 0.75 1.20264 2.89771 1.20264 5.54703C1.20264 8.91758 4.42115 11.9346 5.58555 12.9159C5.82779 13.12 6.17156 13.12 6.41379 12.9159Z" fill="#C5D1FF" stroke="#5669FF" stroke-width="1.5" stroke-linecap="round" stroke-linejoin="round"/>
<path d="M5.99969 7.23012C7.08481 7.23012 7.96447 6.35046 7.96447 5.26535C7.96447 4.18023 7.08481 3.30057 5.99969 3.30057C4.91457 3.30057 4.03491 4.18023 4.03491 5.26535C4.03491 6.35046 4.91457 7.23012 5.99969 7.23012Z" fill="#5669FF"/>
</svg>
