<svg width="512" height="512" viewBox="0 0 512 512" fill="none" xmlns="http://www.w3.org/2000/svg">
<mask id="mask0_62_201" style="mask-type:alpha" maskUnits="userSpaceOnUse" x="-1" y="-1" width="513" height="513">
<rect x="-0.759155" y="-0.759277" width="512.759" height="512.759" rx="100.148" fill="white"/>
</mask>
<g mask="url(#mask0_62_201)">
<path d="M19.7996 656.493C-21.5242 604.727 -21.5242 495.562 -21.5242 277.234C-21.5242 176.344 -21.5242 125.899 -2.77363 86.986C15.8141 48.4111 46.9406 17.2846 85.5156 -1.30317C124.428 -20.0537 174.873 -20.0537 275.763 -20.0537C493.829 -20.0537 602.862 -20.0537 654.616 21.2367C705.422 61.7701 731.859 125.549 724.627 190.14C717.26 255.936 640.2 333.072 486.081 487.344L486.08 487.344C331.775 641.802 254.622 719.031 188.802 726.447C124.188 733.727 60.365 707.309 19.7996 656.493Z" fill="white"/>
<g filter="url(#filter0_d_62_201)">
<path d="M452.911 450.837C364.289 541.317 210.554 478.57 210.554 351.919C210.554 273.845 273.845 210.553 351.919 210.553C477.157 210.553 540.544 361.367 452.911 450.837Z" fill="#6B79FF"/>
</g>
<g filter="url(#filter1_d_62_201)">
<path d="M-11.1537 432.745C-23.0139 400.85 -23.0139 343.07 -23.0139 227.511C-23.0139 174.586 -23.0139 148.123 -17.7541 126.288C-1.12151 57.2396 52.7897 3.32844 121.838 -13.3041C143.673 -18.564 170.136 -18.564 223.061 -18.564C335.962 -18.564 392.413 -18.564 424.079 -6.89218C526.955 31.0265 576.141 148.191 531.161 248.181C517.316 278.959 477.782 319.254 398.713 399.845C317.783 482.333 277.318 523.577 246.515 538.038C146.361 585.058 27.4088 536.449 -11.1537 432.745Z" fill="#FFFBFB"/>
</g>
<g filter="url(#filter2_d_62_201)">
<path d="M-17.2458 340.747C-22.3059 319.313 -22.3059 281.884 -22.3059 207.025C-22.3059 172.513 -22.3059 155.258 -20.06 140.814C-7.40934 59.4541 56.4201 -4.37541 137.78 -17.0261C152.224 -19.272 169.479 -19.272 203.991 -19.272C278.025 -19.272 315.043 -19.272 336.399 -14.2505C461.861 15.2498 521.723 158.846 454.365 268.728C442.899 287.432 416.843 313.725 364.731 366.313C312.038 419.486 285.692 446.072 267.01 457.735C157.191 526.297 12.4996 466.748 -17.2458 340.747Z" fill="#D0D4FF"/>
</g>
<g filter="url(#filter3_d_62_201)">
<path d="M-20.8599 261.125C-22.3059 249.498 -22.3059 229.573 -22.3059 189.723C-22.3059 171.292 -22.3059 162.077 -21.6639 154.305C-14.0506 62.133 59.099 -11.0166 151.271 -18.63C159.043 -19.272 168.258 -19.272 186.689 -19.272C226.335 -19.272 246.158 -19.272 257.765 -17.8311C403.32 0.238245 473.815 169.922 383.912 285.812C376.744 295.053 362.757 309.099 334.783 337.191L334.781 337.193L334.781 337.194C306.662 365.431 292.602 379.55 283.374 386.768C167.593 477.328 -2.71912 406.993 -20.8599 261.125Z" fill="#A6AEFF"/>
</g>
<g filter="url(#filter4_d_62_201)">
<path d="M-22.2778 182.517C-22.3059 180.886 -22.3059 178.144 -22.3059 172.662C-22.3059 170.075 -22.3059 168.781 -22.2932 167.687C-21.1042 64.9358 61.9018 -18.0703 164.653 -19.2593C165.747 -19.272 167.041 -19.272 169.628 -19.272C175.308 -19.272 178.148 -19.272 179.8 -19.2431C346.431 -16.3328 428.134 185.036 310.638 303.227C309.474 304.398 307.439 306.375 303.371 310.327L303.362 310.335L303.357 310.34C299.428 314.157 297.463 316.066 296.273 317.182C176.626 429.459 -19.4475 346.571 -22.2778 182.517Z" fill="#8D98FF"/>
</g>
<g filter="url(#filter5_d_62_201)">
<path d="M277.43 280.878C166.659 391.28 -22.3059 312.823 -22.3059 156.431C-22.3059 59.3927 56.3588 -19.272 153.397 -19.272C310.072 -19.272 388.401 170.277 277.43 280.878Z" fill="#6B79FF"/>
</g>
<path d="M243.857 263.887C142.5 365.243 -30.8036 293.458 -30.8036 150.119C-30.8036 61.2601 41.2304 -10.7739 130.089 -10.7739C273.429 -10.7739 345.214 162.53 243.857 263.887Z" fill="#FFF2F2"/>
<path opacity="0.8" d="M197.91 217.94C113.509 302.341 -30.8036 242.564 -30.8036 123.203C-30.8036 49.2098 29.1801 -10.7739 103.174 -10.7739C222.535 -10.7739 282.311 133.539 197.91 217.94Z" fill="#FFFBFB"/>
</g>
<g filter="url(#filter6_d_62_201)">
<path d="M16.0935 325.822C-0.759155 300.575 -0.759155 250.192 -0.759155 149.424C-0.759155 102.798 -0.759155 79.4841 6.85253 61.0921C17.0176 36.5303 36.5304 17.0175 61.0922 6.85241C79.4842 -0.759277 102.798 -0.759277 149.425 -0.759277C250.192 -0.759277 300.575 -0.759277 325.822 16.0934C359.54 38.6005 376.363 79.2149 368.436 118.972C362.5 148.741 326.874 184.367 255.62 255.62C184.367 326.874 148.741 362.5 118.972 368.436C79.215 376.363 38.6006 359.54 16.0935 325.822Z" fill="#191919"/>
</g>
<g filter="url(#filter7_d_62_201)">
<path d="M8.64241 268.519C-0.759155 248.381 -0.759155 211.093 -0.759155 136.518C-0.759155 101.976 -0.759155 84.7046 3.45648 70.6383C13.1269 38.3709 38.3711 13.1268 70.6384 3.45636C84.7047 -0.759277 101.976 -0.759277 136.518 -0.759277C211.093 -0.759277 248.381 -0.759277 268.519 8.64229C315.542 30.5941 338.006 84.8287 320.279 133.601C312.687 154.489 286.32 180.855 233.588 233.588C180.855 286.32 154.489 312.686 133.601 320.279C84.8288 338.006 30.5942 315.542 8.64241 268.519Z" fill="#2A2A2A"/>
</g>
<g filter="url(#filter8_d_62_201)">
<path d="M3.08706 207.575C-0.759155 194.1 -0.759155 170.408 -0.759155 123.025C-0.759155 101.062 -0.759155 90.0805 0.956412 80.9315C8.56967 40.3304 40.3306 8.56955 80.9316 0.95629C90.0806 -0.759277 101.062 -0.759277 123.025 -0.759277C170.409 -0.759277 194.1 -0.759277 207.575 3.08694C269.605 20.7925 298.962 91.6663 267.62 148.048C260.811 160.296 244.059 177.048 210.554 210.554C177.048 244.059 160.296 260.811 148.048 267.62C91.6665 298.962 20.7926 269.605 3.08706 207.575Z" fill="#353535"/>
</g>
<g filter="url(#filter9_d_62_201)">
<path d="M-0.165207 141.905C-0.759155 136.476 -0.759155 127.201 -0.759155 108.652C-0.759155 100.051 -0.759155 95.7499 -0.495033 92.1204C3.11285 42.5415 42.5416 3.11273 92.1205 -0.495155C95.75 -0.759277 100.051 -0.759277 108.652 -0.759277C127.201 -0.759277 136.476 -0.759277 141.906 -0.165329C220.496 8.43226 258.604 100.432 209.111 162.083C205.692 166.343 199.134 172.901 186.017 186.017C172.901 199.134 166.343 205.692 162.084 209.111C100.432 258.604 8.43238 220.496 -0.165207 141.905Z" fill="#424242"/>
</g>
<g filter="url(#filter10_d_62_201)">
<path d="M159.979 159.979C100.663 219.295 -0.759155 177.285 -0.759155 93.3988C-0.759155 41.3968 41.3969 -0.759277 93.399 -0.759277C177.285 -0.759277 219.295 100.662 159.979 159.979Z" fill="#6B79FF"/>
</g>
<g filter="url(#filter11_d_62_201)">
<path d="M133.94 133.94C84.2328 183.648 -0.759155 148.443 -0.759155 78.1458C-0.759155 34.5678 34.5679 -0.759277 78.146 -0.759277C148.443 -0.759277 183.648 84.2327 133.94 133.94Z" fill="#8895FF"/>
</g>
<g opacity="0.8" filter="url(#filter12_d_62_201)">
<path d="M124.254 123.839C82.8623 165.231 12.0883 135.916 12.0883 77.3787C12.0883 41.0906 41.5056 11.6733 77.7936 11.6733C136.331 11.6733 165.646 82.4473 124.254 123.839Z" fill="#6B79FF"/>
</g>
<defs>
<filter id="filter0_d_62_201" x="210.554" y="210.553" width="283.014" height="283.015" filterUnits="userSpaceOnUse" color-interpolation-filters="sRGB">
<feFlood flood-opacity="0" result="BackgroundImageFix"/>
<feColorMatrix in="SourceAlpha" type="matrix" values="0 0 0 0 0 0 0 0 0 0 0 0 0 0 0 0 0 0 127 0" result="hardAlpha"/>
<feMorphology radius="2.91376" operator="erode" in="SourceAlpha" result="effect1_dropShadow_62_201"/>
<feOffset dy="0.728441"/>
<feGaussianBlur stdDeviation="0.728441"/>
<feComposite in2="hardAlpha" operator="out"/>
<feColorMatrix type="matrix" values="0 0 0 0 0 0 0 0 0 0 0 0 0 0 0 0 0 0 0.25 0"/>
<feBlend mode="normal" in2="BackgroundImageFix" result="effect1_dropShadow_62_201"/>
<feBlend mode="normal" in="SourceGraphic" in2="effect1_dropShadow_62_201" result="shape"/>
</filter>
<filter id="filter1_d_62_201" x="-28.112" y="-26.6665" width="603.117" height="606.825" filterUnits="userSpaceOnUse" color-interpolation-filters="sRGB">
<feFlood flood-opacity="0" result="BackgroundImageFix"/>
<feColorMatrix in="SourceAlpha" type="matrix" values="0 0 0 0 0 0 0 0 0 0 0 0 0 0 0 0 0 0 127 0" result="hardAlpha"/>
<feMorphology radius="2.91376" operator="erode" in="SourceAlpha" result="effect1_dropShadow_62_201"/>
<feOffset dx="11.0163" dy="8.01186"/>
<feGaussianBlur stdDeviation="9.51409"/>
<feComposite in2="hardAlpha" operator="out"/>
<feColorMatrix type="matrix" values="0 0 0 0 0 0 0 0 0 0 0 0 0 0 0 0 0 0 0.04 0"/>
<feBlend mode="normal" in2="BackgroundImageFix" result="effect1_dropShadow_62_201"/>
<feBlend mode="normal" in="SourceGraphic" in2="effect1_dropShadow_62_201" result="shape"/>
</filter>
<filter id="filter2_d_62_201" x="-22.3059" y="-19.272" width="504.688" height="505.84" filterUnits="userSpaceOnUse" color-interpolation-filters="sRGB">
<feFlood flood-opacity="0" result="BackgroundImageFix"/>
<feColorMatrix in="SourceAlpha" type="matrix" values="0 0 0 0 0 0 0 0 0 0 0 0 0 0 0 0 0 0 127 0" result="hardAlpha"/>
<feMorphology radius="2.91376" operator="erode" in="SourceAlpha" result="effect1_dropShadow_62_201"/>
<feOffset dy="0.728441"/>
<feGaussianBlur stdDeviation="0.728441"/>
<feComposite in2="hardAlpha" operator="out"/>
<feColorMatrix type="matrix" values="0 0 0 0 0 0 0 0 0 0 0 0 0 0 0 0 0 0 0.25 0"/>
<feBlend mode="normal" in2="BackgroundImageFix" result="effect1_dropShadow_62_201"/>
<feBlend mode="normal" in="SourceGraphic" in2="effect1_dropShadow_62_201" result="shape"/>
</filter>
<filter id="filter3_d_62_201" x="-22.3059" y="-19.272" width="446.138" height="446.423" filterUnits="userSpaceOnUse" color-interpolation-filters="sRGB">
<feFlood flood-opacity="0" result="BackgroundImageFix"/>
<feColorMatrix in="SourceAlpha" type="matrix" values="0 0 0 0 0 0 0 0 0 0 0 0 0 0 0 0 0 0 127 0" result="hardAlpha"/>
<feMorphology radius="2.91376" operator="erode" in="SourceAlpha" result="effect1_dropShadow_62_201"/>
<feOffset dy="0.728441"/>
<feGaussianBlur stdDeviation="0.728441"/>
<feComposite in2="hardAlpha" operator="out"/>
<feColorMatrix type="matrix" values="0 0 0 0 0 0 0 0 0 0 0 0 0 0 0 0 0 0 0.25 0"/>
<feBlend mode="normal" in2="BackgroundImageFix" result="effect1_dropShadow_62_201"/>
<feBlend mode="normal" in="SourceGraphic" in2="effect1_dropShadow_62_201" result="shape"/>
</filter>
<filter id="filter4_d_62_201" x="-22.3059" y="-19.272" width="388.304" height="388.025" filterUnits="userSpaceOnUse" color-interpolation-filters="sRGB">
<feFlood flood-opacity="0" result="BackgroundImageFix"/>
<feColorMatrix in="SourceAlpha" type="matrix" values="0 0 0 0 0 0 0 0 0 0 0 0 0 0 0 0 0 0 127 0" result="hardAlpha"/>
<feMorphology radius="2.91376" operator="erode" in="SourceAlpha" result="effect1_dropShadow_62_201"/>
<feOffset dy="0.728441"/>
<feGaussianBlur stdDeviation="0.728441"/>
<feComposite in2="hardAlpha" operator="out"/>
<feColorMatrix type="matrix" values="0 0 0 0 0 0 0 0 0 0 0 0 0 0 0 0 0 0 0.25 0"/>
<feBlend mode="normal" in2="BackgroundImageFix" result="effect1_dropShadow_62_201"/>
<feBlend mode="normal" in="SourceGraphic" in2="effect1_dropShadow_62_201" result="shape"/>
</filter>
<filter id="filter5_d_62_201" x="-22.3059" y="-19.272" width="351.758" height="351.757" filterUnits="userSpaceOnUse" color-interpolation-filters="sRGB">
<feFlood flood-opacity="0" result="BackgroundImageFix"/>
<feColorMatrix in="SourceAlpha" type="matrix" values="0 0 0 0 0 0 0 0 0 0 0 0 0 0 0 0 0 0 127 0" result="hardAlpha"/>
<feMorphology radius="2.91376" operator="erode" in="SourceAlpha" result="effect1_dropShadow_62_201"/>
<feOffset dy="0.728441"/>
<feGaussianBlur stdDeviation="0.728441"/>
<feComposite in2="hardAlpha" operator="out"/>
<feColorMatrix type="matrix" values="0 0 0 0 0 0 0 0 0 0 0 0 0 0 0 0 0 0 0.25 0"/>
<feBlend mode="normal" in2="BackgroundImageFix" result="effect1_dropShadow_62_201"/>
<feBlend mode="normal" in="SourceGraphic" in2="effect1_dropShadow_62_201" result="shape"/>
</filter>
<filter id="filter6_d_62_201" x="-0.759155" y="-0.759277" width="371.133" height="371.133" filterUnits="userSpaceOnUse" color-interpolation-filters="sRGB">
<feFlood flood-opacity="0" result="BackgroundImageFix"/>
<feColorMatrix in="SourceAlpha" type="matrix" values="0 0 0 0 0 0 0 0 0 0 0 0 0 0 0 0 0 0 127 0" result="hardAlpha"/>
<feMorphology radius="2.91376" operator="erode" in="SourceAlpha" result="effect1_dropShadow_62_201"/>
<feOffset dy="0.728441"/>
<feGaussianBlur stdDeviation="0.728441"/>
<feComposite in2="hardAlpha" operator="out"/>
<feColorMatrix type="matrix" values="0 0 0 0 0 0 0 0 0 0 0 0 0 0 0 0 0 0 0.25 0"/>
<feBlend mode="normal" in2="BackgroundImageFix" result="effect1_dropShadow_62_201"/>
<feBlend mode="normal" in="SourceGraphic" in2="effect1_dropShadow_62_201" result="shape"/>
</filter>
<filter id="filter7_d_62_201" x="-0.759155" y="-0.759277" width="327.082" height="327.082" filterUnits="userSpaceOnUse" color-interpolation-filters="sRGB">
<feFlood flood-opacity="0" result="BackgroundImageFix"/>
<feColorMatrix in="SourceAlpha" type="matrix" values="0 0 0 0 0 0 0 0 0 0 0 0 0 0 0 0 0 0 127 0" result="hardAlpha"/>
<feMorphology radius="2.91376" operator="erode" in="SourceAlpha" result="effect1_dropShadow_62_201"/>
<feOffset dy="0.728441"/>
<feGaussianBlur stdDeviation="0.728441"/>
<feComposite in2="hardAlpha" operator="out"/>
<feColorMatrix type="matrix" values="0 0 0 0 0 0 0 0 0 0 0 0 0 0 0 0 0 0 0.25 0"/>
<feBlend mode="normal" in2="BackgroundImageFix" result="effect1_dropShadow_62_201"/>
<feBlend mode="normal" in="SourceGraphic" in2="effect1_dropShadow_62_201" result="shape"/>
</filter>
<filter id="filter8_d_62_201" x="-0.759155" y="-0.759277" width="281.048" height="281.048" filterUnits="userSpaceOnUse" color-interpolation-filters="sRGB">
<feFlood flood-opacity="0" result="BackgroundImageFix"/>
<feColorMatrix in="SourceAlpha" type="matrix" values="0 0 0 0 0 0 0 0 0 0 0 0 0 0 0 0 0 0 127 0" result="hardAlpha"/>
<feMorphology radius="2.91376" operator="erode" in="SourceAlpha" result="effect1_dropShadow_62_201"/>
<feOffset dy="0.728441"/>
<feGaussianBlur stdDeviation="0.728441"/>
<feComposite in2="hardAlpha" operator="out"/>
<feColorMatrix type="matrix" values="0 0 0 0 0 0 0 0 0 0 0 0 0 0 0 0 0 0 0.25 0"/>
<feBlend mode="normal" in2="BackgroundImageFix" result="effect1_dropShadow_62_201"/>
<feBlend mode="normal" in="SourceGraphic" in2="effect1_dropShadow_62_201" result="shape"/>
</filter>
<filter id="filter9_d_62_201" x="-0.759155" y="-0.759277" width="232.048" height="232.048" filterUnits="userSpaceOnUse" color-interpolation-filters="sRGB">
<feFlood flood-opacity="0" result="BackgroundImageFix"/>
<feColorMatrix in="SourceAlpha" type="matrix" values="0 0 0 0 0 0 0 0 0 0 0 0 0 0 0 0 0 0 127 0" result="hardAlpha"/>
<feMorphology radius="2.91376" operator="erode" in="SourceAlpha" result="effect1_dropShadow_62_201"/>
<feOffset dy="0.728441"/>
<feGaussianBlur stdDeviation="0.728441"/>
<feComposite in2="hardAlpha" operator="out"/>
<feColorMatrix type="matrix" values="0 0 0 0 0 0 0 0 0 0 0 0 0 0 0 0 0 0 0.25 0"/>
<feBlend mode="normal" in2="BackgroundImageFix" result="effect1_dropShadow_62_201"/>
<feBlend mode="normal" in="SourceGraphic" in2="effect1_dropShadow_62_201" result="shape"/>
</filter>
<filter id="filter10_d_62_201" x="-0.759155" y="-0.759277" width="188.505" height="188.505" filterUnits="userSpaceOnUse" color-interpolation-filters="sRGB">
<feFlood flood-opacity="0" result="BackgroundImageFix"/>
<feColorMatrix in="SourceAlpha" type="matrix" values="0 0 0 0 0 0 0 0 0 0 0 0 0 0 0 0 0 0 127 0" result="hardAlpha"/>
<feMorphology radius="2.91376" operator="erode" in="SourceAlpha" result="effect1_dropShadow_62_201"/>
<feOffset dy="0.728441"/>
<feGaussianBlur stdDeviation="0.728441"/>
<feComposite in2="hardAlpha" operator="out"/>
<feColorMatrix type="matrix" values="0 0 0 0 0 0 0 0 0 0 0 0 0 0 0 0 0 0 0.25 0"/>
<feBlend mode="normal" in2="BackgroundImageFix" result="effect1_dropShadow_62_201"/>
<feBlend mode="normal" in="SourceGraphic" in2="effect1_dropShadow_62_201" result="shape"/>
</filter>
<filter id="filter11_d_62_201" x="-0.759155" y="-0.759277" width="157.968" height="157.968" filterUnits="userSpaceOnUse" color-interpolation-filters="sRGB">
<feFlood flood-opacity="0" result="BackgroundImageFix"/>
<feColorMatrix in="SourceAlpha" type="matrix" values="0 0 0 0 0 0 0 0 0 0 0 0 0 0 0 0 0 0 127 0" result="hardAlpha"/>
<feMorphology radius="2.91376" operator="erode" in="SourceAlpha" result="effect1_dropShadow_62_201"/>
<feOffset dy="0.728441"/>
<feGaussianBlur stdDeviation="0.728441"/>
<feComposite in2="hardAlpha" operator="out"/>
<feColorMatrix type="matrix" values="0 0 0 0 0 0 0 0 0 0 0 0 0 0 0 0 0 0 0.25 0"/>
<feBlend mode="normal" in2="BackgroundImageFix" result="effect1_dropShadow_62_201"/>
<feBlend mode="normal" in="SourceGraphic" in2="effect1_dropShadow_62_201" result="shape"/>
</filter>
<filter id="filter12_d_62_201" x="12.0883" y="11.6733" width="131.542" height="131.542" filterUnits="userSpaceOnUse" color-interpolation-filters="sRGB">
<feFlood flood-opacity="0" result="BackgroundImageFix"/>
<feColorMatrix in="SourceAlpha" type="matrix" values="0 0 0 0 0 0 0 0 0 0 0 0 0 0 0 0 0 0 127 0" result="hardAlpha"/>
<feMorphology radius="2.91376" operator="erode" in="SourceAlpha" result="effect1_dropShadow_62_201"/>
<feOffset dy="0.728441"/>
<feGaussianBlur stdDeviation="0.728441"/>
<feComposite in2="hardAlpha" operator="out"/>
<feColorMatrix type="matrix" values="0 0 0 0 0 0 0 0 0 0 0 0 0 0 0 0 0 0 0.25 0"/>
<feBlend mode="normal" in2="BackgroundImageFix" result="effect1_dropShadow_62_201"/>
<feBlend mode="normal" in="SourceGraphic" in2="effect1_dropShadow_62_201" result="shape"/>
</filter>
</defs>
</svg>
