<svg width="14" height="14" viewBox="0 0 14 14" fill="none" xmlns="http://www.w3.org/2000/svg">
<path d="M6.99999 3.64001C5.52488 3.64001 3.98293 3.64001 2.69032 3.87103C2.07073 3.98176 1.58263 4.45491 1.4496 5.0701C1.23999 6.03947 1.23999 6.94368 1.23999 8.32001C1.23999 9.69635 1.23999 10.6006 1.4496 11.5699C1.58263 12.1851 2.07073 12.6583 2.69032 12.769C3.98293 13 5.52488 13 6.99999 13C8.4751 13 10.0171 13 11.3097 12.769C11.9293 12.6583 12.4174 12.1851 12.5504 11.5699C12.76 10.6006 12.76 9.69635 12.76 8.32001C12.76 6.94368 12.76 6.03947 12.5504 5.0701C12.4174 4.45491 11.9293 3.98176 11.3097 3.87103C10.0171 3.64001 8.4751 3.64001 6.99999 3.64001Z" fill="#C5D1FF" stroke="#5669FF" stroke-width="1.5"/>
<path d="M9.03198 7.23047L8.83667 7.95312H5.16479L5.36401 7.23047H9.03198ZM7.20386 11.5L5.27808 9.22656L5.27417 8.60156H6.20386C6.43042 8.60156 6.61662 8.5599 6.76245 8.47656C6.91089 8.39062 7.02157 8.27474 7.09448 8.12891C7.17 7.98307 7.20776 7.81901 7.20776 7.63672C7.20776 7.44661 7.17391 7.27865 7.1062 7.13281C7.03849 6.98438 6.93042 6.86849 6.78198 6.78516C6.63354 6.70182 6.43693 6.66016 6.19214 6.66016H5.1687L5.39136 5.8125H6.19214C6.65568 5.8125 7.0411 5.88281 7.34839 6.02344C7.65828 6.16146 7.89006 6.36328 8.0437 6.62891C8.19995 6.89193 8.27808 7.20964 8.27808 7.58203C8.27808 7.90755 8.22339 8.19531 8.11401 8.44531C8.00724 8.69271 7.83407 8.89453 7.59448 9.05078C7.3549 9.20703 7.03979 9.3112 6.64917 9.36328L8.39526 11.4453V11.5H7.20386ZM9.03589 5.8125L8.83667 6.53516H5.81714L6.01636 5.8125H9.03589Z" fill="#5669FF"/>
<path d="M4.6001 3.4V3C4.6001 1.89543 5.49553 1 6.6001 1H7.4001C8.50467 1 9.4001 1.89543 9.4001 3V3.4" stroke="#5669FF" stroke-width="1.5"/>
</svg>
