<svg width="269" height="179" viewBox="0 0 269 179" fill="none" xmlns="http://www.w3.org/2000/svg">
<g clip-path="url(#clip0_43_2547)">
<path d="M70.0156 100.928C69.3139 102.18 67.7772 102.352 65.315 102.114C63.4636 101.935 61.775 101.796 59.9232 100.786C58.6273 100.08 57.6013 99.1249 56.8525 98.1971C56.041 97.1917 54.9083 96.0446 55.4635 94.9047C56.2266 93.339 60.639 92.0204 64.9236 94.1767C69.6304 96.5464 70.702 99.7037 70.0156 100.928Z" fill="url(#paint0_linear_43_2547)"/>
<path d="M210.704 92.6675C207.835 94.8071 203.282 93.5586 203.282 93.5586C203.282 93.5586 203.383 88.8413 206.254 86.7035C209.123 84.5638 213.674 85.8106 213.674 85.8106C213.674 85.8106 213.573 90.5278 210.704 92.6675V92.6675Z" fill="url(#paint1_linear_43_2547)"/>
<path d="M64.4761 52.0186C67.2032 55.175 72.6988 54.8984 72.6988 54.8984C72.6988 54.8984 73.7695 49.5046 71.0394 46.3497C68.3124 43.1933 62.8195 43.4681 62.8195 43.4681C62.8195 43.4681 61.749 48.8622 64.4761 52.0186Z" fill="url(#paint2_linear_43_2547)"/>
<path d="M131.233 152.382C129.934 152.382 128.88 151.328 128.88 150.028C128.88 148.729 129.934 147.675 131.233 147.675C132.533 147.675 133.587 148.729 133.587 150.028C133.587 151.328 132.533 152.382 131.233 152.382Z" fill="#BEC5FF"/>
<path d="M151.754 133.159C150.325 133.159 149.167 132.001 149.167 130.572C149.167 129.143 150.325 127.985 151.754 127.985C153.182 127.985 154.34 129.143 154.34 130.572C154.34 132.001 153.182 133.159 151.754 133.159Z" fill="#BEC5FF"/>
<path d="M202.568 53.8913C201.415 53.8913 200.48 52.9563 200.48 51.8029C200.48 50.6496 201.415 49.7146 202.568 49.7146C203.722 49.7146 204.657 50.6496 204.657 51.8029C204.657 52.9563 203.722 53.8913 202.568 53.8913Z" fill="#BEC5FF"/>
<path d="M57.2698 62.7581C57.6389 64.1359 56.8213 65.5521 55.4435 65.9212C54.0658 66.2904 52.6496 65.4728 52.2804 64.095C51.9112 62.7172 52.7289 61.3011 54.1066 60.9319C55.4844 60.5627 56.9006 61.3804 57.2698 62.7581Z" fill="#BEC5FF"/>
<path d="M95.9193 40.5835C94.0217 40.5835 92.4834 39.0452 92.4834 37.1476C92.4834 35.25 94.0217 33.7117 95.9193 33.7117C97.8169 33.7117 99.3552 35.25 99.3552 37.1476C99.3552 39.0452 97.8169 40.5835 95.9193 40.5835Z" fill="#BEC5FF"/>
<path d="M222.096 122.225C220.636 122.225 219.453 121.278 219.453 120.111C219.453 118.943 220.636 117.996 222.096 117.996C223.555 117.996 224.739 118.943 224.739 120.111C224.739 121.278 223.555 122.225 222.096 122.225Z" fill="#BEC5FF"/>
<path d="M69.6459 140.731C69.6459 142.828 67.9463 144.528 65.8496 144.528C63.753 144.528 62.0533 142.828 62.0533 140.731C62.0533 138.635 63.753 136.935 65.8496 136.935C67.9463 136.935 69.6459 138.635 69.6459 140.731Z" fill="#BEC5FF"/>
<path d="M196.757 116.942H196.827C197.236 122.743 201.55 122.832 201.55 122.832C201.55 122.832 196.793 122.925 196.793 129.628C196.793 122.925 192.036 122.832 192.036 122.832C192.036 122.832 196.348 122.743 196.757 116.942V116.942Z" fill="#BEC5FF"/>
<path d="M127.571 103.399H172.398M92.3497 141.821H182.004C189.077 141.821 194.812 136.087 194.812 129.014V39.3594C194.812 32.2859 189.077 26.5516 182.004 26.5516H117.965C110.892 26.5516 105.157 32.2859 105.157 39.3594V129.014C105.157 136.087 99.4232 141.821 92.3497 141.821C85.2759 141.821 79.5419 136.087 79.5419 129.014V58.5712C79.5419 51.4974 85.2759 45.7634 92.3497 45.7634H105.157L92.3497 141.821ZM127.571 52.1674H172.398H127.571ZM127.571 77.7829H172.398H127.571Z" stroke="#BEC5FF" stroke-width="1.19333" stroke-linecap="round" stroke-linejoin="round"/>
<path fill-rule="evenodd" clip-rule="evenodd" d="M81.0491 92.9437C81.0491 107.8 93.0916 119.843 107.948 119.843C122.804 119.843 134.847 107.8 134.847 92.9437C134.847 78.0876 122.804 66.0448 107.948 66.0448C93.0916 66.0448 81.0491 78.0876 81.0491 92.9437Z" fill="white" stroke="#5669FF" stroke-width="5.99113" stroke-linecap="round" stroke-linejoin="round"/>
<path d="M75.18 125.711L86.6733 114.218" stroke="#5669FF" stroke-width="5.99113" stroke-linecap="round" stroke-linejoin="round"/>
<path fill-rule="evenodd" clip-rule="evenodd" d="M161.398 125.511V113.11C161.399 111.06 161.936 109.046 162.958 107.269C163.98 105.492 165.45 104.013 167.222 102.982L178.94 96.1615C180.73 95.1203 182.764 94.5718 184.835 94.5718C186.906 94.5718 188.94 95.1203 190.73 96.1615L202.449 102.982C204.221 104.013 205.691 105.491 206.714 107.268C207.736 109.045 208.274 111.06 208.274 113.11V125.511C208.274 127.561 207.736 129.575 206.714 131.352C205.693 133.129 204.223 134.607 202.451 135.639L190.732 142.46C188.942 143.501 186.908 144.049 184.838 144.049C182.767 144.049 180.733 143.501 178.943 142.46L167.224 135.639C165.452 134.608 163.981 133.13 162.959 131.353C161.937 129.576 161.399 127.561 161.398 125.511Z" fill="#5669FF"/>
<path d="M184.836 119.311V107.592V119.311ZM184.834 128.425C184.748 128.425 184.664 128.442 184.585 128.475C184.506 128.507 184.434 128.555 184.374 128.616C184.314 128.677 184.266 128.748 184.234 128.827C184.201 128.907 184.185 128.991 184.185 129.077C184.185 129.206 184.224 129.332 184.295 129.439C184.367 129.546 184.469 129.629 184.588 129.679C184.707 129.728 184.838 129.741 184.965 129.715C185.091 129.69 185.207 129.627 185.298 129.536C185.389 129.445 185.451 129.328 185.476 129.202C185.5 129.075 185.487 128.944 185.437 128.825C185.388 128.706 185.304 128.605 185.196 128.534C185.089 128.462 184.963 128.425 184.834 128.425Z" stroke="white" stroke-width="3.90638" stroke-linecap="round" stroke-linejoin="round"/>
</g>
<defs>
<linearGradient id="paint0_linear_43_2547" x1="65.2885" y1="109.044" x2="59.0342" y2="80.9397" gradientUnits="userSpaceOnUse">
<stop stop-color="white"/>
<stop offset="1" stop-color="#EEEEEE"/>
</linearGradient>
<linearGradient id="paint1_linear_43_2547" x1="199.482" y1="99.7559" x2="221.745" y2="74.4351" gradientUnits="userSpaceOnUse">
<stop stop-color="white"/>
<stop offset="1" stop-color="#EEEEEE"/>
</linearGradient>
<linearGradient id="paint2_linear_43_2547" x1="75.4661" y1="62.9072" x2="56.4936" y2="28.4929" gradientUnits="userSpaceOnUse">
<stop stop-color="white"/>
<stop offset="1" stop-color="#EEEEEE"/>
</linearGradient>
<clipPath id="clip0_43_2547">
<rect width="268.5" height="179" fill="white"/>
</clipPath>
</defs>
</svg>
