<svg width="15" height="15" viewBox="0 0 15 15" fill="none" xmlns="http://www.w3.org/2000/svg">
<path d="M2.44231 3.88462C3.23887 3.88462 3.88462 3.23887 3.88462 2.44231C3.88462 1.64574 3.23887 1 2.44231 1C1.64574 1 1 1.64574 1 2.44231C1 3.23887 1.64574 3.88462 2.44231 3.88462Z" fill="#D7E0FF" stroke="#5669FF" stroke-width="1.5" stroke-linecap="round" stroke-linejoin="round"/>
<path d="M2.44231 8.69235C3.23887 8.69235 3.88462 8.04661 3.88462 7.25005C3.88462 6.45348 3.23887 5.80774 2.44231 5.80774C1.64574 5.80774 1 6.45348 1 7.25005C1 8.04661 1.64574 8.69235 2.44231 8.69235Z" fill="#D7E0FF" stroke="#5669FF" stroke-width="1.5" stroke-linecap="round" stroke-linejoin="round"/>
<path d="M7.25 3.88462C8.04657 3.88462 8.69231 3.23887 8.69231 2.44231C8.69231 1.64574 8.04657 1 7.25 1C6.45344 1 5.80769 1.64574 5.80769 2.44231C5.80769 3.23887 6.45344 3.88462 7.25 3.88462Z" fill="#D7E0FF" stroke="#5669FF" stroke-width="1.5" stroke-linecap="round" stroke-linejoin="round"/>
<path d="M7.25 8.69235C8.04657 8.69235 8.69231 8.04661 8.69231 7.25005C8.69231 6.45348 8.04657 5.80774 7.25 5.80774C6.45344 5.80774 5.80769 6.45348 5.80769 7.25005C5.80769 8.04661 6.45344 8.69235 7.25 8.69235Z" fill="#D7E0FF" stroke="#5669FF" stroke-width="1.5" stroke-linecap="round" stroke-linejoin="round"/>
<path d="M7.25 13.5C8.04657 13.5 8.69231 12.8542 8.69231 12.0577C8.69231 11.2611 8.04657 10.6154 7.25 10.6154C6.45344 10.6154 5.80769 11.2611 5.80769 12.0577C5.80769 12.8542 6.45344 13.5 7.25 13.5Z" fill="#D7E0FF" stroke="#5669FF" stroke-width="1.5" stroke-linecap="round" stroke-linejoin="round"/>
<path d="M12.0577 3.88462C12.8543 3.88462 13.5 3.23887 13.5 2.44231C13.5 1.64574 12.8543 1 12.0577 1C11.2611 1 10.6154 1.64574 10.6154 2.44231C10.6154 3.23887 11.2611 3.88462 12.0577 3.88462Z" fill="#D7E0FF" stroke="#5669FF" stroke-width="1.5" stroke-linecap="round" stroke-linejoin="round"/>
<path d="M12.0577 8.69235C12.8543 8.69235 13.5 8.04661 13.5 7.25005C13.5 6.45348 12.8543 5.80774 12.0577 5.80774C11.2611 5.80774 10.6154 6.45348 10.6154 7.25005C10.6154 8.04661 11.2611 8.69235 12.0577 8.69235Z" fill="#D7E0FF" stroke="#5669FF" stroke-width="1.5" stroke-linecap="round" stroke-linejoin="round"/>
</svg>
