<svg width="14" height="14" viewBox="0 0 14 14" fill="none" xmlns="http://www.w3.org/2000/svg">
<path d="M12.5312 7.34155C12.5312 8.82005 12.339 10.565 12.1904 12.0384C12.1419 12.5189 11.7602 12.9006 11.2787 12.9377C8.35528 13.1628 5.64472 13.1628 2.7213 12.9377C2.23977 12.9006 1.85812 12.5189 1.80963 12.0384C1.66096 10.565 1.46875 8.82005 1.46875 7.34155H12.5312Z" fill="white" stroke="#5669FF" stroke-width="1.5" stroke-linejoin="round"/>
<path d="M12.5312 7.34155C12.5312 6.16301 10.7824 3.65717 10.7824 3.65717L3.21764 3.65717C3.21764 3.65717 1.46875 6.16301 1.46875 7.34155H12.5312Z" fill="white" stroke="#5669FF" stroke-width="1.5" stroke-linejoin="round"/>
<path d="M7.0054 0.893492C5.96298 0.893492 4.949 0.938455 3.97693 0.976044C3.53298 0.993211 3.1484 1.30051 3.12305 1.74407C3.07068 2.66078 3.22781 3.65723 3.22781 3.65723L10.783 3.65723C10.783 3.65723 10.9401 2.66078 10.8877 1.74407C10.8624 1.30051 10.4778 0.993211 10.0339 0.976043C9.06181 0.938455 8.04783 0.893492 7.0054 0.893492Z" fill="white" stroke="#5669FF" stroke-width="1.5" stroke-linejoin="round"/>
<path d="M10.7824 3.65723C10.7824 3.65723 12.5313 6.16307 12.5313 7.34161H8.26788C8.45215 6.01684 9.9989 3.65723 9.9989 3.65723H10.7824Z" fill="#D7E0FF" stroke="#5669FF" stroke-width="1.5" stroke-linejoin="round"/>
<path d="M12.2304 11.6447C12.3713 10.2609 12.5312 8.69034 12.5312 7.34157L8.25 7.34155C8.25 8.74852 8.41472 10.3868 8.55985 11.8303C8.56389 11.8705 8.58933 12.1356 8.62743 12.5326C8.64301 12.6951 8.66072 12.8797 8.67995 13.08C9.53469 13.053 10.3971 13.0056 11.2789 12.9377C11.7604 12.9006 12.1419 12.5187 12.1904 12.0382C12.2034 11.909 12.2168 11.7777 12.2304 11.6447Z" fill="#D7E0FF" stroke="#5669FF" stroke-width="1.5" stroke-linejoin="round"/>
</svg>
