<svg width="14" height="14" viewBox="0 0 14 14" fill="none" xmlns="http://www.w3.org/2000/svg">
<path d="M7.29132 12.6971C7.99943 13.3438 9.07962 13.3863 9.85278 12.819C10.41 12.4101 10.9689 11.9775 11.4742 11.4722C11.9795 10.9669 12.4121 10.408 12.8209 9.85084C13.3883 9.07767 13.3457 7.99749 12.699 7.28937C10.8577 5.2732 8.96056 3.40428 6.90136 1.57652C6.65216 1.35533 6.35235 1.20187 6.02526 1.13827C4.83947 0.907718 1.88168 0.422153 1.15289 1.15094C0.424101 1.87973 0.909666 4.83752 1.14022 6.02332C1.20381 6.3504 1.35727 6.65021 1.57847 6.89942C3.40623 8.95862 5.27515 10.8558 7.29132 12.6971Z" fill="#C5D1FF"/>
<path d="M1.14022 6.02332L0.404005 6.16646L1.14022 6.02332ZM9.85278 12.819L10.2965 13.4237L9.85278 12.819ZM10.9438 10.9419C10.4802 11.4056 9.95879 11.811 9.40909 12.2143L10.2965 13.4237C10.8612 13.0093 11.4576 12.5495 12.0045 12.0026L10.9438 10.9419ZM12.2163 9.40715C11.8129 9.95684 11.4075 10.4782 10.9438 10.9419L12.0045 12.0026C12.5514 11.4556 13.0113 10.8592 13.4256 10.2945L12.2163 9.40715ZM1.68322 1.68127C1.6814 1.68309 1.78819 1.60152 2.15449 1.55244C2.48462 1.50821 2.90561 1.50529 3.37249 1.53349C4.30216 1.58964 5.30026 1.76135 5.88212 1.87448L6.16841 0.402058C5.56447 0.284635 4.49078 0.0982945 3.46291 0.0362174C2.95102 0.00530198 2.42181 0.00322764 1.95532 0.065724C1.525 0.123374 0.988778 0.254395 0.622561 0.620612L1.68322 1.68127ZM1.87643 5.88018C1.7633 5.29831 1.59158 4.30021 1.53544 3.37054C1.50724 2.90366 1.51016 2.48267 1.55439 2.15255C1.60346 1.78625 1.68504 1.67945 1.68322 1.68127L0.622561 0.620612C0.256343 0.98683 0.125323 1.52305 0.0676725 1.95337C0.00517582 2.41986 0.00725018 2.94907 0.0381653 3.46097C0.100242 4.48884 0.286583 5.56252 0.404005 6.16646L1.87643 5.88018ZM13.2528 6.7836C11.3937 4.74785 9.47779 2.86055 7.39923 1.01561L6.40349 2.13744C8.44334 3.94802 10.3218 5.79855 12.1452 7.79513L13.2528 6.7836ZM1.01756 7.39729C2.8625 9.47584 4.7498 11.3917 6.78555 13.2509L7.79708 12.1433C5.8005 10.3199 3.94997 8.44139 2.13938 6.40154L1.01756 7.39729ZM0.404005 6.16646C0.494636 6.6326 0.712262 7.05334 1.01756 7.39729L2.13938 6.40154C2.00229 6.24709 1.91299 6.06821 1.87643 5.88018L0.404005 6.16646ZM5.88212 1.87448C6.07016 1.91104 6.24903 2.00034 6.40349 2.13744L7.39923 1.01561C7.05528 0.710315 6.63455 0.492689 6.16841 0.402058L5.88212 1.87448ZM13.4256 10.2945C14.1979 9.24199 14.1478 7.76363 13.2528 6.7836L12.1452 7.79513C12.5436 8.23134 12.5786 8.91335 12.2163 9.40715L13.4256 10.2945ZM9.40909 12.2143C8.9153 12.5766 8.23329 12.5416 7.79708 12.1433L6.78555 13.2509C7.76558 14.1459 9.24393 14.196 10.2965 13.4237L9.40909 12.2143Z" fill="#5669FF"/>
</svg>
