<svg width="14" height="14" viewBox="0 0 14 14" fill="none" xmlns="http://www.w3.org/2000/svg">
<path d="M1.76527 11.0976C1.86013 12.0578 2.61516 12.8331 3.57179 12.959C4.68068 13.1049 5.82695 13.25 7 13.25C8.17306 13.25 9.31932 13.1049 10.4282 12.959C11.3848 12.8331 12.1399 12.0578 12.2347 11.0976C12.3654 9.77509 12.5 8.40449 12.5 7C12.5 6.17419 12.4535 5.36011 12.3886 4.56062C12.2324 2.6372 10.6954 1.03012 8.77459 0.844302C8.19098 0.787842 7.59898 0.75 7 0.75C5.82695 0.75 4.68068 0.89514 3.57179 1.04101C2.61516 1.16686 1.86013 1.94219 1.76526 2.90239C1.6346 4.22491 1.5 5.5955 1.5 7C1.5 8.40449 1.6346 9.77509 1.76527 11.0976Z" fill="#C5D1FF"/>
<path d="M12.3886 4.56062L13.1361 4.49993L12.3886 4.56062ZM8.77459 0.844302L8.84681 0.0977868L8.77459 0.844302ZM10.4282 12.959L10.526 13.7026L10.4282 12.959ZM12.2347 11.0976L11.4884 11.0239L12.2347 11.0976ZM3.57179 1.04101L3.47397 0.297418L3.57179 1.04101ZM1.76526 2.90239L2.51163 2.97613L1.76526 2.90239ZM3.57179 12.959L3.66961 12.2154L3.57179 12.959ZM1.76527 11.0976L1.0189 11.1713L1.76527 11.0976ZM7 12.5C5.88264 12.5 4.7822 12.3618 3.66961 12.2154L3.47397 13.7026C4.57915 13.848 5.77125 14 7 14V12.5ZM10.3304 12.2154C9.2178 12.3618 8.11736 12.5 7 12.5V14C8.22875 14 9.42085 13.848 10.526 13.7026L10.3304 12.2154ZM12.9811 11.1714C13.1113 9.8537 13.25 8.44717 13.25 7H11.75C11.75 8.36182 11.6195 9.69648 11.4884 11.0239L12.9811 11.1714ZM13.25 7C13.25 6.14671 13.2019 5.31082 13.1361 4.49993L11.641 4.62131C11.705 5.40939 11.75 6.20168 11.75 7H13.25ZM7 1.5C7.56789 1.5 8.13464 1.53589 8.70237 1.59082L8.84681 0.0977868C8.24732 0.0397912 7.63007 0 7 0V1.5ZM3.66961 1.78461C4.7822 1.63825 5.88264 1.5 7 1.5V0C5.77125 0 4.57915 0.152033 3.47397 0.297418L3.66961 1.78461ZM1.0189 2.82865C0.888719 4.1463 0.75 5.55283 0.75 7H2.25C2.25 5.63818 2.38049 4.30352 2.51163 2.97613L1.0189 2.82865ZM0.75 7C0.75 8.44717 0.888719 9.8537 1.0189 11.1713L2.51163 11.0239C2.38049 9.69648 2.25 8.36182 2.25 7H0.75ZM13.1361 4.49993C12.9515 2.22597 11.1403 0.319668 8.84681 0.0977868L8.70237 1.59082C10.2504 1.74058 11.5133 3.04843 11.641 4.62131L13.1361 4.49993ZM10.526 13.7026C11.8261 13.5316 12.8518 12.4806 12.9811 11.1714L11.4884 11.0239C11.428 11.6351 10.9436 12.1347 10.3304 12.2154L10.526 13.7026ZM3.47397 0.297418C2.17393 0.468437 1.14825 1.51943 1.0189 2.82865L2.51163 2.97613C2.57201 2.36495 3.05639 1.86527 3.66961 1.78461L3.47397 0.297418ZM3.66961 12.2154C3.05639 12.1347 2.57201 11.6351 2.51163 11.0239L1.0189 11.1713C1.14825 12.4806 2.17393 13.5316 3.47397 13.7026L3.66961 12.2154Z" fill="#5669FF"/>
<path d="M8.04597 2.75V4.93423H10.5001C11.5916 4.93423 12.4789 5.80859 12.4997 6.89509C12.496 6.10523 12.4507 5.32623 12.3885 4.56062C12.2324 2.6372 10.6953 1.03012 8.77456 0.844302C8.19095 0.787842 7.59895 0.75 6.99997 0.75C6.76606 0.75 6.53321 0.755771 6.30151 0.766168C7.28541 0.891649 8.04597 1.732 8.04597 2.75Z" fill="#F9F9F9" stroke="#5669FF" stroke-width="1.5" stroke-linejoin="round"/>
</svg>
