<svg width="14" height="14" viewBox="0 0 14 14" fill="none" xmlns="http://www.w3.org/2000/svg">
<path d="M3.28855 9.13813C4.46942 9.13813 5.42671 8.18085 5.42671 6.99998C5.42671 5.8191 4.46942 4.86182 3.28855 4.86182C2.10768 4.86182 1.15039 5.8191 1.15039 6.99998C1.15039 8.18085 2.10768 9.13813 3.28855 9.13813Z" fill="#C5D1FF" stroke="#5669FF" stroke-width="1.5" stroke-linecap="round" stroke-linejoin="round"/>
<path d="M10.7112 5.02632C11.892 5.02632 12.8493 4.06903 12.8493 2.88816C12.8493 1.70729 11.892 0.75 10.7112 0.75C9.53028 0.75 8.573 1.70729 8.573 2.88816C8.573 4.06903 9.53028 5.02632 10.7112 5.02632Z" fill="#C5D1FF" stroke="#5669FF" stroke-width="1.5" stroke-linecap="round" stroke-linejoin="round"/>
<path d="M10.7112 13.25C11.892 13.25 12.8493 12.2927 12.8493 11.1118C12.8493 9.93092 11.892 8.97363 10.7112 8.97363C9.53028 8.97363 8.573 9.93092 8.573 11.1118C8.573 12.2927 9.53028 13.25 10.7112 13.25Z" fill="#C5D1FF" stroke="#5669FF" stroke-width="1.5" stroke-linecap="round" stroke-linejoin="round"/>
<path d="M4.28003 5.12837C6.2325 4.02715 6.35098 4.01788 8.57296 3.39111" stroke="#5669FF" stroke-width="1.5" stroke-linecap="round" stroke-linejoin="round"/>
<path d="M4.28003 8.87163C6.2325 9.97285 6.35099 9.98212 8.57296 10.6089" stroke="#5669FF" stroke-width="1.5" stroke-linecap="round" stroke-linejoin="round"/>
</svg>
