<svg width="48" height="48" viewBox="0 0 48 48" fill="none" xmlns="http://www.w3.org/2000/svg">
<rect x="0.854187" width="46.3145" height="47.3437" rx="7.92163" fill="#5669FF"/>
<g filter="url(#filter0_d_299_416)">
<path d="M16.1429 19C15.155 21.4697 15.1634 28.2979 15.3376 31.6421C15.3757 32.3751 15.9875 32.9286 16.7214 32.9286H25.5643C26.2982 32.9286 26.91 32.3751 26.9481 31.6421C27.1223 28.2979 27.1307 21.4697 26.1428 19C25.5603 18.2234 24.1228 16.6233 22.3725 15.4395C21.6276 14.9357 20.6581 14.9357 19.9132 15.4395C18.1629 16.6233 16.7254 18.2234 16.1429 19Z" fill="#5669FF" stroke="white" stroke-width="2" stroke-linecap="round" stroke-linejoin="round"/>
<path d="M26.8555 22.9286H30.0819C31.2186 22.9286 32.1965 23.4831 32.4076 24.6C32.7314 26.3134 32.9423 29.2198 32.5714 32.9286H25.5642C26.2982 32.9286 26.9099 32.375 26.9481 31.6421C27.0605 29.4854 27.1038 25.8798 26.8555 22.9286Z" fill="#7C95EF" stroke="white" stroke-width="2" stroke-linecap="round" stroke-linejoin="round"/>
<path d="M20.4286 25.4286H21.8571" stroke="white" stroke-width="2" stroke-linecap="round" stroke-linejoin="round"/>
<path d="M21.1429 32.9324V29.7143" stroke="white" stroke-width="2" stroke-linecap="round" stroke-linejoin="round"/>
<path d="M20.4286 21.1429H21.8571" stroke="white" stroke-width="2" stroke-linecap="round" stroke-linejoin="round"/>
</g>
<defs>
<filter id="filter0_d_299_416" x="10" y="14" width="28" height="28" filterUnits="userSpaceOnUse" color-interpolation-filters="sRGB">
<feFlood flood-opacity="0" result="BackgroundImageFix"/>
<feColorMatrix in="SourceAlpha" type="matrix" values="0 0 0 0 0 0 0 0 0 0 0 0 0 0 0 0 0 0 127 0" result="hardAlpha"/>
<feOffset dy="4"/>
<feGaussianBlur stdDeviation="2"/>
<feComposite in2="hardAlpha" operator="out"/>
<feColorMatrix type="matrix" values="0 0 0 0 0 0 0 0 0 0 0 0 0 0 0 0 0 0 0.11 0"/>
<feBlend mode="normal" in2="BackgroundImageFix" result="effect1_dropShadow_299_416"/>
<feBlend mode="normal" in="SourceGraphic" in2="effect1_dropShadow_299_416" result="shape"/>
</filter>
</defs>
</svg>
