<svg width="15" height="15" viewBox="0 0 15 15" fill="none" xmlns="http://www.w3.org/2000/svg">
<path d="M2.41325 4.05604C1.71694 5.79681 1.72282 10.6097 1.84561 12.9669C1.87252 13.4835 2.30373 13.8737 2.82105 13.8737H9.05398C9.5713 13.8737 10.0025 13.4835 10.0294 12.9669C10.1522 10.6097 10.1581 5.79681 9.46178 4.05604C9.05121 3.5086 8.03795 2.38079 6.80426 1.54638C6.2792 1.19125 5.59583 1.19125 5.07077 1.54638C3.83708 2.38079 2.82382 3.5086 2.41325 4.05604Z" fill="#5669FF" stroke="#5669FF" stroke-width="1.40972" stroke-linecap="round" stroke-linejoin="round"/>
<path d="M9.96417 6.82507H12.2383C13.0395 6.82507 13.7288 7.21594 13.8776 8.00317C14.1059 9.21091 14.2545 11.2595 13.9931 13.8737H9.05402C9.57133 13.8737 10.0025 13.4835 10.0294 12.9669C10.1086 11.4467 10.1392 8.90523 9.96417 6.82507Z" fill="#D7E0FF" stroke="#5669FF" stroke-width="1.40972" stroke-linecap="round" stroke-linejoin="round"/>
<path d="M5.43408 8.58728H6.44102" stroke="white" stroke-width="1.40972" stroke-linecap="round" stroke-linejoin="round"/>
<path d="M5.93756 13.8763V11.608" stroke="white" stroke-width="1.40972" stroke-linecap="round" stroke-linejoin="round"/>
<path d="M5.43408 5.56641H6.44102" stroke="white" stroke-width="1.40972" stroke-linecap="round" stroke-linejoin="round"/>
</svg>
