<svg width="14" height="14" viewBox="0 0 14 14" fill="none" xmlns="http://www.w3.org/2000/svg">
<path d="M12.25 2.8645H5.65625C5.10397 2.8645 4.65625 3.31222 4.65625 3.8645V7.59367C4.65625 8.14595 5.10397 8.59367 5.65625 8.59367H12.25C12.8023 8.59367 13.25 8.14595 13.25 7.59367V3.8645C13.25 3.31222 12.8023 2.8645 12.25 2.8645Z" fill="#C5D1FF"/>
<path d="M12.5 7.21875C12.5 7.63296 12.8358 7.96875 13.25 7.96875C13.6642 7.96875 14 7.63296 14 7.21875H12.5ZM3.90625 5.09375C3.90625 5.50796 4.24204 5.84375 4.65625 5.84375C5.07046 5.84375 5.40625 5.50796 5.40625 5.09375H3.90625ZM5.65625 3.6145H12.25V2.1145H5.65625V3.6145ZM12.5 3.8645V7.21875H14V3.8645H12.5ZM5.40625 5.09375V3.8645H3.90625V5.09375H5.40625ZM12.25 3.6145C12.3881 3.6145 12.5 3.72643 12.5 3.8645H14C14 2.898 13.2165 2.1145 12.25 2.1145V3.6145ZM5.65625 2.1145C4.68975 2.1145 3.90625 2.898 3.90625 3.8645H5.40625C5.40625 3.72643 5.51818 3.6145 5.65625 3.6145V2.1145Z" fill="#5669FF"/>
<path d="M7.52075 0.75L8.95304 2.8645L10.3853 0.75" stroke="#5669FF" stroke-width="1.5" stroke-linecap="round" stroke-linejoin="round"/>
<path d="M6.48521 10.2857L6.36554 9.01936C6.28588 8.17636 5.68398 7.47489 4.86288 7.26809L3.92892 7.03286C3.12952 6.83153 2.30381 6.75496 1.48102 6.80587L0.768066 6.84998V11.1507L3.93699 12.6271C5.56201 13.3841 7.42877 13.4309 9.08964 12.756L12.3221 11.4427C12.8357 11.234 13.1026 10.6655 12.935 10.1371C12.7669 9.60672 12.2181 9.29588 11.6768 9.42436L7.37276 10.4459L6.48521 10.2857Z" fill="white"/>
<path d="M0.768067 6.84998L0.72175 6.10141C0.326278 6.12588 0.0180666 6.45375 0.0180666 6.84998L0.768067 6.84998ZM5.73853 10.3562C5.7775 10.7686 6.14339 11.0713 6.55577 11.0323C6.96814 10.9934 7.27085 10.6275 7.23188 10.2151L5.73853 10.3562ZM4.09236 9.09164C3.68473 9.01806 3.29464 9.28886 3.22106 9.69649C3.14749 10.1041 3.41829 10.4942 3.82591 10.5678L4.09236 9.09164ZM7.37276 10.4459L7.23954 11.1839C7.34116 11.2023 7.44548 11.1995 7.54596 11.1756L7.37276 10.4459ZM0.768066 11.1507H0.0180664C0.0180664 11.4423 0.187046 11.7074 0.451339 11.8305L0.768066 11.1507ZM9.08964 12.756L8.80732 12.0612L9.08964 12.756ZM12.3221 11.4427L12.0398 10.7478L12.3221 11.4427ZM6.36554 9.01936L5.61887 9.08992L6.36554 9.01936ZM5.61887 9.08992L5.73853 10.3562L7.23188 10.2151L7.11221 8.9488L5.61887 9.08992ZM3.82591 10.5678L7.23954 11.1839L7.50598 9.7078L4.09236 9.09164L3.82591 10.5678ZM7.54596 11.1756L11.85 10.1541L11.5036 8.69463L7.19957 9.71615L7.54596 11.1756ZM12.0398 10.7478L8.80732 12.0612L9.37195 13.4509L12.6044 12.1375L12.0398 10.7478ZM0.814383 7.59855L1.52733 7.55444L1.4347 6.0573L0.72175 6.10141L0.814383 7.59855ZM3.74575 7.76015L4.6797 7.99538L5.04605 6.5408L4.1121 6.30558L3.74575 7.76015ZM4.25372 11.9472L1.08479 10.4709L0.451339 11.8305L3.62026 13.3069L4.25372 11.9472ZM0.0180666 6.84998L0.0180664 11.1507H1.51807L1.51807 6.84998L0.0180666 6.84998ZM1.52733 7.55444C2.27299 7.5083 3.02129 7.57769 3.74575 7.76015L4.1121 6.30558C3.23775 6.08536 2.33463 6.00162 1.4347 6.0573L1.52733 7.55444ZM8.80732 12.0612C7.33955 12.6576 5.68981 12.6163 4.25372 11.9472L3.62026 13.3069C5.4342 14.152 7.518 14.2041 9.37195 13.4509L8.80732 12.0612ZM11.85 10.1541C12.0092 10.1163 12.1706 10.2077 12.2201 10.3638L13.65 9.91037C13.3631 9.0057 12.427 8.47547 11.5036 8.69463L11.85 10.1541ZM12.2201 10.3638C12.2694 10.5192 12.1909 10.6865 12.0398 10.7478L12.6044 12.1375C13.4806 11.7815 13.9358 10.8118 13.65 9.91037L12.2201 10.3638ZM7.11221 8.9488C7.00267 7.78968 6.17507 6.82516 5.04605 6.5408L4.6797 7.99538C5.19289 8.12463 5.56908 8.56305 5.61887 9.08992L7.11221 8.9488Z" fill="#5669FF"/>
<path d="M9.70312 2.8645C9.70312 2.45029 9.36734 2.1145 8.95312 2.1145C8.53891 2.1145 8.20312 2.45029 8.20312 2.8645L9.70312 2.8645ZM8.20313 7.9375C8.20313 8.35171 8.53891 8.6875 8.95313 8.6875C9.36734 8.6875 9.70313 8.35171 9.70313 7.9375L8.20313 7.9375ZM8.20312 2.8645L8.20313 7.9375L9.70313 7.9375L9.70312 2.8645L8.20312 2.8645Z" fill="#5669FF"/>
</svg>
