<svg width="26" height="26" viewBox="0 0 26 26" fill="none" xmlns="http://www.w3.org/2000/svg">
<path d="M4.65967 20.8172C4.88154 22.408 6.09941 23.6917 7.69355 23.8884C11.2778 24.3308 14.7226 24.3308 18.3069 23.8884C19.901 23.6917 21.1189 22.408 21.3407 20.8171L23.7065 3.85476C23.8622 2.73789 22.9948 1.74109 21.8671 1.74109L4.13328 1.74109C3.0056 1.74109 2.13817 2.73789 2.29394 3.85476L4.65967 20.8172Z" fill="#5669FF" stroke="white" stroke-width="2.78571"/>
<path d="M7.69347 23.8884C6.09934 23.6916 4.88146 22.408 4.65959 20.8171L3.02625 8.98046C9.65957 8.59427 16.3589 8.53355 22.9914 8.98155L21.3407 20.8171C21.1188 22.408 19.9009 23.6916 18.3068 23.8884C14.7225 24.3308 11.2778 24.3308 7.69347 23.8884Z" fill="#7C95EF" stroke="white" stroke-width="2.78571"/>
</svg>
