<svg width="293" height="267" viewBox="0 0 293 267" fill="none" xmlns="http://www.w3.org/2000/svg">
<g clip-path="url(#clip0_406_464)">
<path fill-rule="evenodd" clip-rule="evenodd" d="M164.433 102.021C159.614 100.004 154.451 98.6939 149.077 98.2254C125.855 96.2062 105.488 109.129 96.4991 128.472L119.857 148.166L126.231 137.119C126.429 136.775 126.699 136.478 127.023 136.247C127.347 136.017 127.716 135.859 128.107 135.784L155.568 130.508L164.433 102.021V102.021ZM169.475 104.456L160.363 133.738C160.214 134.216 159.938 134.646 159.565 134.98C159.191 135.314 158.734 135.54 158.242 135.634L130.395 140.984L123 153.8C122.798 154.151 122.521 154.453 122.189 154.685C121.857 154.917 121.478 155.074 121.08 155.144C120.681 155.214 120.271 155.195 119.88 155.09C119.489 154.984 119.126 154.795 118.816 154.533L94.338 133.894C92.0941 140.586 91.1534 147.884 91.8145 155.488C93.9931 180.547 114.49 201.044 139.549 203.222C172.485 206.086 199.675 178.901 196.812 145.96C195.268 128.205 184.523 112.738 169.475 104.456ZM146.939 155.831C147.116 155.2 147.509 154.653 148.05 154.285C148.592 153.917 149.246 153.753 149.897 153.822L181.621 157.163C182.095 157.213 182.548 157.385 182.936 157.661C183.324 157.937 183.635 158.309 183.837 158.741C184.04 159.172 184.128 159.648 184.092 160.124C184.057 160.599 183.899 161.057 183.635 161.453L161.687 194.374C161.46 194.715 161.161 195.001 160.81 195.212C160.459 195.422 160.066 195.553 159.658 195.594C159.251 195.634 158.84 195.584 158.454 195.447C158.068 195.309 157.718 195.088 157.428 194.799L141.859 179.279C141.511 178.932 141.262 178.498 141.137 178.023C141.011 177.547 141.015 177.047 141.147 176.573L146.939 155.831V155.831ZM151.644 159.574L146.918 176.502L158.95 188.496L176.486 162.191L151.644 159.574Z" fill="url(#paint0_linear_406_464)"/>
<path fill-rule="evenodd" clip-rule="evenodd" d="M147.49 194.623L120.23 194.615C111.626 194.615 104.649 187.635 104.649 179.026V175.142C104.649 166.534 111.626 159.557 120.234 159.557H147.494L162.576 149.25C167.749 145.717 174.765 149.422 174.765 155.685V198.503C174.765 204.766 167.745 208.471 162.576 204.934L147.49 194.623V194.623Z" fill="white" stroke="#BEC5FF" stroke-width="1.18222"/>
<path d="M116.338 194.623L122.294 209.651C123.357 212.339 125.936 214.1 128.799 214.1C133.75 214.1 137.139 209.059 135.312 204.412L131.459 194.623M147.495 159.565V194.623V159.565Z" stroke="#BEC5FF" stroke-width="1.18222"/>
<path d="M230.423 148.428C222.373 150.335 213.859 143.508 213.859 143.508C213.859 143.508 218.402 133.592 226.455 131.691C234.505 129.784 243.017 136.605 243.017 136.605C243.017 136.605 238.473 146.521 230.423 148.428V148.428Z" fill="url(#paint1_linear_406_464)"/>
<path d="M202.007 201.093C204.301 199.522 204.527 195.862 204.527 195.862C204.527 195.862 201.034 194.75 198.742 196.323C196.448 197.894 196.22 201.552 196.22 201.552C196.22 201.552 199.713 202.664 202.007 201.093Z" fill="url(#paint2_linear_406_464)"/>
<path d="M40.4594 172.376C44.1337 176.116 51.0042 175.328 51.0042 175.328C51.0042 175.328 51.9133 168.476 48.2357 164.739C44.5617 160.999 37.6945 161.785 37.6945 161.785C37.6945 161.785 36.7853 168.637 40.4594 172.376Z" fill="url(#paint3_linear_406_464)"/>
<path d="M214.393 171.806C211.913 171.806 209.903 173.816 209.903 176.296C209.903 178.776 211.913 180.786 214.393 180.786C216.872 180.786 218.882 178.776 218.882 176.296C218.882 173.816 216.872 171.806 214.393 171.806Z" fill="#5669FF"/>
<path d="M137.481 147.601C136.295 147.601 135.334 148.562 135.334 149.748C135.334 150.934 136.295 151.895 137.481 151.895C138.667 151.895 139.628 150.934 139.628 149.748C139.628 148.562 138.667 147.601 137.481 147.601Z" fill="#5669FF"/>
<path d="M77.468 131.815C74.2804 131.815 71.6963 129.231 71.6963 126.043C71.6963 122.856 74.2804 120.272 77.468 120.272C80.6555 120.272 83.2396 122.856 83.2396 126.043C83.2396 129.231 80.6555 131.815 77.468 131.815Z" fill="#5669FF"/>
<path d="M182.087 117.345C179.122 117.345 176.718 114.941 176.718 111.976C176.718 109.011 179.122 106.607 182.087 106.607C185.052 106.607 187.456 109.011 187.456 111.976C187.456 114.941 185.052 117.345 182.087 117.345Z" fill="#5669FF"/>
<path d="M233.132 162.436C231.515 162.436 230.204 161.125 230.204 159.508C230.204 157.891 231.515 156.58 233.132 156.58C234.749 156.58 236.06 157.891 236.06 159.508C236.06 161.125 234.749 162.436 233.132 162.436Z" fill="#BEC5FF"/>
<path d="M27.9665 219.827C26.2435 219.827 24.8467 218.43 24.8467 216.707C24.8467 214.984 26.2435 213.587 27.9665 213.587C29.6896 213.587 31.0864 214.984 31.0864 216.707C31.0864 218.43 29.6896 219.827 27.9665 219.827Z" fill="white"/>
<path d="M65.9047 148.508C64.5226 148.508 63.4022 147.387 63.4022 146.005C63.4022 144.623 64.5226 143.503 65.9047 143.503C67.2867 143.503 68.4071 144.623 68.4071 146.005C68.4071 147.387 67.2867 148.508 65.9047 148.508Z" fill="#BEC5FF"/>
<path d="M215.927 117.485C213.817 117.485 212.107 115.775 212.107 113.665C212.107 111.556 213.817 109.846 215.927 109.846C218.036 109.846 219.746 111.556 219.746 113.665C219.746 115.775 218.036 117.485 215.927 117.485Z" fill="#BEC5FF"/>
<path d="M52.765 175.998C53.1221 177.331 52.3311 178.701 50.9984 179.058C49.6656 179.415 48.2957 178.624 47.9385 177.291C47.5814 175.958 48.3724 174.588 49.7051 174.231C51.0379 173.874 52.4078 174.665 52.765 175.998Z" fill="white"/>
<path d="M92.1979 111.302C90.3623 111.302 88.8743 109.814 88.8743 107.979C88.8743 106.143 90.3623 104.655 92.1979 104.655C94.0334 104.655 95.5214 106.143 95.5214 107.979C95.5214 109.814 94.0334 111.302 92.1979 111.302Z" fill="#BEC5FF"/>
<path d="M212.353 185.122C210.941 185.122 209.796 184.206 209.796 183.076C209.796 181.947 210.941 181.031 212.353 181.031C213.765 181.031 214.909 181.947 214.909 183.076C214.909 184.206 213.765 185.122 212.353 185.122Z" fill="white"/>
<path d="M253.646 220.297C251.581 221.304 249.261 220.799 248.466 219.169C247.67 217.538 248.7 215.4 250.765 214.392C252.831 213.384 255.15 213.889 255.945 215.52C256.741 217.15 255.711 219.289 253.646 220.297Z" fill="white"/>
<path d="M165.206 87.5888C165.897 90.1699 164.366 92.8229 161.785 93.5145C159.203 94.2061 156.55 92.6743 155.859 90.0933C155.167 87.5123 156.699 84.8593 159.28 84.1677C161.861 83.4761 164.514 85.0078 165.206 87.5888Z" fill="#BEC5FF"/>
<path d="M53.2292 131.984H53.296C53.692 137.595 57.8653 137.682 57.8653 137.682C57.8653 137.682 53.2635 137.772 53.2635 144.255C53.2635 137.772 48.6617 137.682 48.6617 137.682C48.6617 137.682 52.8331 137.595 53.2292 131.984V131.984ZM87.5854 194.841H87.6525C88.0486 200.452 92.2215 200.538 92.2215 200.538C92.2215 200.538 87.6197 200.628 87.6197 207.112C87.6197 200.628 83.0179 200.538 83.0179 200.538C83.0179 200.538 87.1894 200.452 87.5854 194.841ZM108.565 89.0386H108.614C108.899 93.1444 111.909 93.2077 111.909 93.2077C111.909 93.2077 108.59 93.2736 108.59 98.0178C108.59 93.2736 105.272 93.2077 105.272 93.2077C105.272 93.2077 108.28 93.1444 108.565 89.0386Z" fill="#BEC5FF"/>
<path d="M147.496 113.029C147.496 105.861 141.686 100.051 134.518 100.051C127.351 100.051 121.541 105.861 121.541 113.029C121.541 120.196 127.351 126.006 134.518 126.006C141.686 126.006 147.496 120.196 147.496 113.029Z" fill="#5669FF"/>
<path fill-rule="evenodd" clip-rule="evenodd" d="M140.417 118.472V119.34C140.417 119.819 140.033 120.208 139.56 120.208H129.284C128.812 120.208 128.428 119.819 128.428 119.34V118.459C128.428 115.833 131.389 114.127 134.422 114.127C137.455 114.127 140.417 115.834 140.417 118.459V118.472ZM136.571 106.503C137.759 107.691 137.759 109.616 136.571 110.803C135.384 111.991 133.459 111.991 132.271 110.803C131.084 109.616 131.084 107.691 132.271 106.503C133.459 105.316 135.384 105.316 136.571 106.503Z" fill="white"/>
<path d="M209.919 143.628C209.919 136.461 204.109 130.651 196.942 130.651C189.775 130.651 183.965 136.461 183.965 143.628C183.965 150.796 189.775 156.606 196.942 156.606C204.109 156.606 209.919 150.796 209.919 143.628Z" fill="#5669FF"/>
<path fill-rule="evenodd" clip-rule="evenodd" d="M202.84 149.072V149.94C202.84 150.419 202.456 150.808 201.984 150.808H191.708C191.235 150.808 190.851 150.419 190.851 149.94V149.058C190.851 146.433 193.812 144.726 196.845 144.726C199.879 144.726 202.84 146.433 202.84 149.058V149.072ZM198.995 137.103C200.182 138.291 200.182 140.216 198.995 141.403C197.808 142.591 195.882 142.591 194.695 141.403C193.507 140.216 193.507 138.291 194.695 137.103C195.882 135.916 197.808 135.916 198.995 137.103V137.103Z" fill="white"/>
<path d="M99.1488 160.458C99.1488 153.291 93.3386 147.48 86.1715 147.48C79.0044 147.48 73.1942 153.291 73.1942 160.458C73.1942 167.625 79.0044 173.435 86.1715 173.435C93.3386 173.435 99.1488 167.625 99.1488 160.458Z" fill="#5669FF"/>
<path fill-rule="evenodd" clip-rule="evenodd" d="M92.0693 165.902V166.77C92.0693 167.249 91.6857 167.638 91.2131 167.638H80.9372C80.4643 167.638 80.0807 167.249 80.0807 166.77V165.888C80.0807 163.262 83.0419 161.556 86.0751 161.556C89.1081 161.556 92.0693 163.263 92.0693 165.888V165.902ZM88.2244 153.933C89.412 155.12 89.412 157.046 88.2244 158.233C87.0369 159.42 85.1119 159.42 83.9244 158.233C82.7368 157.046 82.7368 155.12 83.9244 153.933C85.1119 152.746 87.0369 152.746 88.2244 153.933Z" fill="white"/>
<path fill-rule="evenodd" clip-rule="evenodd" d="M127.126 181.837L130.416 183.552C131.057 183.886 131.805 183.346 131.683 182.638L131.055 179.003L133.717 176.431C134.236 175.929 133.949 175.057 133.234 174.953L129.554 174.423L127.909 171.113C127.589 170.468 126.662 170.468 126.343 171.113L124.697 174.423L121.018 174.955C120.303 175.057 120.016 175.932 120.535 176.433L123.197 179.005L122.569 182.64C122.447 183.348 123.195 183.888 123.836 183.554L127.126 181.837Z" fill="#BEC5FF"/>
</g>
<path opacity="0.2" d="M5.99999 143.5L5.03789 143.227L5.99999 143.5ZM214 62.5L213.775 61.5257L214 62.5ZM288.37 1.00699C288.098 0.526487 287.487 0.357695 287.007 0.629978L279.177 5.06709C278.696 5.33937 278.527 5.94963 278.8 6.43013C279.072 6.91063 279.682 7.07942 280.163 6.80714L287.123 2.86303L291.067 9.82321C291.339 10.3037 291.95 10.4725 292.43 10.2002C292.911 9.92794 293.079 9.31769 292.807 8.83719L288.37 1.00699ZM72.1635 264.752C70.7815 263.526 69.1049 262.217 67.2091 260.815L66.0202 262.423C67.8967 263.811 69.5191 265.08 70.8365 266.248L72.1635 264.752ZM56.9589 253.524C53.7772 251.27 50.3714 248.815 46.873 246.13L45.6553 247.717C49.183 250.424 52.6123 252.896 55.8027 255.156L56.9589 253.524ZM37.2115 238.226C34.1598 235.545 31.1319 232.679 28.212 229.611L26.7633 230.99C29.73 234.107 32.802 237.014 35.8915 239.728L37.2115 238.226ZM20.1474 220.163C17.6786 216.908 15.3775 213.461 13.3133 209.811L11.5724 210.795C13.6846 214.531 16.036 218.051 18.5537 221.372L20.1474 220.163ZM8.04359 198.615C6.61255 194.844 5.44328 190.885 4.59177 186.726L2.63241 187.127C3.50616 191.395 4.70595 195.457 6.17374 199.324L8.04359 198.615ZM3.07918 174.454C2.90091 170.493 3.00368 166.37 3.42554 162.076L1.43512 161.88C1.00413 166.267 0.898559 170.486 1.0812 174.544L3.07918 174.454ZM5.42311 149.816C5.86972 147.835 6.3817 145.82 6.9621 143.773L5.03789 143.227C4.4478 145.309 3.92683 147.359 3.47206 149.376L5.42311 149.816ZM6.9621 143.773C7.51799 141.811 8.11563 139.904 8.7535 138.049L6.86219 137.399C6.21215 139.289 5.60357 141.231 5.03789 143.227L6.9621 143.773ZM13.2588 127.106C15.0451 123.433 17.017 120.005 19.1582 116.804L17.4958 115.692C15.303 118.97 13.2858 122.478 11.4602 126.231L13.2588 127.106ZM26.4232 107.472C29.1 104.505 31.956 101.78 34.9715 99.2757L33.6936 97.7372C30.6069 100.301 27.6813 103.092 24.9383 106.132L26.4232 107.472ZM44.5799 92.3359C47.9176 90.2418 51.3974 88.3485 54.999 86.6348L54.1397 84.8288C50.4733 86.5733 46.9251 88.5035 43.517 90.6418L44.5799 92.3359ZM65.9817 82.072C69.6811 80.7363 73.4753 79.5496 77.346 78.4927L76.8192 76.5634C72.9021 77.6329 69.0567 78.8353 65.3024 80.1909L65.9817 82.072ZM88.9611 75.7348C92.8333 74.9413 96.7588 74.2518 100.721 73.6486L100.42 71.6714C96.4281 72.2791 92.4688 72.9745 88.5596 73.7756L88.9611 75.7348ZM112.583 72.0935C116.542 71.6506 120.519 71.2747 124.498 70.9488L124.335 68.9554C120.339 69.2827 116.342 69.6605 112.361 70.1059L112.583 72.0935ZM136.444 70.1026C140.458 69.8569 144.456 69.6448 148.423 69.4489L148.324 67.4513C144.353 67.6475 140.346 67.86 136.322 68.1064L136.444 70.1026ZM160.399 68.8826C164.461 68.6928 168.469 68.5007 172.403 68.2863L172.294 66.2893C168.368 66.5033 164.367 66.695 160.306 66.8848L160.399 68.8826ZM184.404 67.5227C188.514 67.2134 192.514 66.8519 196.376 66.4115L196.15 64.4244C192.319 64.8612 188.345 65.2205 184.254 65.5284L184.404 67.5227ZM208.302 64.6885C210.331 64.3211 212.308 63.9181 214.225 63.4743L213.775 61.5257C211.891 61.9615 209.947 62.3582 207.946 62.7205L208.302 64.6885ZM214.225 63.4743C216.309 62.9922 218.341 62.4679 220.324 61.9046L219.778 59.9807C217.827 60.535 215.826 61.0511 213.775 61.5257L214.225 63.4743ZM232.218 57.8502C236.26 56.2278 240.054 54.4391 243.611 52.5222L242.662 50.7616C239.171 52.6431 235.445 54.3999 231.473 55.9941L232.218 57.8502ZM254.314 45.9121C257.898 43.3909 261.169 40.7505 264.145 38.0524L262.801 36.5708C259.885 39.215 256.678 41.8037 253.163 44.2763L254.314 45.9121ZM272.915 29.0187C275.835 25.5929 278.326 22.1825 280.418 18.9063L278.732 17.8299C276.688 21.0303 274.253 24.3667 271.393 27.7212L272.915 29.0187ZM286.348 7.74967C287.268 5.57069 287.969 3.55712 288.464 1.76659L286.536 1.23341C286.067 2.93057 285.396 4.8623 284.505 6.97201L286.348 7.74967Z" fill="#555555"/>
<defs>
<linearGradient id="paint0_linear_406_464" x1="146.561" y1="262.529" x2="143.31" y2="-16.6517" gradientUnits="userSpaceOnUse">
<stop stop-color="white"/>
<stop offset="1" stop-color="#EEEEEE"/>
</linearGradient>
<linearGradient id="paint1_linear_406_464" x1="200.108" y1="153.17" x2="270.58" y2="119.877" gradientUnits="userSpaceOnUse">
<stop stop-color="white"/>
<stop offset="1" stop-color="#EEEEEE"/>
</linearGradient>
<linearGradient id="paint2_linear_406_464" x1="210.038" y1="194.626" x2="185.83" y2="204.626" gradientUnits="userSpaceOnUse">
<stop stop-color="white"/>
<stop offset="1" stop-color="#EEEEEE"/>
</linearGradient>
<linearGradient id="paint3_linear_406_464" x1="55.1189" y1="185.15" x2="28.5565" y2="143.511" gradientUnits="userSpaceOnUse">
<stop stop-color="white"/>
<stop offset="1" stop-color="#EEEEEE"/>
</linearGradient>
<clipPath id="clip0_406_464">
<rect width="266" height="177.333" fill="white" transform="translate(8 64)"/>
</clipPath>
</defs>
</svg>
