<svg width="14" height="14" viewBox="0 0 14 14" fill="none" xmlns="http://www.w3.org/2000/svg">
<path d="M12.7855 8.50969C12.9001 8.45008 12.9986 8.36377 13.0728 8.25804C13.5883 7.5231 11.4892 5.7409 11.34 4.66976C10.9365 1.77268 8.66176 0.75 6.12956 0.75C2.71695 0.75 0.75 2.5 0.75 6C0.75 8.39369 1.37514 9.19578 2.1311 10.419C2.54554 11.0896 2.72127 11.8732 2.71927 12.6615C2.71804 13.1461 2.71695 13.667 2.71695 13.993H8.73548V12.2497C8.79047 11.8043 9.18782 11.5047 9.63655 11.5047H10.1299C10.9583 11.5047 11.6299 10.8331 11.6299 10.0047V8.62022L12.4146 8.60049C12.5437 8.60044 12.671 8.56929 12.7855 8.50969Z" fill="#C5D1FF"/>
<path d="M1.96695 13.25C1.96695 13.6642 2.30274 14 2.71695 14C3.13116 14 3.46695 13.6642 3.46695 13.25H1.96695ZM0.75 6.00009H1.5H0.75ZM3.35999 2.10521C3.72155 1.9031 3.8508 1.44615 3.64868 1.0846C3.44656 0.723041 2.98961 0.593792 2.62806 0.79591L3.35999 2.10521ZM2.71781 12.6677L1.96782 12.6657L2.71781 12.6677ZM2.12788 10.4139L1.48998 10.8083L2.12788 10.4139ZM1.96782 12.6657C1.9673 12.8645 1.96695 13.0658 1.96695 13.25H3.46695C3.46695 13.0675 3.46729 12.8676 3.46781 12.6697L1.96782 12.6657ZM0 6.00009C0 7.264 0.16535 8.15731 0.45575 8.91434C0.737959 9.65003 1.13396 10.2325 1.48998 10.8083L2.76579 10.0194C2.36729 9.37494 2.07435 8.94568 1.85624 8.37711C1.64633 7.8299 1.5 7.12646 1.5 6.00009H0ZM1.5 6.00009C1.5 3.96889 2.2089 2.7487 3.35999 2.10521L2.62806 0.79591C0.875985 1.77536 0 3.58818 0 6.00009H1.5ZM3.46781 12.6697C3.47017 11.7692 3.27115 10.8368 2.76579 10.0194L1.48998 10.8083C1.81789 11.3386 1.96961 11.9817 1.96782 12.6657L3.46781 12.6697Z" fill="#5669FF"/>
<path d="M6.50195 5.00391V0.75" stroke="#5669FF" stroke-width="1.5" stroke-linecap="round" stroke-linejoin="round"/>
<path d="M6.50195 9C7.78195 9 8.50195 8.28 8.50195 7C8.50195 5.72 7.78195 5 6.50195 5C5.22195 5 4.50195 5.72 4.50195 7C4.50195 8.28 5.22195 9 6.50195 9Z" fill="white"/>
<path d="M7.75195 7C7.75195 7.50195 7.6131 7.78819 7.45162 7.94967C7.29014 8.11115 7.0039 8.25 6.50195 8.25V9.75C7.28 9.75 7.99376 9.52885 8.51228 9.01033C9.03081 8.49181 9.25195 7.77805 9.25195 7H7.75195ZM6.50195 8.25C6 8.25 5.71376 8.11115 5.55228 7.94967C5.39081 7.78819 5.25195 7.50195 5.25195 7H3.75195C3.75195 7.77805 3.9731 8.49181 4.49162 9.01033C5.01015 9.52885 5.7239 9.75 6.50195 9.75V8.25ZM5.25195 7C5.25195 6.49805 5.39081 6.21181 5.55228 6.05033C5.71376 5.88885 6 5.75 6.50195 5.75V4.25C5.7239 4.25 5.01015 4.47115 4.49162 4.98967C3.9731 5.50819 3.75195 6.22195 3.75195 7H5.25195ZM6.50195 5.75C7.0039 5.75 7.29014 5.88885 7.45162 6.05033C7.6131 6.21181 7.75195 6.49805 7.75195 7H9.25195C9.25195 6.22195 9.03081 5.50819 8.51228 4.98967C7.99376 4.47115 7.28 4.25 6.50195 4.25V5.75Z" fill="#5669FF"/>
<path d="M7 8.96484C8 9.96484 10 11 12.5 11" stroke="#5669FF" stroke-width="1.5" stroke-linecap="round"/>
<path d="M13.0728 8.25811L13.6868 8.68882L13.0728 8.25811ZM12.4146 8.60056L12.4143 7.85056C12.4081 7.85056 12.4019 7.85064 12.3957 7.8508L12.4146 8.60056ZM11.6111 7.87052C11.197 7.88093 10.8697 8.22505 10.8801 8.63913C10.8906 9.05321 11.2347 9.38046 11.6488 9.37005L11.6111 7.87052ZM11.34 4.66982L12.0828 4.56637L11.34 4.66982ZM9.38404 0.675773C9.01257 0.492528 8.56288 0.645118 8.37963 1.01659C8.19638 1.38807 8.34898 1.83776 8.72045 2.021L9.38404 0.675773ZM12.4588 7.8274C12.4538 7.83455 12.4471 7.84039 12.4394 7.84442L13.1317 9.17509C13.3531 9.05991 13.5435 8.89312 13.6868 8.68882L12.4588 7.8274ZM12.4394 7.84442C12.4316 7.84845 12.423 7.85056 12.4143 7.85056L12.4149 9.35056C12.6645 9.35046 12.9103 9.29027 13.1317 9.17509L12.4394 7.84442ZM12.3957 7.8508L11.6111 7.87052L11.6488 9.37005L12.4334 9.35032L12.3957 7.8508ZM10.5972 4.77328C10.6586 5.21422 10.8986 5.64451 11.1136 5.98201C11.3375 6.33334 11.6217 6.71249 11.8451 7.02566C12.0874 7.36517 12.2626 7.63282 12.3543 7.84062C12.4634 8.08811 12.3436 7.99167 12.4588 7.8274L13.6868 8.68882C14.0598 8.15709 13.8709 7.56226 13.7268 7.23542C13.5651 6.86888 13.3029 6.48623 13.0662 6.15443C12.8106 5.79628 12.5743 5.48311 12.3787 5.17606C12.1743 4.85516 12.096 4.661 12.0828 4.56637L10.5972 4.77328ZM8.72045 2.021C9.68171 2.49518 10.3966 3.33309 10.5972 4.77328L12.0828 4.56637C11.8138 2.63447 10.7914 1.37001 9.38404 0.675773L8.72045 2.021Z" fill="#5669FF"/>
<path d="M7.9856 13.25C7.9856 13.6642 8.32138 14 8.7356 14C9.14981 14 9.4856 13.6642 9.4856 13.25H7.9856ZM9.4856 12.7498C9.4856 12.3355 9.14981 11.9998 8.7356 11.9998C8.32138 11.9998 7.9856 12.3355 7.9856 12.7498H9.4856ZM7.9856 12.7498C7.9856 12.7502 7.9856 12.7507 7.9856 12.7512C7.9856 12.7517 7.9856 12.7522 7.9856 12.7527C7.9856 12.7532 7.9856 12.7536 7.9856 12.7541C7.9856 12.7546 7.9856 12.7551 7.9856 12.7556C7.9856 12.7561 7.9856 12.7565 7.9856 12.757C7.9856 12.7575 7.9856 12.758 7.9856 12.7585C7.9856 12.7589 7.9856 12.7594 7.9856 12.7599C7.9856 12.7604 7.9856 12.7608 7.9856 12.7613C7.9856 12.7618 7.9856 12.7623 7.9856 12.7627C7.9856 12.7632 7.9856 12.7637 7.9856 12.7641C7.9856 12.7646 7.9856 12.7651 7.9856 12.7655C7.9856 12.766 7.9856 12.7665 7.9856 12.7669C7.9856 12.7674 7.9856 12.7679 7.9856 12.7683C7.9856 12.7688 7.9856 12.7693 7.9856 12.7697C7.9856 12.7702 7.9856 12.7707 7.9856 12.7711C7.9856 12.7716 7.9856 12.772 7.9856 12.7725C7.9856 12.773 7.9856 12.7734 7.9856 12.7739C7.9856 12.7743 7.9856 12.7748 7.9856 12.7752C7.9856 12.7757 7.9856 12.7762 7.9856 12.7766C7.9856 12.7771 7.9856 12.7775 7.9856 12.778C7.9856 12.7784 7.9856 12.7789 7.9856 12.7793C7.9856 12.7798 7.9856 12.7802 7.9856 12.7807C7.9856 12.7811 7.9856 12.7816 7.9856 12.782C7.9856 12.7825 7.9856 12.7829 7.9856 12.7834C7.9856 12.7838 7.9856 12.7842 7.9856 12.7847C7.9856 12.7851 7.9856 12.7856 7.9856 12.786C7.9856 12.7865 7.9856 12.7869 7.9856 12.7873C7.9856 12.7878 7.9856 12.7882 7.9856 12.7887C7.9856 12.7891 7.9856 12.7895 7.9856 12.79C7.9856 12.7904 7.9856 12.7908 7.9856 12.7913C7.9856 12.7917 7.9856 12.7921 7.9856 12.7926C7.9856 12.793 7.9856 12.7934 7.9856 12.7939C7.9856 12.7943 7.9856 12.7947 7.9856 12.7952C7.9856 12.7956 7.9856 12.796 7.9856 12.7965C7.9856 12.7969 7.9856 12.7973 7.9856 12.7977C7.9856 12.7982 7.9856 12.7986 7.9856 12.799C7.9856 12.7994 7.9856 12.7999 7.9856 12.8003C7.9856 12.8007 7.9856 12.8011 7.9856 12.8016C7.9856 12.802 7.9856 12.8024 7.9856 12.8028C7.9856 12.8032 7.9856 12.8037 7.9856 12.8041C7.9856 12.8045 7.9856 12.8049 7.9856 12.8053C7.9856 12.8057 7.9856 12.8062 7.9856 12.8066C7.9856 12.807 7.9856 12.8074 7.9856 12.8078C7.9856 12.8082 7.9856 12.8086 7.9856 12.8091C7.9856 12.8095 7.9856 12.8099 7.9856 12.8103C7.9856 12.8107 7.9856 12.8111 7.9856 12.8115C7.9856 12.8119 7.9856 12.8123 7.9856 12.8127C7.9856 12.8132 7.9856 12.8136 7.9856 12.814C7.9856 12.8144 7.9856 12.8148 7.9856 12.8152C7.9856 12.8156 7.9856 12.816 7.9856 12.8164C7.9856 12.8168 7.9856 12.8172 7.9856 12.8176C7.9856 12.818 7.9856 12.8184 7.9856 12.8188C7.9856 12.8192 7.9856 12.8196 7.9856 12.82C7.9856 12.8204 7.9856 12.8208 7.9856 12.8212C7.9856 12.8216 7.9856 12.822 7.9856 12.8224C7.9856 12.8228 7.9856 12.8232 7.9856 12.8236C7.9856 12.824 7.9856 12.8243 7.9856 12.8247C7.9856 12.8251 7.9856 12.8255 7.9856 12.8259C7.9856 12.8263 7.9856 12.8267 7.9856 12.8271C7.9856 12.8275 7.9856 12.8279 7.9856 12.8282C7.9856 12.8286 7.9856 12.829 7.9856 12.8294C7.9856 12.8298 7.9856 12.8302 7.9856 12.8306C7.9856 12.8309 7.9856 12.8313 7.9856 12.8317C7.9856 12.8321 7.9856 12.8325 7.9856 12.8329C7.9856 12.8332 7.9856 12.8336 7.9856 12.834C7.9856 12.8344 7.9856 12.8348 7.9856 12.8351C7.9856 12.8355 7.9856 12.8359 7.9856 12.8363C7.9856 12.8367 7.9856 12.837 7.9856 12.8374C7.9856 12.8378 7.9856 12.8382 7.9856 12.8385C7.9856 12.8389 7.9856 12.8393 7.9856 12.8397C7.9856 12.84 7.9856 12.8404 7.9856 12.8408C7.9856 12.8412 7.9856 12.8415 7.9856 12.8419C7.9856 12.8423 7.9856 12.8426 7.9856 12.843C7.9856 12.8434 7.9856 12.8437 7.9856 12.8441C7.9856 12.8445 7.9856 12.8448 7.9856 12.8452C7.9856 12.8456 7.9856 12.8459 7.9856 12.8463C7.9856 12.8467 7.9856 12.847 7.9856 12.8474C7.9856 12.8478 7.9856 12.8481 7.9856 12.8485C7.9856 12.8489 7.9856 12.8492 7.9856 12.8496C7.9856 12.8499 7.9856 12.8503 7.9856 12.8507C7.9856 12.851 7.9856 12.8514 7.9856 12.8517C7.9856 12.8521 7.9856 12.8525 7.9856 12.8528C7.9856 12.8532 7.9856 12.8535 7.9856 12.8539C7.9856 12.8542 7.9856 12.8546 7.9856 12.8549C7.9856 12.8553 7.9856 12.8557 7.9856 12.856C7.9856 12.8564 7.9856 12.8567 7.9856 12.8571C7.9856 12.8574 7.9856 12.8578 7.9856 12.8581C7.9856 12.8585 7.9856 12.8588 7.9856 12.8592C7.9856 12.8595 7.9856 12.8599 7.9856 12.8602C7.9856 12.8606 7.9856 12.8609 7.9856 12.8613C7.9856 12.8616 7.9856 12.862 7.9856 12.8623C7.9856 12.8627 7.9856 12.863 7.9856 12.8633C7.9856 12.8637 7.9856 12.864 7.9856 12.8644C7.9856 12.8647 7.9856 12.8651 7.9856 12.8654C7.9856 12.8657 7.9856 12.8661 7.9856 12.8664C7.9856 12.8668 7.9856 12.8671 7.9856 12.8674C7.9856 12.8678 7.9856 12.8681 7.9856 12.8685C7.9856 12.8688 7.9856 12.8691 7.9856 12.8695C7.9856 12.8698 7.9856 12.8702 7.9856 12.8705C7.9856 12.8708 7.9856 12.8712 7.9856 12.8715C7.9856 12.8718 7.9856 12.8722 7.9856 12.8725C7.9856 12.8728 7.9856 12.8732 7.9856 12.8735C7.9856 12.8738 7.9856 12.8742 7.9856 12.8745C7.9856 12.8748 7.9856 12.8752 7.9856 12.8755C7.9856 12.8758 7.9856 12.8762 7.9856 12.8765C7.9856 12.8768 7.9856 12.8771 7.9856 12.8775C7.9856 12.8778 7.9856 12.8781 7.9856 12.8785C7.9856 12.8788 7.9856 12.8791 7.9856 12.8794C7.9856 12.8798 7.9856 12.8801 7.9856 12.8804C7.9856 12.8807 7.9856 12.8811 7.9856 12.8814C7.9856 12.8817 7.9856 12.882 7.9856 12.8824C7.9856 12.8827 7.9856 12.883 7.9856 12.8833C7.9856 12.8836 7.9856 12.884 7.9856 12.8843C7.9856 12.8846 7.9856 12.8849 7.9856 12.8852C7.9856 12.8856 7.9856 12.8859 7.9856 12.8862C7.9856 12.8865 7.9856 12.8868 7.9856 12.8872C7.9856 12.8875 7.9856 12.8878 7.9856 12.8881C7.9856 12.8884 7.9856 12.8887 7.9856 12.8891C7.9856 12.8894 7.9856 12.8897 7.9856 12.89C7.9856 12.8903 7.9856 12.8906 7.9856 12.8909C7.9856 12.8913 7.9856 12.8916 7.9856 12.8919C7.9856 12.8922 7.9856 12.8925 7.9856 12.8928C7.9856 12.8931 7.9856 12.8934 7.9856 12.8937C7.9856 12.8941 7.9856 12.8944 7.9856 12.8947C7.9856 12.895 7.9856 12.8953 7.9856 12.8956C7.9856 12.8959 7.9856 12.8962 7.9856 12.8965C7.9856 12.8968 7.9856 12.8971 7.9856 12.8974C7.9856 12.8978 7.9856 12.8981 7.9856 12.8984C7.9856 12.8987 7.9856 12.899 7.9856 12.8993C7.9856 12.8996 7.9856 12.8999 7.9856 12.9002C7.9856 12.9005 7.9856 12.9008 7.9856 12.9011C7.9856 12.9014 7.9856 12.9017 7.9856 12.902C7.9856 12.9023 7.9856 12.9026 7.9856 12.9029C7.9856 12.9032 7.9856 12.9035 7.9856 12.9038C7.9856 12.9041 7.9856 12.9044 7.9856 12.9047C7.9856 12.905 7.9856 12.9053 7.9856 12.9056C7.9856 12.9059 7.9856 12.9062 7.9856 12.9065C7.9856 12.9068 7.9856 12.9071 7.9856 12.9074C7.9856 12.9077 7.9856 12.908 7.9856 12.9083C7.9856 12.9086 7.9856 12.9089 7.9856 12.9092C7.9856 12.9095 7.9856 12.9098 7.9856 12.91C7.9856 12.9103 7.9856 12.9106 7.9856 12.9109C7.9856 12.9112 7.9856 12.9115 7.9856 12.9118C7.9856 12.9121 7.9856 12.9124 7.9856 12.9127C7.9856 12.913 7.9856 12.9133 7.9856 12.9136C7.9856 12.9138 7.9856 12.9141 7.9856 12.9144C7.9856 12.9147 7.9856 12.915 7.9856 12.9153C7.9856 12.9156 7.9856 12.9159 7.9856 12.9162C7.9856 12.9164 7.9856 12.9167 7.9856 12.917C7.9856 12.9173 7.9856 12.9176 7.9856 12.9179C7.9856 12.9182 7.9856 12.9184 7.9856 12.9187C7.9856 12.919 7.9856 12.9193 7.9856 12.9196C7.9856 12.9199 7.9856 12.9202 7.9856 12.9204C7.9856 12.9207 7.9856 12.921 7.9856 12.9213C7.9856 12.9216 7.9856 12.9219 7.9856 12.9221C7.9856 12.9224 7.9856 12.9227 7.9856 12.923C7.9856 12.9233 7.9856 12.9235 7.9856 12.9238C7.9856 12.9241 7.9856 12.9244 7.9856 12.9247C7.9856 12.925 7.9856 12.9252 7.9856 12.9255C7.9856 12.9258 7.9856 12.9261 7.9856 12.9263C7.9856 12.9266 7.9856 12.9269 7.9856 12.9272C7.9856 12.9275 7.9856 12.9277 7.9856 12.928C7.9856 12.9283 7.9856 12.9286 7.9856 12.9288C7.9856 12.9291 7.9856 12.9294 7.9856 12.9297C7.9856 12.93 7.9856 12.9302 7.9856 12.9305C7.9856 12.9308 7.9856 12.9311 7.9856 12.9313C7.9856 12.9316 7.9856 12.9319 7.9856 12.9322C7.9856 12.9324 7.9856 12.9327 7.9856 12.933C7.9856 12.9332 7.9856 12.9335 7.9856 12.9338C7.9856 12.9341 7.9856 12.9343 7.9856 12.9346C7.9856 12.9349 7.9856 12.9352 7.9856 12.9354C7.9856 12.9357 7.9856 12.936 7.9856 12.9362C7.9856 12.9365 7.9856 12.9368 7.9856 12.937C7.9856 12.9373 7.9856 12.9376 7.9856 12.9379C7.9856 12.9381 7.9856 12.9384 7.9856 12.9387C7.9856 12.9389 7.9856 12.9392 7.9856 12.9395C7.9856 12.9397 7.9856 12.94 7.9856 12.9403C7.9856 12.9405 7.9856 12.9408 7.9856 12.9411C7.9856 12.9413 7.9856 12.9416 7.9856 12.9419C7.9856 12.9421 7.9856 12.9424 7.9856 12.9427C7.9856 12.9429 7.9856 12.9432 7.9856 12.9435C7.9856 12.9437 7.9856 12.944 7.9856 12.9443C7.9856 12.9445 7.9856 12.9448 7.9856 12.9451C7.9856 12.9453 7.9856 12.9456 7.9856 12.9459C7.9856 12.9461 7.9856 12.9464 7.9856 12.9466C7.9856 12.9469 7.9856 12.9472 7.9856 12.9474C7.9856 12.9477 7.9856 12.948 7.9856 12.9482C7.9856 12.9485 7.9856 12.9487 7.9856 12.949C7.9856 12.9493 7.9856 12.9495 7.9856 12.9498C7.9856 12.95 7.9856 12.9503 7.9856 12.9506C7.9856 12.9508 7.9856 12.9511 7.9856 12.9513C7.9856 12.9516 7.9856 12.9519 7.9856 12.9521C7.9856 12.9524 7.9856 12.9526 7.9856 12.9529C7.9856 12.9532 7.9856 12.9534 7.9856 12.9537C7.9856 12.9539 7.9856 12.9542 7.9856 12.9545C7.9856 12.9547 7.9856 12.955 7.9856 12.9552C7.9856 12.9555 7.9856 12.9557 7.9856 12.956C7.9856 12.9563 7.9856 12.9565 7.9856 12.9568C7.9856 12.957 7.9856 12.9573 7.9856 12.9575C7.9856 12.9578 7.9856 12.9581 7.9856 12.9583C7.9856 12.9586 7.9856 12.9588 7.9856 12.9591C7.9856 12.9593 7.9856 12.9596 7.9856 12.9598C7.9856 12.9601 7.9856 12.9604 7.9856 12.9606C7.9856 12.9609 7.9856 12.9611 7.9856 12.9614C7.9856 12.9616 7.9856 12.9619 7.9856 12.9621C7.9856 12.9624 7.9856 12.9626 7.9856 12.9629C7.9856 12.9632 7.9856 12.9634 7.9856 12.9637C7.9856 12.9639 7.9856 12.9642 7.9856 12.9644C7.9856 12.9647 7.9856 12.9649 7.9856 12.9652C7.9856 12.9654 7.9856 12.9657 7.9856 12.9659C7.9856 12.9662 7.9856 12.9664 7.9856 12.9667C7.9856 12.9669 7.9856 12.9672 7.9856 12.9674C7.9856 12.9677 7.9856 12.968 7.9856 12.9682C7.9856 12.9685 7.9856 12.9687 7.9856 12.969C7.9856 12.9692 7.9856 12.9695 7.9856 12.9697C7.9856 12.97 7.9856 12.9702 7.9856 12.9705C7.9856 12.9707 7.9856 12.971 7.9856 12.9712C7.9856 12.9715 7.9856 12.9717 7.9856 12.972C7.9856 12.9722 7.9856 12.9725 7.9856 12.9727C7.9856 12.973 7.9856 12.9732 7.9856 12.9735C7.9856 12.9737 7.9856 12.974 7.9856 12.9742C7.9856 12.9745 7.9856 12.9747 7.9856 12.9749C7.9856 12.9752 7.9856 12.9754 7.9856 12.9757C7.9856 12.9759 7.9856 12.9762 7.9856 12.9764C7.9856 12.9767 7.9856 12.9769 7.9856 12.9772C7.9856 12.9774 7.9856 12.9777 7.9856 12.9779C7.9856 12.9782 7.9856 12.9784 7.9856 12.9787C7.9856 12.9789 7.9856 12.9792 7.9856 12.9794C7.9856 12.9797 7.9856 12.9799 7.9856 12.9802C7.9856 12.9804 7.9856 12.9806 7.9856 12.9809C7.9856 12.9811 7.9856 12.9814 7.9856 12.9816C7.9856 12.9819 7.9856 12.9821 7.9856 12.9824C7.9856 12.9826 7.9856 12.9829 7.9856 12.9831C7.9856 12.9834 7.9856 12.9836 7.9856 12.9838C7.9856 12.9841 7.9856 12.9843 7.9856 12.9846C7.9856 12.9848 7.9856 12.9851 7.9856 12.9853C7.9856 12.9856 7.9856 12.9858 7.9856 12.9861C7.9856 12.9863 7.9856 12.9866 7.9856 12.9868C7.9856 12.987 7.9856 12.9873 7.9856 12.9875C7.9856 12.9878 7.9856 12.988 7.9856 12.9883C7.9856 12.9885 7.9856 12.9888 7.9856 12.989C7.9856 12.9893 7.9856 12.9895 7.9856 12.9897C7.9856 12.99 7.9856 12.9902 7.9856 12.9905C7.9856 12.9907 7.9856 12.991 7.9856 12.9912C7.9856 12.9915 7.9856 12.9917 7.9856 12.9919C7.9856 12.9922 7.9856 12.9924 7.9856 12.9927C7.9856 12.9929 7.9856 12.9932 7.9856 12.9934C7.9856 12.9937 7.9856 12.9939 7.9856 12.9941C7.9856 12.9944 7.9856 12.9946 7.9856 12.9949C7.9856 12.9951 7.9856 12.9954 7.9856 12.9956C7.9856 12.9959 7.9856 12.9961 7.9856 12.9963C7.9856 12.9966 7.9856 12.9968 7.9856 12.9971C7.9856 12.9973 7.9856 12.9976 7.9856 12.9978C7.9856 12.9981 7.9856 12.9983 7.9856 12.9985C7.9856 12.9988 7.9856 12.999 7.9856 12.9993C7.9856 12.9995 7.9856 12.9998 7.9856 13C7.9856 13.0003 7.9856 13.0005 7.9856 13.0007C7.9856 13.001 7.9856 13.0012 7.9856 13.0015C7.9856 13.0017 7.9856 13.002 7.9856 13.0022C7.9856 13.0025 7.9856 13.0027 7.9856 13.0029C7.9856 13.0032 7.9856 13.0034 7.9856 13.0037C7.9856 13.0039 7.9856 13.0042 7.9856 13.0044C7.9856 13.0047 7.9856 13.0049 7.9856 13.0051C7.9856 13.0054 7.9856 13.0056 7.9856 13.0059C7.9856 13.0061 7.9856 13.0064 7.9856 13.0066C7.9856 13.0069 7.9856 13.0071 7.9856 13.0073C7.9856 13.0076 7.9856 13.0078 7.9856 13.0081C7.9856 13.0083 7.9856 13.0086 7.9856 13.0088C7.9856 13.0091 7.9856 13.0093 7.9856 13.0095C7.9856 13.0098 7.9856 13.01 7.9856 13.0103C7.9856 13.0105 7.9856 13.0108 7.9856 13.011C7.9856 13.0113 7.9856 13.0115 7.9856 13.0117C7.9856 13.012 7.9856 13.0122 7.9856 13.0125C7.9856 13.0127 7.9856 13.013 7.9856 13.0132C7.9856 13.0135 7.9856 13.0137 7.9856 13.014C7.9856 13.0142 7.9856 13.0144 7.9856 13.0147C7.9856 13.0149 7.9856 13.0152 7.9856 13.0154C7.9856 13.0157 7.9856 13.0159 7.9856 13.0162C7.9856 13.0164 7.9856 13.0167 7.9856 13.0169C7.9856 13.0172 7.9856 13.0174 7.9856 13.0176C7.9856 13.0179 7.9856 13.0181 7.9856 13.0184C7.9856 13.0186 7.9856 13.0189 7.9856 13.0191C7.9856 13.0194 7.9856 13.0196 7.9856 13.0199C7.9856 13.0201 7.9856 13.0204 7.9856 13.0206C7.9856 13.0209 7.9856 13.0211 7.9856 13.0213C7.9856 13.0216 7.9856 13.0218 7.9856 13.0221C7.9856 13.0223 7.9856 13.0226 7.9856 13.0228C7.9856 13.0231 7.9856 13.0233 7.9856 13.0236C7.9856 13.0238 7.9856 13.0241 7.9856 13.0243C7.9856 13.0246 7.9856 13.0248 7.9856 13.0251C7.9856 13.0253 7.9856 13.0256 7.9856 13.0258C7.9856 13.0261 7.9856 13.0263 7.9856 13.0266C7.9856 13.0268 7.9856 13.0271 7.9856 13.0273C7.9856 13.0276 7.9856 13.0278 7.9856 13.0281C7.9856 13.0283 7.9856 13.0286 7.9856 13.0288C7.9856 13.0291 7.9856 13.0293 7.9856 13.0296C7.9856 13.0298 7.9856 13.0301 7.9856 13.0303C7.9856 13.0306 7.9856 13.0308 7.9856 13.0311C7.9856 13.0313 7.9856 13.0316 7.9856 13.0318C7.9856 13.0321 7.9856 13.0323 7.9856 13.0326C7.9856 13.0328 7.9856 13.0331 7.9856 13.0333C7.9856 13.0336 7.9856 13.0338 7.9856 13.0341C7.9856 13.0343 7.9856 13.0346 7.9856 13.0348C7.9856 13.0351 7.9856 13.0353 7.9856 13.0356C7.9856 13.0358 7.9856 13.0361 7.9856 13.0363C7.9856 13.0366 7.9856 13.0369 7.9856 13.0371C7.9856 13.0374 7.9856 13.0376 7.9856 13.0379C7.9856 13.0381 7.9856 13.0384 7.9856 13.0386C7.9856 13.0389 7.9856 13.0391 7.9856 13.0394C7.9856 13.0396 7.9856 13.0399 7.9856 13.0402C7.9856 13.0404 7.9856 13.0407 7.9856 13.0409C7.9856 13.0412 7.9856 13.0414 7.9856 13.0417C7.9856 13.0419 7.9856 13.0422 7.9856 13.0425C7.9856 13.0427 7.9856 13.043 7.9856 13.0432C7.9856 13.0435 7.9856 13.0437 7.9856 13.044C7.9856 13.0443 7.9856 13.0445 7.9856 13.0448C7.9856 13.045 7.9856 13.0453 7.9856 13.0455C7.9856 13.0458 7.9856 13.0461 7.9856 13.0463C7.9856 13.0466 7.9856 13.0468 7.9856 13.0471C7.9856 13.0474 7.9856 13.0476 7.9856 13.0479C7.9856 13.0481 7.9856 13.0484 7.9856 13.0487C7.9856 13.0489 7.9856 13.0492 7.9856 13.0494C7.9856 13.0497 7.9856 13.05 7.9856 13.0502C7.9856 13.0505 7.9856 13.0507 7.9856 13.051C7.9856 13.0513 7.9856 13.0515 7.9856 13.0518C7.9856 13.052 7.9856 13.0523 7.9856 13.0526C7.9856 13.0528 7.9856 13.0531 7.9856 13.0534C7.9856 13.0536 7.9856 13.0539 7.9856 13.0541C7.9856 13.0544 7.9856 13.0547 7.9856 13.0549C7.9856 13.0552 7.9856 13.0555 7.9856 13.0557C7.9856 13.056 7.9856 13.0563 7.9856 13.0565C7.9856 13.0568 7.9856 13.0571 7.9856 13.0573C7.9856 13.0576 7.9856 13.0579 7.9856 13.0581C7.9856 13.0584 7.9856 13.0586 7.9856 13.0589C7.9856 13.0592 7.9856 13.0595 7.9856 13.0597C7.9856 13.06 7.9856 13.0603 7.9856 13.0605C7.9856 13.0608 7.9856 13.0611 7.9856 13.0613C7.9856 13.0616 7.9856 13.0619 7.9856 13.0621C7.9856 13.0624 7.9856 13.0627 7.9856 13.0629C7.9856 13.0632 7.9856 13.0635 7.9856 13.0638C7.9856 13.064 7.9856 13.0643 7.9856 13.0646C7.9856 13.0648 7.9856 13.0651 7.9856 13.0654C7.9856 13.0656 7.9856 13.0659 7.9856 13.0662C7.9856 13.0665 7.9856 13.0667 7.9856 13.067C7.9856 13.0673 7.9856 13.0676 7.9856 13.0678C7.9856 13.0681 7.9856 13.0684 7.9856 13.0687C7.9856 13.0689 7.9856 13.0692 7.9856 13.0695C7.9856 13.0698 7.9856 13.07 7.9856 13.0703C7.9856 13.0706 7.9856 13.0709 7.9856 13.0711C7.9856 13.0714 7.9856 13.0717 7.9856 13.072C7.9856 13.0722 7.9856 13.0725 7.9856 13.0728C7.9856 13.0731 7.9856 13.0733 7.9856 13.0736C7.9856 13.0739 7.9856 13.0742 7.9856 13.0745C7.9856 13.0747 7.9856 13.075 7.9856 13.0753C7.9856 13.0756 7.9856 13.0759 7.9856 13.0761C7.9856 13.0764 7.9856 13.0767 7.9856 13.077C7.9856 13.0773 7.9856 13.0775 7.9856 13.0778C7.9856 13.0781 7.9856 13.0784 7.9856 13.0787C7.9856 13.079 7.9856 13.0792 7.9856 13.0795C7.9856 13.0798 7.9856 13.0801 7.9856 13.0804C7.9856 13.0807 7.9856 13.0809 7.9856 13.0812C7.9856 13.0815 7.9856 13.0818 7.9856 13.0821C7.9856 13.0824 7.9856 13.0827 7.9856 13.083C7.9856 13.0832 7.9856 13.0835 7.9856 13.0838C7.9856 13.0841 7.9856 13.0844 7.9856 13.0847C7.9856 13.085 7.9856 13.0853 7.9856 13.0855C7.9856 13.0858 7.9856 13.0861 7.9856 13.0864C7.9856 13.0867 7.9856 13.087 7.9856 13.0873C7.9856 13.0876 7.9856 13.0879 7.9856 13.0882C7.9856 13.0884 7.9856 13.0887 7.9856 13.089C7.9856 13.0893 7.9856 13.0896 7.9856 13.0899C7.9856 13.0902 7.9856 13.0905 7.9856 13.0908C7.9856 13.0911 7.9856 13.0914 7.9856 13.0917C7.9856 13.092 7.9856 13.0923 7.9856 13.0926C7.9856 13.0929 7.9856 13.0932 7.9856 13.0935C7.9856 13.0937 7.9856 13.094 7.9856 13.0943C7.9856 13.0946 7.9856 13.0949 7.9856 13.0952C7.9856 13.0955 7.9856 13.0958 7.9856 13.0961C7.9856 13.0964 7.9856 13.0967 7.9856 13.097C7.9856 13.0973 7.9856 13.0976 7.9856 13.0979C7.9856 13.0982 7.9856 13.0985 7.9856 13.0988C7.9856 13.0991 7.9856 13.0994 7.9856 13.0998C7.9856 13.1001 7.9856 13.1004 7.9856 13.1007C7.9856 13.101 7.9856 13.1013 7.9856 13.1016C7.9856 13.1019 7.9856 13.1022 7.9856 13.1025C7.9856 13.1028 7.9856 13.1031 7.9856 13.1034C7.9856 13.1037 7.9856 13.104 7.9856 13.1043C7.9856 13.1046 7.9856 13.105 7.9856 13.1053C7.9856 13.1056 7.9856 13.1059 7.9856 13.1062C7.9856 13.1065 7.9856 13.1068 7.9856 13.1071C7.9856 13.1074 7.9856 13.1077 7.9856 13.1081C7.9856 13.1084 7.9856 13.1087 7.9856 13.109C7.9856 13.1093 7.9856 13.1096 7.9856 13.1099C7.9856 13.1102 7.9856 13.1106 7.9856 13.1109C7.9856 13.1112 7.9856 13.1115 7.9856 13.1118C7.9856 13.1121 7.9856 13.1125 7.9856 13.1128C7.9856 13.1131 7.9856 13.1134 7.9856 13.1137C7.9856 13.114 7.9856 13.1144 7.9856 13.1147C7.9856 13.115 7.9856 13.1153 7.9856 13.1156C7.9856 13.116 7.9856 13.1163 7.9856 13.1166C7.9856 13.1169 7.9856 13.1172 7.9856 13.1176C7.9856 13.1179 7.9856 13.1182 7.9856 13.1185C7.9856 13.1189 7.9856 13.1192 7.9856 13.1195C7.9856 13.1198 7.9856 13.1202 7.9856 13.1205C7.9856 13.1208 7.9856 13.1211 7.9856 13.1215C7.9856 13.1218 7.9856 13.1221 7.9856 13.1224C7.9856 13.1228 7.9856 13.1231 7.9856 13.1234C7.9856 13.1238 7.9856 13.1241 7.9856 13.1244C7.9856 13.1247 7.9856 13.1251 7.9856 13.1254C7.9856 13.1257 7.9856 13.1261 7.9856 13.1264C7.9856 13.1267 7.9856 13.1271 7.9856 13.1274C7.9856 13.1277 7.9856 13.1281 7.9856 13.1284C7.9856 13.1287 7.9856 13.1291 7.9856 13.1294C7.9856 13.1297 7.9856 13.1301 7.9856 13.1304C7.9856 13.1308 7.9856 13.1311 7.9856 13.1314C7.9856 13.1318 7.9856 13.1321 7.9856 13.1325C7.9856 13.1328 7.9856 13.1331 7.9856 13.1335C7.9856 13.1338 7.9856 13.1342 7.9856 13.1345C7.9856 13.1348 7.9856 13.1352 7.9856 13.1355C7.9856 13.1359 7.9856 13.1362 7.9856 13.1366C7.9856 13.1369 7.9856 13.1372 7.9856 13.1376C7.9856 13.1379 7.9856 13.1383 7.9856 13.1386C7.9856 13.139 7.9856 13.1393 7.9856 13.1397C7.9856 13.14 7.9856 13.1404 7.9856 13.1407C7.9856 13.1411 7.9856 13.1414 7.9856 13.1418C7.9856 13.1421 7.9856 13.1425 7.9856 13.1428C7.9856 13.1432 7.9856 13.1435 7.9856 13.1439C7.9856 13.1442 7.9856 13.1446 7.9856 13.1449C7.9856 13.1453 7.9856 13.1456 7.9856 13.146C7.9856 13.1464 7.9856 13.1467 7.9856 13.1471C7.9856 13.1474 7.9856 13.1478 7.9856 13.1481C7.9856 13.1485 7.9856 13.1489 7.9856 13.1492C7.9856 13.1496 7.9856 13.1499 7.9856 13.1503C7.9856 13.1507 7.9856 13.151 7.9856 13.1514C7.9856 13.1517 7.9856 13.1521 7.9856 13.1525C7.9856 13.1528 7.9856 13.1532 7.9856 13.1536C7.9856 13.1539 7.9856 13.1543 7.9856 13.1547C7.9856 13.155 7.9856 13.1554 7.9856 13.1558C7.9856 13.1561 7.9856 13.1565 7.9856 13.1569C7.9856 13.1572 7.9856 13.1576 7.9856 13.158C7.9856 13.1583 7.9856 13.1587 7.9856 13.1591C7.9856 13.1595 7.9856 13.1598 7.9856 13.1602C7.9856 13.1606 7.9856 13.1609 7.9856 13.1613C7.9856 13.1617 7.9856 13.1621 7.9856 13.1624C7.9856 13.1628 7.9856 13.1632 7.9856 13.1636C7.9856 13.164 7.9856 13.1643 7.9856 13.1647C7.9856 13.1651 7.9856 13.1655 7.9856 13.1658C7.9856 13.1662 7.9856 13.1666 7.9856 13.167C7.9856 13.1674 7.9856 13.1677 7.9856 13.1681C7.9856 13.1685 7.9856 13.1689 7.9856 13.1693C7.9856 13.1697 7.9856 13.1701 7.9856 13.1704C7.9856 13.1708 7.9856 13.1712 7.9856 13.1716C7.9856 13.172 7.9856 13.1724 7.9856 13.1728C7.9856 13.1731 7.9856 13.1735 7.9856 13.1739C7.9856 13.1743 7.9856 13.1747 7.9856 13.1751C7.9856 13.1755 7.9856 13.1759 7.9856 13.1763C7.9856 13.1767 7.9856 13.1771 7.9856 13.1775C7.9856 13.1779 7.9856 13.1782 7.9856 13.1786C7.9856 13.179 7.9856 13.1794 7.9856 13.1798C7.9856 13.1802 7.9856 13.1806 7.9856 13.181C7.9856 13.1814 7.9856 13.1818 7.9856 13.1822C7.9856 13.1826 7.9856 13.183 7.9856 13.1834C7.9856 13.1838 7.9856 13.1842 7.9856 13.1846C7.9856 13.185 7.9856 13.1854 7.9856 13.1859C7.9856 13.1863 7.9856 13.1867 7.9856 13.1871C7.9856 13.1875 7.9856 13.1879 7.9856 13.1883C7.9856 13.1887 7.9856 13.1891 7.9856 13.1895C7.9856 13.1899 7.9856 13.1903 7.9856 13.1908C7.9856 13.1912 7.9856 13.1916 7.9856 13.192C7.9856 13.1924 7.9856 13.1928 7.9856 13.1932C7.9856 13.1936 7.9856 13.1941 7.9856 13.1945C7.9856 13.1949 7.9856 13.1953 7.9856 13.1957C7.9856 13.1961 7.9856 13.1966 7.9856 13.197C7.9856 13.1974 7.9856 13.1978 7.9856 13.1982C7.9856 13.1987 7.9856 13.1991 7.9856 13.1995C7.9856 13.1999 7.9856 13.2004 7.9856 13.2008C7.9856 13.2012 7.9856 13.2016 7.9856 13.2021C7.9856 13.2025 7.9856 13.2029 7.9856 13.2033C7.9856 13.2038 7.9856 13.2042 7.9856 13.2046C7.9856 13.2051 7.9856 13.2055 7.9856 13.2059C7.9856 13.2063 7.9856 13.2068 7.9856 13.2072C7.9856 13.2076 7.9856 13.2081 7.9856 13.2085C7.9856 13.2089 7.9856 13.2094 7.9856 13.2098C7.9856 13.2102 7.9856 13.2107 7.9856 13.2111C7.9856 13.2116 7.9856 13.212 7.9856 13.2124C7.9856 13.2129 7.9856 13.2133 7.9856 13.2138C7.9856 13.2142 7.9856 13.2146 7.9856 13.2151C7.9856 13.2155 7.9856 13.216 7.9856 13.2164C7.9856 13.2169 7.9856 13.2173 7.9856 13.2178C7.9856 13.2182 7.9856 13.2186 7.9856 13.2191C7.9856 13.2195 7.9856 13.22 7.9856 13.2204C7.9856 13.2209 7.9856 13.2213 7.9856 13.2218C7.9856 13.2222 7.9856 13.2227 7.9856 13.2231C7.9856 13.2236 7.9856 13.2241 7.9856 13.2245C7.9856 13.225 7.9856 13.2254 7.9856 13.2259C7.9856 13.2263 7.9856 13.2268 7.9856 13.2273C7.9856 13.2277 7.9856 13.2282 7.9856 13.2286C7.9856 13.2291 7.9856 13.2296 7.9856 13.23C7.9856 13.2305 7.9856 13.2309 7.9856 13.2314C7.9856 13.2319 7.9856 13.2323 7.9856 13.2328C7.9856 13.2333 7.9856 13.2337 7.9856 13.2342C7.9856 13.2347 7.9856 13.2351 7.9856 13.2356C7.9856 13.2361 7.9856 13.2365 7.9856 13.237C7.9856 13.2375 7.9856 13.238 7.9856 13.2384C7.9856 13.2389 7.9856 13.2394 7.9856 13.2399C7.9856 13.2403 7.9856 13.2408 7.9856 13.2413C7.9856 13.2418 7.9856 13.2422 7.9856 13.2427C7.9856 13.2432 7.9856 13.2437 7.9856 13.2442C7.9856 13.2446 7.9856 13.2451 7.9856 13.2456C7.9856 13.2461 7.9856 13.2466 7.9856 13.247C7.9856 13.2475 7.9856 13.248 7.9856 13.2485C7.9856 13.249 7.9856 13.2495 7.9856 13.25H9.4856C9.4856 13.2495 9.4856 13.249 9.4856 13.2485C9.4856 13.248 9.4856 13.2475 9.4856 13.247C9.4856 13.2466 9.4856 13.2461 9.4856 13.2456C9.4856 13.2451 9.4856 13.2446 9.4856 13.2442C9.4856 13.2437 9.4856 13.2432 9.4856 13.2427C9.4856 13.2422 9.4856 13.2418 9.4856 13.2413C9.4856 13.2408 9.4856 13.2403 9.4856 13.2399C9.4856 13.2394 9.4856 13.2389 9.4856 13.2384C9.4856 13.238 9.4856 13.2375 9.4856 13.237C9.4856 13.2365 9.4856 13.2361 9.4856 13.2356C9.4856 13.2351 9.4856 13.2347 9.4856 13.2342C9.4856 13.2337 9.4856 13.2333 9.4856 13.2328C9.4856 13.2323 9.4856 13.2319 9.4856 13.2314C9.4856 13.2309 9.4856 13.2305 9.4856 13.23C9.4856 13.2296 9.4856 13.2291 9.4856 13.2286C9.4856 13.2282 9.4856 13.2277 9.4856 13.2273C9.4856 13.2268 9.4856 13.2263 9.4856 13.2259C9.4856 13.2254 9.4856 13.225 9.4856 13.2245C9.4856 13.2241 9.4856 13.2236 9.4856 13.2231C9.4856 13.2227 9.4856 13.2222 9.4856 13.2218C9.4856 13.2213 9.4856 13.2209 9.4856 13.2204C9.4856 13.22 9.4856 13.2195 9.4856 13.2191C9.4856 13.2186 9.4856 13.2182 9.4856 13.2178C9.4856 13.2173 9.4856 13.2169 9.4856 13.2164C9.4856 13.216 9.4856 13.2155 9.4856 13.2151C9.4856 13.2146 9.4856 13.2142 9.4856 13.2138C9.4856 13.2133 9.4856 13.2129 9.4856 13.2124C9.4856 13.212 9.4856 13.2116 9.4856 13.2111C9.4856 13.2107 9.4856 13.2102 9.4856 13.2098C9.4856 13.2094 9.4856 13.2089 9.4856 13.2085C9.4856 13.2081 9.4856 13.2076 9.4856 13.2072C9.4856 13.2068 9.4856 13.2063 9.4856 13.2059C9.4856 13.2055 9.4856 13.2051 9.4856 13.2046C9.4856 13.2042 9.4856 13.2038 9.4856 13.2033C9.4856 13.2029 9.4856 13.2025 9.4856 13.2021C9.4856 13.2016 9.4856 13.2012 9.4856 13.2008C9.4856 13.2004 9.4856 13.1999 9.4856 13.1995C9.4856 13.1991 9.4856 13.1987 9.4856 13.1982C9.4856 13.1978 9.4856 13.1974 9.4856 13.197C9.4856 13.1966 9.4856 13.1961 9.4856 13.1957C9.4856 13.1953 9.4856 13.1949 9.4856 13.1945C9.4856 13.1941 9.4856 13.1936 9.4856 13.1932C9.4856 13.1928 9.4856 13.1924 9.4856 13.192C9.4856 13.1916 9.4856 13.1912 9.4856 13.1908C9.4856 13.1903 9.4856 13.1899 9.4856 13.1895C9.4856 13.1891 9.4856 13.1887 9.4856 13.1883C9.4856 13.1879 9.4856 13.1875 9.4856 13.1871C9.4856 13.1867 9.4856 13.1863 9.4856 13.1859C9.4856 13.1854 9.4856 13.185 9.4856 13.1846C9.4856 13.1842 9.4856 13.1838 9.4856 13.1834C9.4856 13.183 9.4856 13.1826 9.4856 13.1822C9.4856 13.1818 9.4856 13.1814 9.4856 13.181C9.4856 13.1806 9.4856 13.1802 9.4856 13.1798C9.4856 13.1794 9.4856 13.179 9.4856 13.1786C9.4856 13.1782 9.4856 13.1779 9.4856 13.1775C9.4856 13.1771 9.4856 13.1767 9.4856 13.1763C9.4856 13.1759 9.4856 13.1755 9.4856 13.1751C9.4856 13.1747 9.4856 13.1743 9.4856 13.1739C9.4856 13.1735 9.4856 13.1731 9.4856 13.1728C9.4856 13.1724 9.4856 13.172 9.4856 13.1716C9.4856 13.1712 9.4856 13.1708 9.4856 13.1704C9.4856 13.1701 9.4856 13.1697 9.4856 13.1693C9.4856 13.1689 9.4856 13.1685 9.4856 13.1681C9.4856 13.1677 9.4856 13.1674 9.4856 13.167C9.4856 13.1666 9.4856 13.1662 9.4856 13.1658C9.4856 13.1655 9.4856 13.1651 9.4856 13.1647C9.4856 13.1643 9.4856 13.164 9.4856 13.1636C9.4856 13.1632 9.4856 13.1628 9.4856 13.1624C9.4856 13.1621 9.4856 13.1617 9.4856 13.1613C9.4856 13.1609 9.4856 13.1606 9.4856 13.1602C9.4856 13.1598 9.4856 13.1595 9.4856 13.1591C9.4856 13.1587 9.4856 13.1583 9.4856 13.158C9.4856 13.1576 9.4856 13.1572 9.4856 13.1569C9.4856 13.1565 9.4856 13.1561 9.4856 13.1558C9.4856 13.1554 9.4856 13.155 9.4856 13.1547C9.4856 13.1543 9.4856 13.1539 9.4856 13.1536C9.4856 13.1532 9.4856 13.1528 9.4856 13.1525C9.4856 13.1521 9.4856 13.1517 9.4856 13.1514C9.4856 13.151 9.4856 13.1507 9.4856 13.1503C9.4856 13.1499 9.4856 13.1496 9.4856 13.1492C9.4856 13.1489 9.4856 13.1485 9.4856 13.1481C9.4856 13.1478 9.4856 13.1474 9.4856 13.1471C9.4856 13.1467 9.4856 13.1464 9.4856 13.146C9.4856 13.1456 9.4856 13.1453 9.4856 13.1449C9.4856 13.1446 9.4856 13.1442 9.4856 13.1439C9.4856 13.1435 9.4856 13.1432 9.4856 13.1428C9.4856 13.1425 9.4856 13.1421 9.4856 13.1418C9.4856 13.1414 9.4856 13.1411 9.4856 13.1407C9.4856 13.1404 9.4856 13.14 9.4856 13.1397C9.4856 13.1393 9.4856 13.139 9.4856 13.1386C9.4856 13.1383 9.4856 13.1379 9.4856 13.1376C9.4856 13.1372 9.4856 13.1369 9.4856 13.1366C9.4856 13.1362 9.4856 13.1359 9.4856 13.1355C9.4856 13.1352 9.4856 13.1348 9.4856 13.1345C9.4856 13.1342 9.4856 13.1338 9.4856 13.1335C9.4856 13.1331 9.4856 13.1328 9.4856 13.1325C9.4856 13.1321 9.4856 13.1318 9.4856 13.1314C9.4856 13.1311 9.4856 13.1308 9.4856 13.1304C9.4856 13.1301 9.4856 13.1297 9.4856 13.1294C9.4856 13.1291 9.4856 13.1287 9.4856 13.1284C9.4856 13.1281 9.4856 13.1277 9.4856 13.1274C9.4856 13.1271 9.4856 13.1267 9.4856 13.1264C9.4856 13.1261 9.4856 13.1257 9.4856 13.1254C9.4856 13.1251 9.4856 13.1247 9.4856 13.1244C9.4856 13.1241 9.4856 13.1238 9.4856 13.1234C9.4856 13.1231 9.4856 13.1228 9.4856 13.1224C9.4856 13.1221 9.4856 13.1218 9.4856 13.1215C9.4856 13.1211 9.4856 13.1208 9.4856 13.1205C9.4856 13.1202 9.4856 13.1198 9.4856 13.1195C9.4856 13.1192 9.4856 13.1189 9.4856 13.1185C9.4856 13.1182 9.4856 13.1179 9.4856 13.1176C9.4856 13.1172 9.4856 13.1169 9.4856 13.1166C9.4856 13.1163 9.4856 13.116 9.4856 13.1156C9.4856 13.1153 9.4856 13.115 9.4856 13.1147C9.4856 13.1144 9.4856 13.114 9.4856 13.1137C9.4856 13.1134 9.4856 13.1131 9.4856 13.1128C9.4856 13.1125 9.4856 13.1121 9.4856 13.1118C9.4856 13.1115 9.4856 13.1112 9.4856 13.1109C9.4856 13.1106 9.4856 13.1102 9.4856 13.1099C9.4856 13.1096 9.4856 13.1093 9.4856 13.109C9.4856 13.1087 9.4856 13.1084 9.4856 13.1081C9.4856 13.1077 9.4856 13.1074 9.4856 13.1071C9.4856 13.1068 9.4856 13.1065 9.4856 13.1062C9.4856 13.1059 9.4856 13.1056 9.4856 13.1053C9.4856 13.105 9.4856 13.1046 9.4856 13.1043C9.4856 13.104 9.4856 13.1037 9.4856 13.1034C9.4856 13.1031 9.4856 13.1028 9.4856 13.1025C9.4856 13.1022 9.4856 13.1019 9.4856 13.1016C9.4856 13.1013 9.4856 13.101 9.4856 13.1007C9.4856 13.1004 9.4856 13.1001 9.4856 13.0998C9.4856 13.0994 9.4856 13.0991 9.4856 13.0988C9.4856 13.0985 9.4856 13.0982 9.4856 13.0979C9.4856 13.0976 9.4856 13.0973 9.4856 13.097C9.4856 13.0967 9.4856 13.0964 9.4856 13.0961C9.4856 13.0958 9.4856 13.0955 9.4856 13.0952C9.4856 13.0949 9.4856 13.0946 9.4856 13.0943C9.4856 13.094 9.4856 13.0937 9.4856 13.0935C9.4856 13.0932 9.4856 13.0929 9.4856 13.0926C9.4856 13.0923 9.4856 13.092 9.4856 13.0917C9.4856 13.0914 9.4856 13.0911 9.4856 13.0908C9.4856 13.0905 9.4856 13.0902 9.4856 13.0899C9.4856 13.0896 9.4856 13.0893 9.4856 13.089C9.4856 13.0887 9.4856 13.0884 9.4856 13.0882C9.4856 13.0879 9.4856 13.0876 9.4856 13.0873C9.4856 13.087 9.4856 13.0867 9.4856 13.0864C9.4856 13.0861 9.4856 13.0858 9.4856 13.0855C9.4856 13.0853 9.4856 13.085 9.4856 13.0847C9.4856 13.0844 9.4856 13.0841 9.4856 13.0838C9.4856 13.0835 9.4856 13.0832 9.4856 13.083C9.4856 13.0827 9.4856 13.0824 9.4856 13.0821C9.4856 13.0818 9.4856 13.0815 9.4856 13.0812C9.4856 13.0809 9.4856 13.0807 9.4856 13.0804C9.4856 13.0801 9.4856 13.0798 9.4856 13.0795C9.4856 13.0792 9.4856 13.079 9.4856 13.0787C9.4856 13.0784 9.4856 13.0781 9.4856 13.0778C9.4856 13.0775 9.4856 13.0773 9.4856 13.077C9.4856 13.0767 9.4856 13.0764 9.4856 13.0761C9.4856 13.0759 9.4856 13.0756 9.4856 13.0753C9.4856 13.075 9.4856 13.0747 9.4856 13.0745C9.4856 13.0742 9.4856 13.0739 9.4856 13.0736C9.4856 13.0733 9.4856 13.0731 9.4856 13.0728C9.4856 13.0725 9.4856 13.0722 9.4856 13.072C9.4856 13.0717 9.4856 13.0714 9.4856 13.0711C9.4856 13.0709 9.4856 13.0706 9.4856 13.0703C9.4856 13.07 9.4856 13.0698 9.4856 13.0695C9.4856 13.0692 9.4856 13.0689 9.4856 13.0687C9.4856 13.0684 9.4856 13.0681 9.4856 13.0678C9.4856 13.0676 9.4856 13.0673 9.4856 13.067C9.4856 13.0667 9.4856 13.0665 9.4856 13.0662C9.4856 13.0659 9.4856 13.0656 9.4856 13.0654C9.4856 13.0651 9.4856 13.0648 9.4856 13.0646C9.4856 13.0643 9.4856 13.064 9.4856 13.0638C9.4856 13.0635 9.4856 13.0632 9.4856 13.0629C9.4856 13.0627 9.4856 13.0624 9.4856 13.0621C9.4856 13.0619 9.4856 13.0616 9.4856 13.0613C9.4856 13.0611 9.4856 13.0608 9.4856 13.0605C9.4856 13.0603 9.4856 13.06 9.4856 13.0597C9.4856 13.0595 9.4856 13.0592 9.4856 13.0589C9.4856 13.0586 9.4856 13.0584 9.4856 13.0581C9.4856 13.0579 9.4856 13.0576 9.4856 13.0573C9.4856 13.0571 9.4856 13.0568 9.4856 13.0565C9.4856 13.0563 9.4856 13.056 9.4856 13.0557C9.4856 13.0555 9.4856 13.0552 9.4856 13.0549C9.4856 13.0547 9.4856 13.0544 9.4856 13.0541C9.4856 13.0539 9.4856 13.0536 9.4856 13.0534C9.4856 13.0531 9.4856 13.0528 9.4856 13.0526C9.4856 13.0523 9.4856 13.052 9.4856 13.0518C9.4856 13.0515 9.4856 13.0513 9.4856 13.051C9.4856 13.0507 9.4856 13.0505 9.4856 13.0502C9.4856 13.05 9.4856 13.0497 9.4856 13.0494C9.4856 13.0492 9.4856 13.0489 9.4856 13.0487C9.4856 13.0484 9.4856 13.0481 9.4856 13.0479C9.4856 13.0476 9.4856 13.0474 9.4856 13.0471C9.4856 13.0468 9.4856 13.0466 9.4856 13.0463C9.4856 13.0461 9.4856 13.0458 9.4856 13.0455C9.4856 13.0453 9.4856 13.045 9.4856 13.0448C9.4856 13.0445 9.4856 13.0443 9.4856 13.044C9.4856 13.0437 9.4856 13.0435 9.4856 13.0432C9.4856 13.043 9.4856 13.0427 9.4856 13.0425C9.4856 13.0422 9.4856 13.0419 9.4856 13.0417C9.4856 13.0414 9.4856 13.0412 9.4856 13.0409C9.4856 13.0407 9.4856 13.0404 9.4856 13.0402C9.4856 13.0399 9.4856 13.0396 9.4856 13.0394C9.4856 13.0391 9.4856 13.0389 9.4856 13.0386C9.4856 13.0384 9.4856 13.0381 9.4856 13.0379C9.4856 13.0376 9.4856 13.0374 9.4856 13.0371C9.4856 13.0369 9.4856 13.0366 9.4856 13.0363C9.4856 13.0361 9.4856 13.0358 9.4856 13.0356C9.4856 13.0353 9.4856 13.0351 9.4856 13.0348C9.4856 13.0346 9.4856 13.0343 9.4856 13.0341C9.4856 13.0338 9.4856 13.0336 9.4856 13.0333C9.4856 13.0331 9.4856 13.0328 9.4856 13.0326C9.4856 13.0323 9.4856 13.0321 9.4856 13.0318C9.4856 13.0316 9.4856 13.0313 9.4856 13.0311C9.4856 13.0308 9.4856 13.0306 9.4856 13.0303C9.4856 13.0301 9.4856 13.0298 9.4856 13.0296C9.4856 13.0293 9.4856 13.0291 9.4856 13.0288C9.4856 13.0286 9.4856 13.0283 9.4856 13.0281C9.4856 13.0278 9.4856 13.0276 9.4856 13.0273C9.4856 13.0271 9.4856 13.0268 9.4856 13.0266C9.4856 13.0263 9.4856 13.0261 9.4856 13.0258C9.4856 13.0256 9.4856 13.0253 9.4856 13.0251C9.4856 13.0248 9.4856 13.0246 9.4856 13.0243C9.4856 13.0241 9.4856 13.0238 9.4856 13.0236C9.4856 13.0233 9.4856 13.0231 9.4856 13.0228C9.4856 13.0226 9.4856 13.0223 9.4856 13.0221C9.4856 13.0218 9.4856 13.0216 9.4856 13.0213C9.4856 13.0211 9.4856 13.0209 9.4856 13.0206C9.4856 13.0204 9.4856 13.0201 9.4856 13.0199C9.4856 13.0196 9.4856 13.0194 9.4856 13.0191C9.4856 13.0189 9.4856 13.0186 9.4856 13.0184C9.4856 13.0181 9.4856 13.0179 9.4856 13.0176C9.4856 13.0174 9.4856 13.0172 9.4856 13.0169C9.4856 13.0167 9.4856 13.0164 9.4856 13.0162C9.4856 13.0159 9.4856 13.0157 9.4856 13.0154C9.4856 13.0152 9.4856 13.0149 9.4856 13.0147C9.4856 13.0144 9.4856 13.0142 9.4856 13.014C9.4856 13.0137 9.4856 13.0135 9.4856 13.0132C9.4856 13.013 9.4856 13.0127 9.4856 13.0125C9.4856 13.0122 9.4856 13.012 9.4856 13.0117C9.4856 13.0115 9.4856 13.0113 9.4856 13.011C9.4856 13.0108 9.4856 13.0105 9.4856 13.0103C9.4856 13.01 9.4856 13.0098 9.4856 13.0095C9.4856 13.0093 9.4856 13.0091 9.4856 13.0088C9.4856 13.0086 9.4856 13.0083 9.4856 13.0081C9.4856 13.0078 9.4856 13.0076 9.4856 13.0073C9.4856 13.0071 9.4856 13.0069 9.4856 13.0066C9.4856 13.0064 9.4856 13.0061 9.4856 13.0059C9.4856 13.0056 9.4856 13.0054 9.4856 13.0051C9.4856 13.0049 9.4856 13.0047 9.4856 13.0044C9.4856 13.0042 9.4856 13.0039 9.4856 13.0037C9.4856 13.0034 9.4856 13.0032 9.4856 13.0029C9.4856 13.0027 9.4856 13.0025 9.4856 13.0022C9.4856 13.002 9.4856 13.0017 9.4856 13.0015C9.4856 13.0012 9.4856 13.001 9.4856 13.0007C9.4856 13.0005 9.4856 13.0003 9.4856 13C9.4856 12.9998 9.4856 12.9995 9.4856 12.9993C9.4856 12.999 9.4856 12.9988 9.4856 12.9985C9.4856 12.9983 9.4856 12.9981 9.4856 12.9978C9.4856 12.9976 9.4856 12.9973 9.4856 12.9971C9.4856 12.9968 9.4856 12.9966 9.4856 12.9963C9.4856 12.9961 9.4856 12.9959 9.4856 12.9956C9.4856 12.9954 9.4856 12.9951 9.4856 12.9949C9.4856 12.9946 9.4856 12.9944 9.4856 12.9941C9.4856 12.9939 9.4856 12.9937 9.4856 12.9934C9.4856 12.9932 9.4856 12.9929 9.4856 12.9927C9.4856 12.9924 9.4856 12.9922 9.4856 12.9919C9.4856 12.9917 9.4856 12.9915 9.4856 12.9912C9.4856 12.991 9.4856 12.9907 9.4856 12.9905C9.4856 12.9902 9.4856 12.99 9.4856 12.9897C9.4856 12.9895 9.4856 12.9893 9.4856 12.989C9.4856 12.9888 9.4856 12.9885 9.4856 12.9883C9.4856 12.988 9.4856 12.9878 9.4856 12.9875C9.4856 12.9873 9.4856 12.987 9.4856 12.9868C9.4856 12.9866 9.4856 12.9863 9.4856 12.9861C9.4856 12.9858 9.4856 12.9856 9.4856 12.9853C9.4856 12.9851 9.4856 12.9848 9.4856 12.9846C9.4856 12.9843 9.4856 12.9841 9.4856 12.9838C9.4856 12.9836 9.4856 12.9834 9.4856 12.9831C9.4856 12.9829 9.4856 12.9826 9.4856 12.9824C9.4856 12.9821 9.4856 12.9819 9.4856 12.9816C9.4856 12.9814 9.4856 12.9811 9.4856 12.9809C9.4856 12.9806 9.4856 12.9804 9.4856 12.9802C9.4856 12.9799 9.4856 12.9797 9.4856 12.9794C9.4856 12.9792 9.4856 12.9789 9.4856 12.9787C9.4856 12.9784 9.4856 12.9782 9.4856 12.9779C9.4856 12.9777 9.4856 12.9774 9.4856 12.9772C9.4856 12.9769 9.4856 12.9767 9.4856 12.9764C9.4856 12.9762 9.4856 12.9759 9.4856 12.9757C9.4856 12.9754 9.4856 12.9752 9.4856 12.9749C9.4856 12.9747 9.4856 12.9745 9.4856 12.9742C9.4856 12.974 9.4856 12.9737 9.4856 12.9735C9.4856 12.9732 9.4856 12.973 9.4856 12.9727C9.4856 12.9725 9.4856 12.9722 9.4856 12.972C9.4856 12.9717 9.4856 12.9715 9.4856 12.9712C9.4856 12.971 9.4856 12.9707 9.4856 12.9705C9.4856 12.9702 9.4856 12.97 9.4856 12.9697C9.4856 12.9695 9.4856 12.9692 9.4856 12.969C9.4856 12.9687 9.4856 12.9685 9.4856 12.9682C9.4856 12.968 9.4856 12.9677 9.4856 12.9674C9.4856 12.9672 9.4856 12.9669 9.4856 12.9667C9.4856 12.9664 9.4856 12.9662 9.4856 12.9659C9.4856 12.9657 9.4856 12.9654 9.4856 12.9652C9.4856 12.9649 9.4856 12.9647 9.4856 12.9644C9.4856 12.9642 9.4856 12.9639 9.4856 12.9637C9.4856 12.9634 9.4856 12.9632 9.4856 12.9629C9.4856 12.9626 9.4856 12.9624 9.4856 12.9621C9.4856 12.9619 9.4856 12.9616 9.4856 12.9614C9.4856 12.9611 9.4856 12.9609 9.4856 12.9606C9.4856 12.9604 9.4856 12.9601 9.4856 12.9598C9.4856 12.9596 9.4856 12.9593 9.4856 12.9591C9.4856 12.9588 9.4856 12.9586 9.4856 12.9583C9.4856 12.9581 9.4856 12.9578 9.4856 12.9575C9.4856 12.9573 9.4856 12.957 9.4856 12.9568C9.4856 12.9565 9.4856 12.9563 9.4856 12.956C9.4856 12.9557 9.4856 12.9555 9.4856 12.9552C9.4856 12.955 9.4856 12.9547 9.4856 12.9545C9.4856 12.9542 9.4856 12.9539 9.4856 12.9537C9.4856 12.9534 9.4856 12.9532 9.4856 12.9529C9.4856 12.9526 9.4856 12.9524 9.4856 12.9521C9.4856 12.9519 9.4856 12.9516 9.4856 12.9513C9.4856 12.9511 9.4856 12.9508 9.4856 12.9506C9.4856 12.9503 9.4856 12.95 9.4856 12.9498C9.4856 12.9495 9.4856 12.9493 9.4856 12.949C9.4856 12.9487 9.4856 12.9485 9.4856 12.9482C9.4856 12.948 9.4856 12.9477 9.4856 12.9474C9.4856 12.9472 9.4856 12.9469 9.4856 12.9466C9.4856 12.9464 9.4856 12.9461 9.4856 12.9459C9.4856 12.9456 9.4856 12.9453 9.4856 12.9451C9.4856 12.9448 9.4856 12.9445 9.4856 12.9443C9.4856 12.944 9.4856 12.9437 9.4856 12.9435C9.4856 12.9432 9.4856 12.9429 9.4856 12.9427C9.4856 12.9424 9.4856 12.9421 9.4856 12.9419C9.4856 12.9416 9.4856 12.9413 9.4856 12.9411C9.4856 12.9408 9.4856 12.9405 9.4856 12.9403C9.4856 12.94 9.4856 12.9397 9.4856 12.9395C9.4856 12.9392 9.4856 12.9389 9.4856 12.9387C9.4856 12.9384 9.4856 12.9381 9.4856 12.9379C9.4856 12.9376 9.4856 12.9373 9.4856 12.937C9.4856 12.9368 9.4856 12.9365 9.4856 12.9362C9.4856 12.936 9.4856 12.9357 9.4856 12.9354C9.4856 12.9352 9.4856 12.9349 9.4856 12.9346C9.4856 12.9343 9.4856 12.9341 9.4856 12.9338C9.4856 12.9335 9.4856 12.9332 9.4856 12.933C9.4856 12.9327 9.4856 12.9324 9.4856 12.9322C9.4856 12.9319 9.4856 12.9316 9.4856 12.9313C9.4856 12.9311 9.4856 12.9308 9.4856 12.9305C9.4856 12.9302 9.4856 12.93 9.4856 12.9297C9.4856 12.9294 9.4856 12.9291 9.4856 12.9288C9.4856 12.9286 9.4856 12.9283 9.4856 12.928C9.4856 12.9277 9.4856 12.9275 9.4856 12.9272C9.4856 12.9269 9.4856 12.9266 9.4856 12.9263C9.4856 12.9261 9.4856 12.9258 9.4856 12.9255C9.4856 12.9252 9.4856 12.925 9.4856 12.9247C9.4856 12.9244 9.4856 12.9241 9.4856 12.9238C9.4856 12.9235 9.4856 12.9233 9.4856 12.923C9.4856 12.9227 9.4856 12.9224 9.4856 12.9221C9.4856 12.9219 9.4856 12.9216 9.4856 12.9213C9.4856 12.921 9.4856 12.9207 9.4856 12.9204C9.4856 12.9202 9.4856 12.9199 9.4856 12.9196C9.4856 12.9193 9.4856 12.919 9.4856 12.9187C9.4856 12.9184 9.4856 12.9182 9.4856 12.9179C9.4856 12.9176 9.4856 12.9173 9.4856 12.917C9.4856 12.9167 9.4856 12.9164 9.4856 12.9162C9.4856 12.9159 9.4856 12.9156 9.4856 12.9153C9.4856 12.915 9.4856 12.9147 9.4856 12.9144C9.4856 12.9141 9.4856 12.9138 9.4856 12.9136C9.4856 12.9133 9.4856 12.913 9.4856 12.9127C9.4856 12.9124 9.4856 12.9121 9.4856 12.9118C9.4856 12.9115 9.4856 12.9112 9.4856 12.9109C9.4856 12.9106 9.4856 12.9103 9.4856 12.91C9.4856 12.9098 9.4856 12.9095 9.4856 12.9092C9.4856 12.9089 9.4856 12.9086 9.4856 12.9083C9.4856 12.908 9.4856 12.9077 9.4856 12.9074C9.4856 12.9071 9.4856 12.9068 9.4856 12.9065C9.4856 12.9062 9.4856 12.9059 9.4856 12.9056C9.4856 12.9053 9.4856 12.905 9.4856 12.9047C9.4856 12.9044 9.4856 12.9041 9.4856 12.9038C9.4856 12.9035 9.4856 12.9032 9.4856 12.9029C9.4856 12.9026 9.4856 12.9023 9.4856 12.902C9.4856 12.9017 9.4856 12.9014 9.4856 12.9011C9.4856 12.9008 9.4856 12.9005 9.4856 12.9002C9.4856 12.8999 9.4856 12.8996 9.4856 12.8993C9.4856 12.899 9.4856 12.8987 9.4856 12.8984C9.4856 12.8981 9.4856 12.8978 9.4856 12.8974C9.4856 12.8971 9.4856 12.8968 9.4856 12.8965C9.4856 12.8962 9.4856 12.8959 9.4856 12.8956C9.4856 12.8953 9.4856 12.895 9.4856 12.8947C9.4856 12.8944 9.4856 12.8941 9.4856 12.8937C9.4856 12.8934 9.4856 12.8931 9.4856 12.8928C9.4856 12.8925 9.4856 12.8922 9.4856 12.8919C9.4856 12.8916 9.4856 12.8913 9.4856 12.8909C9.4856 12.8906 9.4856 12.8903 9.4856 12.89C9.4856 12.8897 9.4856 12.8894 9.4856 12.8891C9.4856 12.8887 9.4856 12.8884 9.4856 12.8881C9.4856 12.8878 9.4856 12.8875 9.4856 12.8872C9.4856 12.8868 9.4856 12.8865 9.4856 12.8862C9.4856 12.8859 9.4856 12.8856 9.4856 12.8852C9.4856 12.8849 9.4856 12.8846 9.4856 12.8843C9.4856 12.884 9.4856 12.8836 9.4856 12.8833C9.4856 12.883 9.4856 12.8827 9.4856 12.8824C9.4856 12.882 9.4856 12.8817 9.4856 12.8814C9.4856 12.8811 9.4856 12.8807 9.4856 12.8804C9.4856 12.8801 9.4856 12.8798 9.4856 12.8794C9.4856 12.8791 9.4856 12.8788 9.4856 12.8785C9.4856 12.8781 9.4856 12.8778 9.4856 12.8775C9.4856 12.8771 9.4856 12.8768 9.4856 12.8765C9.4856 12.8762 9.4856 12.8758 9.4856 12.8755C9.4856 12.8752 9.4856 12.8748 9.4856 12.8745C9.4856 12.8742 9.4856 12.8738 9.4856 12.8735C9.4856 12.8732 9.4856 12.8728 9.4856 12.8725C9.4856 12.8722 9.4856 12.8718 9.4856 12.8715C9.4856 12.8712 9.4856 12.8708 9.4856 12.8705C9.4856 12.8702 9.4856 12.8698 9.4856 12.8695C9.4856 12.8691 9.4856 12.8688 9.4856 12.8685C9.4856 12.8681 9.4856 12.8678 9.4856 12.8674C9.4856 12.8671 9.4856 12.8668 9.4856 12.8664C9.4856 12.8661 9.4856 12.8657 9.4856 12.8654C9.4856 12.8651 9.4856 12.8647 9.4856 12.8644C9.4856 12.864 9.4856 12.8637 9.4856 12.8633C9.4856 12.863 9.4856 12.8627 9.4856 12.8623C9.4856 12.862 9.4856 12.8616 9.4856 12.8613C9.4856 12.8609 9.4856 12.8606 9.4856 12.8602C9.4856 12.8599 9.4856 12.8595 9.4856 12.8592C9.4856 12.8588 9.4856 12.8585 9.4856 12.8581C9.4856 12.8578 9.4856 12.8574 9.4856 12.8571C9.4856 12.8567 9.4856 12.8564 9.4856 12.856C9.4856 12.8557 9.4856 12.8553 9.4856 12.8549C9.4856 12.8546 9.4856 12.8542 9.4856 12.8539C9.4856 12.8535 9.4856 12.8532 9.4856 12.8528C9.4856 12.8525 9.4856 12.8521 9.4856 12.8517C9.4856 12.8514 9.4856 12.851 9.4856 12.8507C9.4856 12.8503 9.4856 12.8499 9.4856 12.8496C9.4856 12.8492 9.4856 12.8489 9.4856 12.8485C9.4856 12.8481 9.4856 12.8478 9.4856 12.8474C9.4856 12.847 9.4856 12.8467 9.4856 12.8463C9.4856 12.8459 9.4856 12.8456 9.4856 12.8452C9.4856 12.8448 9.4856 12.8445 9.4856 12.8441C9.4856 12.8437 9.4856 12.8434 9.4856 12.843C9.4856 12.8426 9.4856 12.8423 9.4856 12.8419C9.4856 12.8415 9.4856 12.8412 9.4856 12.8408C9.4856 12.8404 9.4856 12.84 9.4856 12.8397C9.4856 12.8393 9.4856 12.8389 9.4856 12.8385C9.4856 12.8382 9.4856 12.8378 9.4856 12.8374C9.4856 12.837 9.4856 12.8367 9.4856 12.8363C9.4856 12.8359 9.4856 12.8355 9.4856 12.8351C9.4856 12.8348 9.4856 12.8344 9.4856 12.834C9.4856 12.8336 9.4856 12.8332 9.4856 12.8329C9.4856 12.8325 9.4856 12.8321 9.4856 12.8317C9.4856 12.8313 9.4856 12.8309 9.4856 12.8306C9.4856 12.8302 9.4856 12.8298 9.4856 12.8294C9.4856 12.829 9.4856 12.8286 9.4856 12.8282C9.4856 12.8279 9.4856 12.8275 9.4856 12.8271C9.4856 12.8267 9.4856 12.8263 9.4856 12.8259C9.4856 12.8255 9.4856 12.8251 9.4856 12.8247C9.4856 12.8243 9.4856 12.824 9.4856 12.8236C9.4856 12.8232 9.4856 12.8228 9.4856 12.8224C9.4856 12.822 9.4856 12.8216 9.4856 12.8212C9.4856 12.8208 9.4856 12.8204 9.4856 12.82C9.4856 12.8196 9.4856 12.8192 9.4856 12.8188C9.4856 12.8184 9.4856 12.818 9.4856 12.8176C9.4856 12.8172 9.4856 12.8168 9.4856 12.8164C9.4856 12.816 9.4856 12.8156 9.4856 12.8152C9.4856 12.8148 9.4856 12.8144 9.4856 12.814C9.4856 12.8136 9.4856 12.8132 9.4856 12.8127C9.4856 12.8123 9.4856 12.8119 9.4856 12.8115C9.4856 12.8111 9.4856 12.8107 9.4856 12.8103C9.4856 12.8099 9.4856 12.8095 9.4856 12.8091C9.4856 12.8086 9.4856 12.8082 9.4856 12.8078C9.4856 12.8074 9.4856 12.807 9.4856 12.8066C9.4856 12.8062 9.4856 12.8057 9.4856 12.8053C9.4856 12.8049 9.4856 12.8045 9.4856 12.8041C9.4856 12.8037 9.4856 12.8032 9.4856 12.8028C9.4856 12.8024 9.4856 12.802 9.4856 12.8016C9.4856 12.8011 9.4856 12.8007 9.4856 12.8003C9.4856 12.7999 9.4856 12.7994 9.4856 12.799C9.4856 12.7986 9.4856 12.7982 9.4856 12.7977C9.4856 12.7973 9.4856 12.7969 9.4856 12.7965C9.4856 12.796 9.4856 12.7956 9.4856 12.7952C9.4856 12.7947 9.4856 12.7943 9.4856 12.7939C9.4856 12.7934 9.4856 12.793 9.4856 12.7926C9.4856 12.7921 9.4856 12.7917 9.4856 12.7913C9.4856 12.7908 9.4856 12.7904 9.4856 12.79C9.4856 12.7895 9.4856 12.7891 9.4856 12.7887C9.4856 12.7882 9.4856 12.7878 9.4856 12.7873C9.4856 12.7869 9.4856 12.7865 9.4856 12.786C9.4856 12.7856 9.4856 12.7851 9.4856 12.7847C9.4856 12.7842 9.4856 12.7838 9.4856 12.7834C9.4856 12.7829 9.4856 12.7825 9.4856 12.782C9.4856 12.7816 9.4856 12.7811 9.4856 12.7807C9.4856 12.7802 9.4856 12.7798 9.4856 12.7793C9.4856 12.7789 9.4856 12.7784 9.4856 12.778C9.4856 12.7775 9.4856 12.7771 9.4856 12.7766C9.4856 12.7762 9.4856 12.7757 9.4856 12.7752C9.4856 12.7748 9.4856 12.7743 9.4856 12.7739C9.4856 12.7734 9.4856 12.773 9.4856 12.7725C9.4856 12.772 9.4856 12.7716 9.4856 12.7711C9.4856 12.7707 9.4856 12.7702 9.4856 12.7697C9.4856 12.7693 9.4856 12.7688 9.4856 12.7683C9.4856 12.7679 9.4856 12.7674 9.4856 12.7669C9.4856 12.7665 9.4856 12.766 9.4856 12.7655C9.4856 12.7651 9.4856 12.7646 9.4856 12.7641C9.4856 12.7637 9.4856 12.7632 9.4856 12.7627C9.4856 12.7623 9.4856 12.7618 9.4856 12.7613C9.4856 12.7608 9.4856 12.7604 9.4856 12.7599C9.4856 12.7594 9.4856 12.7589 9.4856 12.7585C9.4856 12.758 9.4856 12.7575 9.4856 12.757C9.4856 12.7565 9.4856 12.7561 9.4856 12.7556C9.4856 12.7551 9.4856 12.7546 9.4856 12.7541C9.4856 12.7536 9.4856 12.7532 9.4856 12.7527C9.4856 12.7522 9.4856 12.7517 9.4856 12.7512C9.4856 12.7507 9.4856 12.7502 9.4856 12.7498H7.9856Z" fill="#5669FF"/>
</svg>
