<svg width="20" height="22" viewBox="0 0 20 22" fill="none" xmlns="http://www.w3.org/2000/svg">
<path d="M11.5833 13.3231C12.0148 13.3231 12.3645 12.9733 12.3645 12.5418C12.3645 12.1104 12.0148 11.7606 11.5833 11.7606V13.3231ZM11.5833 21.6564C12.0148 21.6564 12.3645 21.3066 12.3645 20.8752C12.3645 20.4437 12.0148 20.0939 11.5833 20.0939V21.6564ZM12.625 15.9272C12.1935 15.9272 11.8437 16.277 11.8437 16.7085C11.8437 17.14 12.1935 17.4897 12.625 17.4897V15.9272ZM18.875 17.4897C19.3064 17.4897 19.6562 17.14 19.6562 16.7085C19.6562 16.277 19.3064 15.9272 18.875 15.9272V17.4897ZM14.9687 19.8335C14.9687 20.265 15.3185 20.6147 15.75 20.6147C16.1814 20.6147 16.5312 20.265 16.5312 19.8335H14.9687ZM16.5312 13.5835C16.5312 13.152 16.1814 12.8022 15.75 12.8022C15.3185 12.8022 14.9687 13.152 14.9687 13.5835H16.5312ZM11.8437 5.25016C11.8437 7.11988 10.328 8.63558 8.45829 8.63558V10.1981C11.191 10.1981 13.4062 7.98282 13.4062 5.25016H11.8437ZM8.45829 8.63558C6.58858 8.63558 5.07288 7.11988 5.07288 5.25016H3.51038C3.51038 7.98282 5.72563 10.1981 8.45829 10.1981V8.63558ZM5.07288 5.25016C5.07288 3.38045 6.58858 1.86475 8.45829 1.86475V0.302246C5.72563 0.302246 3.51038 2.5175 3.51038 5.25016H5.07288ZM8.45829 1.86475C10.328 1.86475 11.8437 3.38045 11.8437 5.25016H13.4062C13.4062 2.5175 11.191 0.302246 8.45829 0.302246V1.86475ZM5.33329 13.3231H11.5833V11.7606H5.33329V13.3231ZM11.5833 20.0939H5.33329V21.6564H11.5833V20.0939ZM5.33329 20.0939C3.46358 20.0939 1.94788 18.5782 1.94788 16.7085H0.385376C0.385376 19.4412 2.60063 21.6564 5.33329 21.6564V20.0939ZM5.33329 11.7606C2.60063 11.7606 0.385376 13.9758 0.385376 16.7085H1.94788C1.94788 14.8388 3.46358 13.3231 5.33329 13.3231V11.7606ZM12.625 17.4897H18.875V15.9272H12.625V17.4897ZM16.5312 19.8335V13.5835H14.9687V19.8335H16.5312Z" fill="#FDFDFD"/>
</svg>
