<svg width="14" height="14" viewBox="0 0 14 14" fill="none" xmlns="http://www.w3.org/2000/svg">
<path d="M11.118 10.8907L9.86967 8.3999L8.62134 10.8907" stroke="#637EB7" stroke-width="0.5" stroke-linecap="round" stroke-linejoin="round"/>
<path d="M8.84912 10.4475H10.9025" stroke="#637EB7" stroke-width="0.5" stroke-linecap="round" stroke-linejoin="round"/>
<path d="M9.86983 12.8331C8.2365 12.8331 6.90649 11.509 6.90649 9.8698C6.90649 8.23647 8.23066 6.90649 9.86983 6.90649C11.5032 6.90649 12.8332 8.23064 12.8332 9.8698C12.8332 11.509 11.509 12.8331 9.86983 12.8331Z" stroke="#637EB7" stroke-linecap="round" stroke-linejoin="round"/>
<path d="M2.92842 1.16675H5.21508C6.42258 1.16675 7.00592 1.75009 6.97675 2.92843V5.21508C7.00592 6.42258 6.42258 7.00593 5.21508 6.97676H2.92842C1.75008 7.00009 1.16675 6.41674 1.16675 5.20924V2.92259C1.16675 1.75009 1.75008 1.16675 2.92842 1.16675Z" stroke="#637EB7" stroke-linecap="round" stroke-linejoin="round"/>
<path d="M5.25652 3.4126H2.88818" stroke="#637EB7" stroke-width="0.5" stroke-linecap="round" stroke-linejoin="round"/>
<path d="M4.06641 3.01587V3.41253" stroke="#637EB7" stroke-width="0.5" stroke-linecap="round" stroke-linejoin="round"/>
<path d="M4.66174 3.40674C4.66174 4.42757 3.86257 5.2559 2.88257 5.2559" stroke="#637EB7" stroke-width="0.5" stroke-linecap="round" stroke-linejoin="round"/>
<path d="M5.25714 5.25592C4.83131 5.25592 4.44631 5.02841 4.17798 4.66675" stroke="#637EB7" stroke-width="0.5" stroke-linecap="round" stroke-linejoin="round"/>
<path d="M1.16675 8.75C1.16675 11.0075 2.99258 12.8333 5.25008 12.8333L4.63758 11.8125" stroke="#637EB7" stroke-linecap="round" stroke-linejoin="round"/>
<path d="M12.8333 5.25008C12.8333 2.99258 11.0075 1.16675 8.75 1.16675L9.3625 2.18758" stroke="#637EB7" stroke-linecap="round" stroke-linejoin="round"/>
</svg>
