<svg width="26" height="26" viewBox="0 0 26 26" fill="none" xmlns="http://www.w3.org/2000/svg">
<path d="M8.40085 7.55507C8.49339 6.68525 9.18109 5.9843 10.0494 5.87873C11.0044 5.76262 11.9909 5.65137 12.9999 5.65137C14.009 5.65137 14.9954 5.76262 15.9505 5.87873C16.8188 5.9843 17.5065 6.68525 17.599 7.55507C17.6824 8.33905 17.7671 9.14277 17.8077 9.9621L19.8391 11.47C20.2996 11.8118 20.5712 12.3515 20.5712 12.9251V22.3307C20.5712 23.3315 19.7598 24.1428 18.759 24.1428H7.24089C6.24005 24.1428 5.42871 23.3315 5.42871 22.3307V12.9251C5.42871 12.3515 5.70022 11.8118 6.16075 11.47L8.19217 9.96201C8.23282 9.14271 8.31745 8.33903 8.40085 7.55507Z" fill="#E7E7E7" stroke="#B7BDCB" stroke-width="2.78571" stroke-linejoin="round"/>
<path d="M9.08205 7.10274C8.22448 7.05842 7.48335 6.43977 7.39646 5.58546C7.32404 4.87335 7.32404 4.22076 7.39646 3.50865C7.48335 2.65434 8.22448 2.03568 9.08205 1.99137C10.3454 1.92609 11.6561 1.85711 13 1.85711C14.3439 1.85711 15.6546 1.92609 16.9179 1.99137C17.7755 2.03568 18.5166 2.65434 18.6035 3.50865C18.6759 4.22076 18.6759 4.87335 18.6035 5.58546C18.5166 6.43977 17.7755 7.05842 16.9179 7.10274C15.6546 7.16802 14.3439 7.237 13 7.237C11.6561 7.237 10.3454 7.16802 9.08205 7.10274Z" fill="white" stroke="#B7BDCB" stroke-width="2.78571" stroke-linejoin="round"/>
<path d="M2.27747 9.08139L5.62715 12.1317" stroke="#B7BDCB" stroke-width="2.78571" stroke-linecap="round"/>
<path d="M23.7227 9.08139L20.373 12.1317" stroke="#B7BDCB" stroke-width="2.78571" stroke-linecap="round"/>
</svg>
