<svg width="26" height="26" viewBox="0 0 26 26" fill="none" xmlns="http://www.w3.org/2000/svg">
<path d="M24.3379 19.105C24.3379 22.0005 19.2621 24.3378 13.0001 24.3378C6.7381 24.3378 1.66223 22.0005 1.66223 19.105" stroke="#B7BDCB" stroke-width="2.78571" stroke-linecap="round" stroke-linejoin="round"/>
<path d="M9.30212 7.57524C7.82389 7.03128 6.3028 6.61636 4.75593 6.33439C3.60991 6.12549 2.64376 7.09616 2.84799 8.24303C3.24066 10.4481 4.06037 13.7172 5.62168 15.2675C7.36597 17.0118 12.407 17.1165 13.0175 16.506" fill="#E7E7E7"/>
<path d="M9.30213 7.57524C7.82389 7.03128 6.3028 6.61636 4.75593 6.33439C3.60991 6.12549 2.64376 7.09616 2.84799 8.24303C3.24066 10.4481 4.06037 13.7172 5.62168 15.2675C7.36597 17.0118 12.407 17.1165 13.0175 16.506L9.30213 7.57524Z" stroke="#B7BDCB" stroke-width="2.78571" stroke-linecap="round" stroke-linejoin="round"/>
<path d="M16.6979 7.57524C18.1761 7.03128 19.6972 6.61636 21.2441 6.33439C22.3901 6.12549 23.3562 7.09616 23.152 8.24303C22.7593 10.4481 21.9396 13.7172 20.3783 15.2675C18.634 17.0118 13.593 17.1165 12.9825 16.506" fill="#E7E7E7"/>
<path d="M16.6979 7.57524C18.1761 7.03128 19.6972 6.61636 21.2441 6.33439C22.3901 6.12549 23.3562 7.09616 23.152 8.24303C22.7593 10.4481 21.9396 13.7172 20.3783 15.2675C18.634 17.0118 13.593 17.1165 12.9825 16.506L16.6979 7.57524Z" stroke="#B7BDCB" stroke-width="2.78571" stroke-linecap="round" stroke-linejoin="round"/>
<path d="M17.3608 10.3836C17.3608 12.7907 13.8723 16.4886 13.0001 16.4886C12.128 16.4886 8.6394 12.7907 8.6394 10.3836C8.6394 8.17938 10.3802 5.27886 11.6621 3.44187C12.3258 2.49075 13.6745 2.49075 14.3381 3.44187C15.62 5.27886 17.3608 8.17938 17.3608 10.3836Z" fill="white" stroke="#B7BDCB" stroke-width="2.78571" stroke-linecap="round" stroke-linejoin="round"/>
</svg>
