<svg width="14" height="14" viewBox="0 0 14 14" fill="none" xmlns="http://www.w3.org/2000/svg">
<path d="M7.54892 0.849664C8.22569 0.784187 8.92276 0.75 9.63474 0.75C10.3467 0.75 11.0438 0.784187 11.7206 0.849665C12.4653 0.921717 13.035 1.67654 13.0686 2.59563C13.1206 4.01513 13.1479 5.48869 13.1479 7C13.1479 8.5113 13.1206 9.98487 13.0686 11.4044C13.035 12.3235 12.4653 13.0783 11.7206 13.1503C11.0438 13.2158 10.3467 13.25 9.63474 13.25C8.92276 13.25 8.22569 13.2158 7.54892 13.1503C6.80421 13.0783 6.23449 12.3235 6.20086 11.4044C6.18232 10.8979 6.16691 10.3846 6.15477 9.86507V4.13496C6.16691 3.61546 6.18232 3.1021 6.20086 2.59563C6.23449 1.67654 6.80421 0.921715 7.54892 0.849664Z" fill="#FFC5C5"/>
<path d="M4.85917 7.09043C4.85917 7.58613 4.78973 8.28396 4.71809 8.87194C4.64508 9.47121 4.04551 9.85505 3.49286 9.6121C2.48117 9.16734 1.54872 8.50756 0.8961 7.54804C0.708112 7.27165 0.708097 6.90919 0.896072 6.63279C1.54864 5.67324 2.48112 5.01348 3.49281 4.56874C4.04544 4.3258 4.645 4.70961 4.71804 5.30885C4.7897 5.89685 4.85917 6.5947 4.85917 7.09043Z" fill="white"/>
<path d="M4.71809 8.87194L5.46259 8.96265L4.71809 8.87194ZM4.71804 5.30885L5.46253 5.21811L5.46253 5.21811L4.71804 5.30885ZM3.49286 9.6121L3.19102 10.2987L3.49286 9.6121ZM0.8961 7.54804L1.51625 7.12625L1.51625 7.12625L0.8961 7.54804ZM3.49281 4.56874L3.19098 3.88215L3.19098 3.88215L3.49281 4.56874ZM0.896072 6.63279L0.275899 6.21103L0.275899 6.21103L0.896072 6.63279ZM5.46259 8.96265C5.53439 8.37327 5.60917 7.63579 5.60917 7.09043L4.10917 7.09043C4.10917 7.53647 4.04507 8.19464 3.9736 8.78124L5.46259 8.96265ZM3.97355 5.39959C4.04504 5.9862 4.10917 6.64438 4.10917 7.09043L5.60917 7.09043C5.60917 6.54502 5.53436 5.8075 5.46253 5.21811L3.97355 5.39959ZM3.79469 8.92552C2.87484 8.52113 2.06969 7.93995 1.51625 7.12625L0.275948 7.96984C1.02774 9.07518 2.0875 9.81355 3.19102 10.2987L3.79469 8.92552ZM3.19098 3.88215C2.08747 4.36726 1.02765 5.10563 0.275899 6.21103L1.51624 7.05456C2.06962 6.24086 2.87477 5.6597 3.79464 5.25532L3.19098 3.88215ZM5.46253 5.21811C5.33572 4.17765 4.25603 3.41395 3.19098 3.88215L3.79464 5.25532C3.81809 5.24501 3.83413 5.24414 3.84524 5.24506C3.85792 5.24611 3.87403 5.25053 3.89195 5.26157C3.92843 5.28404 3.96502 5.32962 3.97355 5.39959L5.46253 5.21811ZM1.51625 7.12625C1.50138 7.10438 1.50139 7.0764 1.51624 7.05456L0.275899 6.21103C-0.0851924 6.74198 -0.0851573 7.43892 0.275948 7.96984L1.51625 7.12625ZM3.9736 8.78124C3.96507 8.85121 3.92849 8.8968 3.892 8.91927C3.87408 8.93031 3.85797 8.93473 3.8453 8.93578C3.83419 8.9367 3.81815 8.93583 3.79469 8.92552L3.19102 10.2987C4.25611 10.7669 5.33582 10.0031 5.46259 8.96265L3.9736 8.78124Z" fill="#FF5656"/>
<path d="M11.7206 0.849665L11.6483 1.59618L11.7206 0.849665ZM13.0686 2.59563L13.8181 2.5682L13.0686 2.59563ZM6.95035 2.62306C6.9352 3.037 6.58736 3.36028 6.17342 3.34513C5.75949 3.32998 5.43621 2.98214 5.45136 2.5682L6.95035 2.62306ZM7.54892 0.849664L7.4767 0.10315L7.54892 0.849664ZM13.0686 11.4044L13.8181 11.4318L13.0686 11.4044ZM11.7206 13.1503L11.7928 13.8968L11.7206 13.1503ZM5.45136 11.4318C5.43621 11.0179 5.75949 10.67 6.17342 10.6549C6.58736 10.6397 6.9352 10.963 6.95035 11.3769L5.45136 11.4318ZM7.54892 13.1503L7.47669 13.8969L7.54892 13.1503ZM9.63474 1.5C8.94672 1.5 8.27375 1.53304 7.62115 1.59618L7.4767 0.10315C8.17763 0.0353343 8.89881 0 9.63474 0V1.5ZM11.6483 1.59618C10.9957 1.53304 10.3228 1.5 9.63474 1.5V0C10.3707 0 11.0919 0.0353346 11.7928 0.103151L11.6483 1.59618ZM12.3979 7C12.3979 5.49769 12.3708 4.03327 12.3191 2.62306L13.8181 2.5682C13.8704 3.99698 13.8979 5.47969 13.8979 7H12.3979ZM12.3191 11.3769C12.3708 9.96672 12.3979 8.5023 12.3979 7H13.8979C13.8979 8.5203 13.8704 10.003 13.8181 11.4318L12.3191 11.3769ZM9.63474 12.5C10.3228 12.5 10.9957 12.467 11.6483 12.4038L11.7928 13.8968C11.0919 13.9647 10.3707 14 9.63474 14V12.5ZM7.62114 12.4038C8.27375 12.467 8.94672 12.5 9.63474 12.5V14C8.89881 14 8.17763 13.9647 7.47669 13.8969L7.62114 12.4038ZM11.7928 0.103151C13.0375 0.223575 13.776 1.4156 13.8181 2.5682L12.3191 2.62306C12.294 1.93748 11.8931 1.61986 11.6483 1.59618L11.7928 0.103151ZM5.45136 2.5682C5.49354 1.4156 6.23201 0.223573 7.4767 0.10315L7.62115 1.59618C7.37641 1.61986 6.97545 1.93748 6.95035 2.62306L5.45136 2.5682ZM13.8181 11.4318C13.776 12.5844 13.0375 13.7764 11.7928 13.8968L11.6483 12.4038C11.8931 12.3801 12.294 12.0625 12.3191 11.3769L13.8181 11.4318ZM6.95035 11.3769C6.97545 12.0625 7.37641 12.3801 7.62114 12.4038L7.47669 13.8969C6.23201 13.7764 5.49354 12.5844 5.45136 11.4318L6.95035 11.3769Z" fill="#FF5656"/>
<path d="M9.99606 7.09045L4.85913 7.09045" stroke="#FF5656" stroke-width="1.5" stroke-linecap="round" stroke-linejoin="round"/>
</svg>
