<svg width="14" height="15" viewBox="0 0 14 15" fill="none" xmlns="http://www.w3.org/2000/svg">
<path d="M1.75265 2.67878C1.22125 5.65565 1.08188 9.90985 1.38588 12.668C1.43944 13.1539 1.8583 13.5061 2.34714 13.5061H11.6529C12.1417 13.5061 12.5606 13.1539 12.6141 12.668C12.9182 9.90985 12.7788 5.65565 12.2474 2.67878C12.1176 1.95165 11.5503 1.40125 10.819 1.29772C9.78364 1.15115 8.31931 1.0061 7.00002 1.0061C5.68073 1.0061 4.21639 1.15115 3.18108 1.29772C2.44975 1.40125 1.88244 1.95165 1.75265 2.67878Z" fill="#C5D1FF" stroke="#5669FF" stroke-width="1.5" stroke-linecap="round" stroke-linejoin="round"/>
<path d="M8.5 7.7561H9.5" stroke="#5669FF" stroke-width="1.5" stroke-linecap="round" stroke-linejoin="round"/>
<path d="M5.5 11.7561V13.5061H8.5V11.7561C8.5 10.9277 7.82843 10.2561 7 10.2561C6.17157 10.2561 5.5 10.9277 5.5 11.7561Z" fill="white" stroke="#5669FF" stroke-width="1.5" stroke-linecap="round" stroke-linejoin="round"/>
<path d="M4.5 4.7561H5.5" stroke="#5669FF" stroke-width="1.5" stroke-linecap="round" stroke-linejoin="round"/>
<path d="M8.5 4.7561H9.5" stroke="#5669FF" stroke-width="1.5" stroke-linecap="round" stroke-linejoin="round"/>
<path d="M4.5 7.7561H5.5" stroke="#5669FF" stroke-width="1.5" stroke-linecap="round" stroke-linejoin="round"/>
</svg>
