<svg width="20" height="20" viewBox="0 0 20 20" fill="none" xmlns="http://www.w3.org/2000/svg">
<path d="M2.14289 5.00016C1.15502 7.46984 1.16336 14.298 1.33757 17.6422C1.37575 18.3752 1.98751 18.9287 2.72144 18.9287H11.5643C12.2982 18.9287 12.91 18.3752 12.9481 17.6422C13.1223 14.298 13.1307 7.46984 12.1428 5.00016C11.5603 4.22349 10.1228 2.62344 8.37253 1.43964C7.6276 0.93581 6.65809 0.93581 5.91317 1.43964C4.16291 2.62344 2.72538 4.22349 2.14289 5.00016Z" fill="white" stroke="#5669FF" stroke-width="2" stroke-linecap="round" stroke-linejoin="round"/>
<path d="M12.8555 8.92847H16.0819C17.2186 8.92847 18.1965 9.48299 18.4076 10.5999C18.7314 12.3133 18.9423 15.2197 18.5714 18.9285H11.5642C12.2982 18.9285 12.9099 18.3749 12.9481 17.642C13.0605 15.4853 13.1038 11.8796 12.8555 8.92847Z" fill="#7C95EF" stroke="#5669FF" stroke-width="2" stroke-linecap="round" stroke-linejoin="round"/>
<path d="M6.42856 11.4285H7.85713" stroke="#5669FF" stroke-width="2" stroke-linecap="round" stroke-linejoin="round"/>
<path d="M7.14285 18.9325V15.7144" stroke="#5669FF" stroke-width="2" stroke-linecap="round" stroke-linejoin="round"/>
<path d="M6.42856 7.14282H7.85713" stroke="#5669FF" stroke-width="2" stroke-linecap="round" stroke-linejoin="round"/>
</svg>
