<svg width="14" height="14" viewBox="0 0 14 14" fill="none" xmlns="http://www.w3.org/2000/svg">
<path d="M4.08495 3.50016C4.08495 1.88933 5.39079 0.583496 7.00162 0.583496C8.61245 0.583496 9.91829 1.88933 9.91829 3.50016V3.50699M4.08495 3.50016C4.45117 3.49321 4.86237 3.50016 5.34515 3.50016H8.65808C9.13779 3.50016 9.55374 3.50016 9.91829 3.50699M4.08495 3.50016C3.08228 3.51921 2.46226 3.59735 1.98027 3.86344C1.41963 4.17296 0.976933 4.6581 0.71973 5.2434M0.71973 5.2434L2.80605 7.32972C4.75049 9.27416 5.72272 10.2464 6.93084 10.2464C8.13896 10.2464 9.11118 9.27416 11.0556 7.32972L13.1747 5.21065C13.1955 5.18987 13.2184 5.17136 13.2431 5.15543V5.15543M0.71973 5.2434C0.711809 5.26143 0.704064 5.27955 0.696496 5.29776C0.408106 5.99188 0.507747 6.88864 0.707028 8.68218C0.870139 10.1502 0.951695 10.8842 1.29032 11.4381C1.58861 11.926 2.02377 12.3155 2.54167 12.5581C3.1296 12.8335 3.86812 12.8335 5.34515 12.8335H8.65809C10.1351 12.8335 10.8736 12.8335 11.4616 12.5581C11.9795 12.3155 12.4146 11.926 12.7129 11.4381C13.0515 10.8842 13.1331 10.1502 13.2962 8.68218C13.4955 6.88864 13.5951 5.99188 13.3067 5.29776C13.2868 5.24966 13.2655 5.2022 13.2431 5.15543M9.91829 3.50699C10.9251 3.52583 11.5399 3.59673 12.023 3.86344C12.5553 4.15732 12.9813 4.60951 13.2431 5.15543" stroke="#637EB7" stroke-width="0.875"/>
</svg>
